<?xml version="1.0" encoding="UTF-8"?>
<!DOCTYPE svg PUBLIC "-//W3C//DTD SVG 1.1//EN" "http://www.w3.org/Graphics/SVG/1.1/DTD/svg11.dtd">
<svg xmlns="http://www.w3.org/2000/svg" version="1.1" width="436px" height="329px" style="shape-rendering:geometricPrecision; text-rendering:geometricPrecision; image-rendering:optimizeQuality; fill-rule:evenodd; clip-rule:evenodd" xmlns:xlink="http://www.w3.org/1999/xlink">
<g><path style="opacity:1" fill="#fefefd" d="M -0.5,-0.5 C 144.833,-0.5 290.167,-0.5 435.5,-0.5C 435.5,109.167 435.5,218.833 435.5,328.5C 290.167,328.5 144.833,328.5 -0.5,328.5C -0.5,218.833 -0.5,109.167 -0.5,-0.5 Z"/></g>
<g><path style="opacity:1" fill="#f4bd27" d="M 300.5,111.5 C 300.179,113.048 299.179,113.715 297.5,113.5C 276.496,108.223 256.329,100.89 237,91.5C 228.673,88.8894 220.173,87.2228 211.5,86.5C 209.052,85.5269 206.385,85.1936 203.5,85.5C 202.391,84.71 201.058,84.21 199.5,84C 187.992,83.1741 176.659,83.3407 165.5,84.5C 159.596,84.3213 153.929,84.9879 148.5,86.5C 116.094,89.2142 86.4273,99.5475 59.5,117.5C 58.479,116.998 58.3123,116.332 59,115.5C 65.5372,108.97 72.7039,103.136 80.5,98C 109.177,81.3925 140.177,73.7258 173.5,75C 174.551,69.7961 176.218,64.7961 178.5,60C 184.157,59.5006 189.824,59.3339 195.5,59.5C 196.78,65.4531 198.446,71.2865 200.5,77C 210.996,77.2092 221.329,78.5426 231.5,81C 249.315,87.2715 266.315,95.2715 282.5,105C 286.912,106.704 291.246,108.704 295.5,111C 297.134,111.494 298.801,111.66 300.5,111.5 Z"/></g>
<g><path style="opacity:1" fill="#fffada" d="M 165.5,84.5 C 178.185,84.3451 190.851,84.6784 203.5,85.5C 206.385,85.1936 209.052,85.5269 211.5,86.5C 190.495,85.3539 169.495,85.3539 148.5,86.5C 153.929,84.9879 159.596,84.3213 165.5,84.5 Z"/></g>
<g><path style="opacity:1" fill="#f5d583" d="M 165.5,84.5 C 176.659,83.3407 187.992,83.1741 199.5,84C 201.058,84.21 202.391,84.71 203.5,85.5C 190.851,84.6784 178.185,84.3451 165.5,84.5 Z"/></g>
<g><path style="opacity:1" fill="#eed88e" d="M 300.5,111.5 C 303.073,112.493 305.74,113.326 308.5,114C 304.669,115.858 301.002,115.691 297.5,113.5C 299.179,113.715 300.179,113.048 300.5,111.5 Z"/></g>
<g><path style="opacity:1" fill="#fffad5" d="M 226.5,117.5 C 236.399,117.717 246.066,118.717 255.5,120.5C 245.591,120.476 235.924,119.476 226.5,117.5 Z"/></g>
<g><path style="opacity:1" fill="#f0be35" d="M 226.5,117.5 C 235.924,119.476 245.591,120.476 255.5,120.5C 283.833,121.167 312.167,121.833 340.5,122.5C 308.498,122.333 276.498,122.5 244.5,123C 244.167,123.333 243.833,123.667 243.5,124C 274.172,124.167 304.839,124.667 335.5,125.5C 311.507,126.333 287.507,126.833 263.5,127C 277.092,128.859 290.425,130.692 303.5,132.5C 286.309,131.681 269.309,130.014 252.5,127.5C 246.351,125.765 240.018,124.432 233.5,123.5C 226.23,122.034 219.23,119.701 212.5,116.5C 213.167,116.167 213.833,115.833 214.5,115.5C 218.495,116.261 222.495,116.928 226.5,117.5 Z"/></g>
<g><path style="opacity:1" fill="#f7e69f" d="M 233.5,123.5 C 240.018,124.432 246.351,125.765 252.5,127.5C 245.781,127.322 239.447,125.989 233.5,123.5 Z"/></g>
<g><path style="opacity:1" fill="#ecbc38" d="M 40.5,124.5 C 40.7418,131.474 37.7418,133.808 31.5,131.5C 31.3561,124.968 34.3561,122.635 40.5,124.5 Z"/></g>
<g><path style="opacity:1" fill="#fef0ba" d="M 385.5,127.5 C 390.777,128.032 395.444,129.699 399.5,132.5C 394.546,131.186 389.88,129.519 385.5,127.5 Z"/></g>
<g><path style="opacity:1" fill="#efbb2b" d="M 49.5,127.5 C 52.3408,127.56 55.0075,128.226 57.5,129.5C 57.5,131.5 57.5,133.5 57.5,135.5C 55.1667,135.5 52.8333,135.5 50.5,135.5C 49.612,132.946 49.2786,130.279 49.5,127.5 Z"/></g>
<g><path style="opacity:1" fill="#f5bd24" d="M 340.5,122.5 C 355.654,123 370.654,124.666 385.5,127.5C 389.88,129.519 394.546,131.186 399.5,132.5C 407.019,135.185 413.519,139.518 419,145.5C 420.128,147.345 420.628,149.345 420.5,151.5C 406.75,145.526 392.417,141.026 377.5,138C 352.692,136.099 328.026,134.266 303.5,132.5C 290.425,130.692 277.092,128.859 263.5,127C 287.507,126.833 311.507,126.333 335.5,125.5C 304.839,124.667 274.172,124.167 243.5,124C 243.833,123.667 244.167,123.333 244.5,123C 276.498,122.5 308.498,122.333 340.5,122.5 Z"/></g>
<g><path style="opacity:1" fill="#13100e" d="M 40.5,124.5 C 43.1667,125.167 45.8333,125.833 48.5,126.5C 48.6621,128.527 48.4955,130.527 48,132.5C 44.8708,133.13 41.7041,133.796 38.5,134.5C 37.6518,136.409 37.3184,138.409 37.5,140.5C 34.7623,140.149 32.0956,139.482 29.5,138.5C 28.1673,135.506 28.834,133.172 31.5,131.5C 37.7418,133.808 40.7418,131.474 40.5,124.5 Z"/></g>
<g><path style="opacity:1" fill="#17120e" d="M 57.5,129.5 C 60.4261,130.461 63.4261,131.127 66.5,131.5C 66.3379,133.527 66.5045,135.527 67,137.5C 67.3826,138.056 67.8826,138.389 68.5,138.5C 70.3024,139.458 72.3024,140.125 74.5,140.5C 74.5,141.833 74.5,143.167 74.5,144.5C 71.3125,146.657 67.9792,146.99 64.5,145.5C 67.0716,138.611 64.7383,135.777 57.5,137C 56.6634,138.011 56.33,139.178 56.5,140.5C 55.596,141.209 55.2627,142.209 55.5,143.5C 52.3915,143.736 49.3915,143.403 46.5,142.5C 47.2341,141.292 47.5674,139.959 47.5,138.5C 47.5,137.5 47.5,136.5 47.5,135.5C 48.5,135.5 49.5,135.5 50.5,135.5C 52.8333,135.5 55.1667,135.5 57.5,135.5C 57.5,133.5 57.5,131.5 57.5,129.5 Z"/></g>
<g><path style="opacity:1" fill="#efbc40" d="M 66.5,131.5 C 69.7814,131.42 72.7814,132.087 75.5,133.5C 74.5489,134.919 74.2155,136.585 74.5,138.5C 72.5,138.5 70.5,138.5 68.5,138.5C 67.8826,138.389 67.3826,138.056 67,137.5C 66.5045,135.527 66.3379,133.527 66.5,131.5 Z"/></g>
<g><path style="opacity:1" fill="#f6bb1e" d="M 47.5,135.5 C 47.5,136.5 47.5,137.5 47.5,138.5C 45.1998,140.202 42.5331,140.868 39.5,140.5C 39.5,138.5 39.5,136.5 39.5,134.5C 42.1667,134.833 44.8333,135.167 47.5,135.5 Z"/></g>
<g><path style="opacity:1" fill="#060403" d="M 83.5,137.5 C 83.7678,139.099 83.4345,140.432 82.5,141.5C 81.4324,140.566 80.099,140.232 78.5,140.5C 77.791,139.596 76.791,139.263 75.5,139.5C 75.5,137.833 75.5,136.167 75.5,134.5C 77.1238,134.36 78.2904,135.027 79,136.5C 81.0449,134.957 82.5449,135.29 83.5,137.5 Z"/></g>
<g><path style="opacity:1" fill="#caa94b" d="M 48.5,126.5 C 49.1667,126.5 49.5,126.833 49.5,127.5C 49.2786,130.279 49.612,132.946 50.5,135.5C 49.5,135.5 48.5,135.5 47.5,135.5C 44.8333,135.167 42.1667,134.833 39.5,134.5C 39.5,136.5 39.5,138.5 39.5,140.5C 42.5331,140.868 45.1998,140.202 47.5,138.5C 47.5674,139.959 47.2341,141.292 46.5,142.5C 43.8127,142.664 41.146,142.497 38.5,142C 37.944,141.617 37.6107,141.117 37.5,140.5C 37.3184,138.409 37.6518,136.409 38.5,134.5C 41.7041,133.796 44.8708,133.13 48,132.5C 48.4955,130.527 48.6621,128.527 48.5,126.5 Z"/></g>
<g><path style="opacity:1" fill="#ebb92e" d="M 64.5,145.5 C 62.076,145.808 59.7427,145.474 57.5,144.5C 56.7542,143.264 56.4208,141.93 56.5,140.5C 56.33,139.178 56.6634,138.011 57.5,137C 64.7383,135.777 67.0716,138.611 64.5,145.5 Z"/></g>
<g><path style="opacity:1" fill="#f3bc2d" d="M 84.5,135.5 C 87.6296,135.7 90.6296,136.366 93.5,137.5C 93.1667,138.833 92.8333,140.167 92.5,141.5C 89.8333,141.5 87.1667,141.5 84.5,141.5C 84.5,140.167 84.5,138.833 84.5,137.5C 84.5,136.833 84.5,136.167 84.5,135.5 Z"/></g>
<g><path style="opacity:1" fill="#15120f" d="M 93.5,137.5 C 96.7131,137.19 99.7131,137.523 102.5,138.5C 102.5,139.167 102.5,139.833 102.5,140.5C 101.596,141.209 101.263,142.209 101.5,143.5C 98.5,143.5 95.5,143.5 92.5,143.5C 92.1667,145.5 91.8333,147.5 91.5,149.5C 88.5448,148.841 85.5448,148.508 82.5,148.5C 82.5,147.5 82.5,146.5 82.5,145.5C 83.404,144.791 83.7373,143.791 83.5,142.5C 86.7131,142.81 89.7131,142.477 92.5,141.5C 92.8333,140.167 93.1667,138.833 93.5,137.5 Z"/></g>
<g><path style="opacity:1" fill="#483b1e" d="M 75.5,133.5 C 78.7273,133.676 81.7273,134.343 84.5,135.5C 84.5,136.167 84.5,136.833 84.5,137.5C 84.1667,137.5 83.8333,137.5 83.5,137.5C 82.5449,135.29 81.0449,134.957 79,136.5C 78.2904,135.027 77.1238,134.36 75.5,134.5C 75.5,136.167 75.5,137.833 75.5,139.5C 76.791,139.263 77.791,139.596 78.5,140.5C 77.1667,140.5 75.8333,140.5 74.5,140.5C 72.3024,140.125 70.3024,139.458 68.5,138.5C 70.5,138.5 72.5,138.5 74.5,138.5C 74.2155,136.585 74.5489,134.919 75.5,133.5 Z"/></g>
<g><path style="opacity:1" fill="#8b732f" d="M 83.5,137.5 C 83.8333,137.5 84.1667,137.5 84.5,137.5C 84.5,138.833 84.5,140.167 84.5,141.5C 87.1667,141.5 89.8333,141.5 92.5,141.5C 89.7131,142.477 86.7131,142.81 83.5,142.5C 83.7373,143.791 83.404,144.791 82.5,145.5C 82.5,144.167 82.5,142.833 82.5,141.5C 83.4345,140.432 83.7678,139.099 83.5,137.5 Z"/></g>
<g><path style="opacity:1" fill="#f0be33" d="M 102.5,138.5 C 106.012,137.945 109.012,138.612 111.5,140.5C 111.5,141.5 111.5,142.5 111.5,143.5C 108.609,144.403 105.609,144.736 102.5,144.5C 102.5,143.167 102.5,141.833 102.5,140.5C 102.5,139.833 102.5,139.167 102.5,138.5 Z"/></g>
<g><path style="opacity:1" fill="#dfd49f" d="M 132.5,141.5 C 136.649,140.92 140.316,141.586 143.5,143.5C 141.167,143.5 138.833,143.5 136.5,143.5C 135.167,142.833 133.833,142.167 132.5,141.5 Z"/></g>
<g><path style="opacity:1" fill="#efba28" d="M 127.5,141.5 C 127.5,142.833 127.5,144.167 127.5,145.5C 127.167,145.5 126.833,145.5 126.5,145.5C 123.05,146.244 121.384,144.91 121.5,141.5C 123.5,141.5 125.5,141.5 127.5,141.5 Z"/></g>
<g><path style="opacity:1" fill="#d1b15e" d="M 120.5,140.5 C 123.059,140.198 125.393,140.532 127.5,141.5C 125.5,141.5 123.5,141.5 121.5,141.5C 121.384,144.91 123.05,146.244 126.5,145.5C 126.158,146.338 125.492,146.672 124.5,146.5C 123.167,146.5 121.833,146.5 120.5,146.5C 120.5,144.5 120.5,142.5 120.5,140.5 Z"/></g>
<g><path style="opacity:1" fill="#eaba38" d="M 74.5,140.5 C 75.8333,140.5 77.1667,140.5 78.5,140.5C 80.099,140.232 81.4324,140.566 82.5,141.5C 82.5,142.833 82.5,144.167 82.5,145.5C 82.5,146.5 82.5,147.5 82.5,148.5C 79.8333,148.5 77.1667,148.5 74.5,148.5C 74.5,147.167 74.5,145.833 74.5,144.5C 74.5,143.167 74.5,141.833 74.5,140.5 Z"/></g>
<g><path style="opacity:1" fill="#705819" d="M 102.5,140.5 C 102.5,141.833 102.5,143.167 102.5,144.5C 105.609,144.736 108.609,144.403 111.5,143.5C 113.156,145.06 115.156,146.06 117.5,146.5C 115.167,146.5 112.833,146.5 110.5,146.5C 107.57,145.701 104.57,145.368 101.5,145.5C 101.5,144.833 101.5,144.167 101.5,143.5C 101.263,142.209 101.596,141.209 102.5,140.5 Z"/></g>
<g><path style="opacity:1" fill="#d0bd8c" d="M 172.5,144.5 C 175.713,144.19 178.713,144.523 181.5,145.5C 178.833,145.5 176.167,145.5 173.5,145.5C 173.5,147.167 173.5,148.833 173.5,150.5C 174.5,150.5 175.5,150.5 176.5,150.5C 172.366,151.485 168.032,151.818 163.5,151.5C 166.287,150.523 169.287,150.19 172.5,150.5C 172.5,148.5 172.5,146.5 172.5,144.5 Z"/></g>
<g><path style="opacity:1" fill="#130c0a" d="M 127.5,141.5 C 129.167,141.5 130.833,141.5 132.5,141.5C 133.833,142.167 135.167,142.833 136.5,143.5C 136.5,144.833 136.5,146.167 136.5,147.5C 136.167,147.5 135.833,147.5 135.5,147.5C 132.833,146.833 130.167,146.167 127.5,145.5C 127.5,144.167 127.5,142.833 127.5,141.5 Z"/></g>
<g><path style="opacity:1" fill="#100e0c" d="M 145.5,143.5 C 148.5,143.5 151.5,143.5 154.5,143.5C 154.5,145.167 154.5,146.833 154.5,148.5C 153.167,148.5 151.833,148.5 150.5,148.5C 149.081,147.549 147.415,147.216 145.5,147.5C 145.5,146.167 145.5,144.833 145.5,143.5 Z"/></g>
<g><path style="opacity:1" fill="#181310" d="M 163.5,144.5 C 166.5,144.5 169.5,144.5 172.5,144.5C 172.5,146.5 172.5,148.5 172.5,150.5C 169.287,150.19 166.287,150.523 163.5,151.5C 160.5,151.5 157.5,151.5 154.5,151.5C 156.988,149.612 159.988,148.945 163.5,149.5C 163.5,147.833 163.5,146.167 163.5,144.5 Z"/></g>
<g><path style="opacity:1" fill="#0d0806" d="M 101.5,145.5 C 104.57,145.368 107.57,145.701 110.5,146.5C 110.768,148.099 110.434,149.432 109.5,150.5C 106.833,150.5 104.167,150.5 101.5,150.5C 101.5,148.833 101.5,147.167 101.5,145.5 Z"/></g>
<g><path style="opacity:1" fill="#826d36" d="M 126.5,145.5 C 126.833,145.5 127.167,145.5 127.5,145.5C 130.167,146.167 132.833,146.833 135.5,147.5C 132.833,147.5 130.167,147.5 127.5,147.5C 127.5,148.833 127.5,150.167 127.5,151.5C 127.167,151.5 126.833,151.5 126.5,151.5C 126.635,149.446 125.968,147.779 124.5,146.5C 125.492,146.672 126.158,146.338 126.5,145.5 Z"/></g>
<g><path style="opacity:1" fill="#e8ba33" d="M 136.5,143.5 C 138.833,143.5 141.167,143.5 143.5,143.5C 144.167,143.5 144.833,143.5 145.5,143.5C 145.5,144.833 145.5,146.167 145.5,147.5C 142.5,147.5 139.5,147.5 136.5,147.5C 136.5,146.167 136.5,144.833 136.5,143.5 Z"/></g>
<g><path style="opacity:1" fill="#24221f" d="M 181.5,145.5 C 184.833,145.5 188.167,145.5 191.5,145.5C 191.5,146.5 191.5,147.5 191.5,148.5C 188.272,149.414 184.939,149.747 181.5,149.5C 181.5,148.167 181.5,146.833 181.5,145.5 Z"/></g>
<g><path style="opacity:1" fill="#f3c44b" d="M 191.5,145.5 C 194.247,145.187 196.914,145.52 199.5,146.5C 197.149,148.229 194.482,148.896 191.5,148.5C 191.5,147.5 191.5,146.5 191.5,145.5 Z"/></g>
<g><path style="opacity:1" fill="#807266" d="M 200.5,145.5 C 202.527,145.338 204.527,145.505 206.5,146C 204.03,148.014 202.03,147.847 200.5,145.5 Z"/></g>
<g><path style="opacity:1" fill="#0c0807" d="M 111.5,140.5 C 114.5,140.5 117.5,140.5 120.5,140.5C 120.5,142.5 120.5,144.5 120.5,146.5C 121.833,146.5 123.167,146.5 124.5,146.5C 125.968,147.779 126.635,149.446 126.5,151.5C 123.5,151.5 120.5,151.5 117.5,151.5C 117.5,149.833 117.5,148.167 117.5,146.5C 115.156,146.06 113.156,145.06 111.5,143.5C 111.5,142.5 111.5,141.5 111.5,140.5 Z"/></g>
<g><path style="opacity:1" fill="#665433" d="M 135.5,147.5 C 135.833,147.5 136.167,147.5 136.5,147.5C 139.5,147.5 142.5,147.5 145.5,147.5C 147.415,147.216 149.081,147.549 150.5,148.5C 148.833,148.5 147.167,148.5 145.5,148.5C 142.5,148.5 139.5,148.5 136.5,148.5C 136.5,149.5 136.5,150.5 136.5,151.5C 139.855,151.909 142.855,151.242 145.5,149.5C 145.5,150.5 145.5,151.5 145.5,152.5C 141.958,152.813 138.625,152.479 135.5,151.5C 135.5,150.167 135.5,148.833 135.5,147.5 Z"/></g>
<g><path style="opacity:1" fill="#f3c031" d="M 181.5,145.5 C 181.5,146.833 181.5,148.167 181.5,149.5C 180.081,150.451 178.415,150.784 176.5,150.5C 175.5,150.5 174.5,150.5 173.5,150.5C 173.5,148.833 173.5,147.167 173.5,145.5C 176.167,145.5 178.833,145.5 181.5,145.5 Z"/></g>
<g><path style="opacity:1" fill="#e2b432" d="M 101.5,143.5 C 101.5,144.167 101.5,144.833 101.5,145.5C 101.5,147.167 101.5,148.833 101.5,150.5C 98.2139,149.793 94.8806,149.46 91.5,149.5C 91.8333,147.5 92.1667,145.5 92.5,143.5C 95.5,143.5 98.5,143.5 101.5,143.5 Z"/></g>
<g><path style="opacity:1" fill="#050303" d="M 145.5,148.5 C 145.5,148.833 145.5,149.167 145.5,149.5C 142.855,151.242 139.855,151.909 136.5,151.5C 136.5,150.5 136.5,149.5 136.5,148.5C 139.5,148.5 142.5,148.5 145.5,148.5 Z"/></g>
<g><path style="opacity:1" fill="#e8be43" d="M 110.5,146.5 C 112.833,146.5 115.167,146.5 117.5,146.5C 117.5,148.167 117.5,149.833 117.5,151.5C 114.615,151.806 111.948,151.473 109.5,150.5C 110.434,149.432 110.768,148.099 110.5,146.5 Z"/></g>
<g><path style="opacity:1" fill="#edbb28" d="M 135.5,147.5 C 135.5,148.833 135.5,150.167 135.5,151.5C 132.833,151.5 130.167,151.5 127.5,151.5C 127.5,150.167 127.5,148.833 127.5,147.5C 130.167,147.5 132.833,147.5 135.5,147.5 Z"/></g>
<g><path style="opacity:1" fill="#e2b946" d="M 154.5,143.5 C 157.713,143.19 160.713,143.523 163.5,144.5C 163.5,146.167 163.5,147.833 163.5,149.5C 159.988,148.945 156.988,149.612 154.5,151.5C 151.609,152.403 148.609,152.736 145.5,152.5C 145.5,151.5 145.5,150.5 145.5,149.5C 145.5,149.167 145.5,148.833 145.5,148.5C 147.167,148.5 148.833,148.5 150.5,148.5C 151.833,148.5 153.167,148.5 154.5,148.5C 154.5,146.833 154.5,145.167 154.5,143.5 Z"/></g>
<g><path style="opacity:1" fill="#121212" d="M 82.5,162.5 C 91.1731,162.334 99.8397,162.5 108.5,163C 110.37,164.366 112.37,165.533 114.5,166.5C 115.664,173.142 115.831,179.808 115,186.5C 112.025,187.732 109.525,189.566 107.5,192C 110.953,197.736 114.286,203.569 117.5,209.5C 115.167,210.833 112.833,210.833 110.5,209.5C 107.293,203.585 103.96,197.752 100.5,192C 96.8484,191.501 93.1817,191.335 89.5,191.5C 89.5,197.833 89.5,204.167 89.5,210.5C 87.1667,210.5 84.8333,210.5 82.5,210.5C 82.5,194.5 82.5,178.5 82.5,162.5 Z"/></g>
<g><path style="opacity:1" fill="#161616" d="M 127.5,162.5 C 129.833,162.5 132.167,162.5 134.5,162.5C 134.5,178.5 134.5,194.5 134.5,210.5C 132.167,210.5 129.833,210.5 127.5,210.5C 127.5,194.5 127.5,178.5 127.5,162.5 Z"/></g>
<g><path style="opacity:1" fill="#0c0c0c" d="M 146.5,162.5 C 156.172,162.334 165.839,162.5 175.5,163C 177.5,164 179.5,165 181.5,166C 182.822,179.437 182.822,192.937 181.5,206.5C 179.37,207.467 177.37,208.634 175.5,210C 165.839,210.5 156.172,210.666 146.5,210.5C 146.5,194.5 146.5,178.5 146.5,162.5 Z"/></g>
<g><path style="opacity:1" fill="#030303" d="M 195.5,162.5 C 204.5,162.5 213.5,162.5 222.5,162.5C 222.5,164.5 222.5,166.5 222.5,168.5C 215.5,168.5 208.5,168.5 201.5,168.5C 201.5,173.167 201.5,177.833 201.5,182.5C 207.167,182.5 212.833,182.5 218.5,182.5C 218.5,184.5 218.5,186.5 218.5,188.5C 212.833,188.5 207.167,188.5 201.5,188.5C 201.5,193.833 201.5,199.167 201.5,204.5C 208.5,204.5 215.5,204.5 222.5,204.5C 222.5,206.5 222.5,208.5 222.5,210.5C 213.5,210.5 204.5,210.5 195.5,210.5C 195.5,194.5 195.5,178.5 195.5,162.5 Z"/></g>
<g><path style="opacity:1" fill="#101010" d="M 262.5,162.5 C 265.572,162.183 268.572,162.516 271.5,163.5C 277.26,179.114 282.593,194.781 287.5,210.5C 285.5,210.5 283.5,210.5 281.5,210.5C 280.863,206.422 279.53,202.589 277.5,199C 270.144,198.169 262.811,198.335 255.5,199.5C 254.03,203.048 253.03,206.715 252.5,210.5C 250.076,210.808 247.743,210.474 245.5,209.5C 250.978,193.729 256.645,178.062 262.5,162.5 Z"/></g>
<g><path style="opacity:1" fill="#131313" d="M 295.5,162.5 C 303.84,162.334 312.173,162.5 320.5,163C 322.664,163.914 324.664,165.081 326.5,166.5C 327.664,173.476 327.831,180.476 327,187.5C 324.913,188.794 322.746,189.961 320.5,191C 314.509,191.499 308.509,191.666 302.5,191.5C 302.5,197.833 302.5,204.167 302.5,210.5C 300.167,210.5 297.833,210.5 295.5,210.5C 295.5,194.5 295.5,178.5 295.5,162.5 Z"/></g>
<g><path style="opacity:1" fill="#131313" d="M 338.5,162.5 C 346.84,162.334 355.173,162.5 363.5,163C 365.664,163.914 367.664,165.081 369.5,166.5C 370.664,173.476 370.831,180.476 370,187.5C 367.913,188.794 365.746,189.961 363.5,191C 357.509,191.499 351.509,191.666 345.5,191.5C 345.5,197.833 345.5,204.167 345.5,210.5C 343.167,210.5 340.833,210.5 338.5,210.5C 338.5,194.5 338.5,178.5 338.5,162.5 Z"/></g>
<g><path style="opacity:1" fill="#fdfdfd" d="M 107.5,168.5 C 107.5,173.833 107.5,179.167 107.5,184.5C 101.5,184.5 95.5,184.5 89.5,184.5C 89.5,179.167 89.5,173.833 89.5,168.5C 95.5,168.5 101.5,168.5 107.5,168.5 Z"/></g>
<g><path style="opacity:1" fill="#f8f8f8" d="M 153.5,168.5 C 161.167,168.5 168.833,168.5 176.5,168.5C 176.5,180.5 176.5,192.5 176.5,204.5C 168.833,204.5 161.167,204.5 153.5,204.5C 153.5,192.5 153.5,180.5 153.5,168.5 Z"/></g>
<g><path style="opacity:1" fill="#fdfdfd" d="M 302.5,168.5 C 308.5,168.5 314.5,168.5 320.5,168.5C 320.5,174.167 320.5,179.833 320.5,185.5C 314.5,185.5 308.5,185.5 302.5,185.5C 302.5,179.833 302.5,174.167 302.5,168.5 Z"/></g>
<g><path style="opacity:1" fill="#fdfdfd" d="M 345.5,168.5 C 351.5,168.5 357.5,168.5 363.5,168.5C 363.5,174.167 363.5,179.833 363.5,185.5C 357.5,185.5 351.5,185.5 345.5,185.5C 345.5,179.833 345.5,174.167 345.5,168.5 Z"/></g>
<g><path style="opacity:1" fill="#eeeeee" d="M 274.5,190.5 C 269.604,192.446 264.271,193.113 258.5,192.5C 260.369,184.559 263.036,176.892 266.5,169.5C 267.086,169.709 267.586,170.043 268,170.5C 270.174,177.209 272.341,183.876 274.5,190.5 Z"/></g>
<g><path style="opacity:1" fill="#c4c4c4" d="M 107.5,168.5 C 108.489,173.975 108.822,179.642 108.5,185.5C 101.978,185.823 95.6446,185.49 89.5,184.5C 95.5,184.5 101.5,184.5 107.5,184.5C 107.5,179.167 107.5,173.833 107.5,168.5 Z"/></g>
<g><path style="opacity:1" fill="#878787" d="M 274.5,190.5 C 275.404,191.209 275.737,192.209 275.5,193.5C 269.642,193.822 263.975,193.489 258.5,192.5C 264.271,193.113 269.604,192.446 274.5,190.5 Z"/></g>
<g><path style="opacity:1" fill="#424242" d="M 113.5,228.5 C 111.777,227.2 109.61,226.533 107,226.5C 104.39,226.533 102.223,227.2 100.5,228.5C 99.596,227.791 99.2627,226.791 99.5,225.5C 104.5,225.5 109.5,225.5 114.5,225.5C 114.737,226.791 114.404,227.791 113.5,228.5 Z"/></g>
<g><path style="opacity:1" fill="#717171" d="M 45.5,228.5 C 42.3157,226.586 38.649,225.92 34.5,226.5C 34.5,233.5 34.5,240.5 34.5,247.5C 33.5084,240.352 33.175,233.019 33.5,225.5C 37.8333,225.5 42.1667,225.5 46.5,225.5C 46.7373,226.791 46.404,227.791 45.5,228.5 Z"/></g>
<g><path style="opacity:1" fill="#020202" d="M 45.5,228.5 C 42.5,228.5 39.5,228.5 36.5,228.5C 36.5,230.833 36.5,233.167 36.5,235.5C 47.1667,236.167 47.1667,236.833 36.5,237.5C 37.069,241.329 36.4023,244.663 34.5,247.5C 34.5,240.5 34.5,233.5 34.5,226.5C 38.649,225.92 42.3157,226.586 45.5,228.5 Z"/></g>
<g><path style="opacity:1" fill="#161616" d="M 150.5,228.5 C 149.532,230.607 149.198,232.941 149.5,235.5C 152.5,235.5 155.5,235.5 158.5,235.5C 159.15,235.804 159.817,236.137 160.5,236.5C 161.655,239.446 161.821,242.446 161,245.5C 157.014,247.701 152.848,248.035 148.5,246.5C 147.167,245.167 147.167,243.833 148.5,242.5C 149.298,242.957 149.631,243.624 149.5,244.5C 152.625,245.479 155.958,245.813 159.5,245.5C 159.5,242.833 159.5,240.167 159.5,237.5C 156.5,237.5 153.5,237.5 150.5,237.5C 148.444,236.407 147.444,234.574 147.5,232C 147.544,230.236 147.878,228.569 148.5,227C 151.702,225.517 155.036,225.183 158.5,226C 160.439,226.908 161.439,228.408 161.5,230.5C 158.014,229.047 154.347,228.381 150.5,228.5 Z"/></g>
<g><path style="opacity:1" fill="#0e0e0e" d="M 206.5,228.5 C 203.5,228.5 200.5,228.5 197.5,228.5C 197.5,230.5 197.5,232.5 197.5,234.5C 200.159,234.917 202.492,235.917 204.5,237.5C 202.167,237.5 199.833,237.5 197.5,237.5C 198.069,241.329 197.402,244.663 195.5,247.5C 195.5,240.5 195.5,233.5 195.5,226.5C 199.649,225.92 203.316,226.586 206.5,228.5 Z"/></g>
<g><path style="opacity:1" fill="#1b1b1b" d="M 217.5,228.5 C 216.532,230.607 216.198,232.941 216.5,235.5C 219.167,235.5 221.833,235.5 224.5,235.5C 222.721,237.344 220.388,238.01 217.5,237.5C 217.5,239.833 217.5,242.167 217.5,244.5C 220.5,244.5 223.5,244.5 226.5,244.5C 226.5,245.5 226.5,246.5 226.5,247.5C 222.5,247.5 218.5,247.5 214.5,247.5C 214.5,240.167 214.5,232.833 214.5,225.5C 218.5,225.5 222.5,225.5 226.5,225.5C 226.5,226.5 226.5,227.5 226.5,228.5C 223.5,228.5 220.5,228.5 217.5,228.5 Z"/></g>
<g><path style="opacity:1" fill="#101010" d="M 268.5,239.5 C 266.735,238.539 264.735,238.205 262.5,238.5C 262.5,241.5 262.5,244.5 262.5,247.5C 260.537,240.576 259.87,233.243 260.5,225.5C 265.109,224.974 269.443,225.641 273.5,227.5C 275.131,231.996 274.465,235.996 271.5,239.5C 272.833,241.833 274.167,244.167 275.5,246.5C 274.5,247.833 273.5,247.833 272.5,246.5C 271.139,244.15 269.806,241.816 268.5,239.5 Z"/></g>
<g><path style="opacity:1" fill="#747474" d="M 295.5,228.5 C 292.316,226.586 288.649,225.92 284.5,226.5C 284.5,233.5 284.5,240.5 284.5,247.5C 283.508,240.352 283.175,233.019 283.5,225.5C 287.833,225.5 292.167,225.5 296.5,225.5C 296.737,226.791 296.404,227.791 295.5,228.5 Z"/></g>
<g><path style="opacity:1" fill="#0d0d0d" d="M 295.5,228.5 C 292.5,228.5 289.5,228.5 286.5,228.5C 286.5,230.5 286.5,232.5 286.5,234.5C 289.159,234.917 291.492,235.917 293.5,237.5C 291.167,237.5 288.833,237.5 286.5,237.5C 286.5,239.833 286.5,242.167 286.5,244.5C 289.833,244.5 293.167,244.5 296.5,244.5C 296.5,245.5 296.5,246.5 296.5,247.5C 292.5,247.5 288.5,247.5 284.5,247.5C 284.5,240.5 284.5,233.5 284.5,226.5C 288.649,225.92 292.316,226.586 295.5,228.5 Z"/></g>
<g><path style="opacity:1" fill="#0c0c0c" d="M 306.5,226.5 C 306.5,232.5 306.5,238.5 306.5,244.5C 309.167,244.5 311.833,244.5 314.5,244.5C 314.5,245.5 314.5,246.5 314.5,247.5C 311.167,247.5 307.833,247.5 304.5,247.5C 303.872,240.087 304.539,233.087 306.5,226.5 Z"/></g>
<g><path style="opacity:1" fill="#0e0e0e" d="M 370.5,235.5 C 370.802,232.941 370.468,230.607 369.5,228.5C 366.833,228.5 364.167,228.5 361.5,228.5C 360.532,230.607 360.198,232.941 360.5,235.5C 363.939,235.253 367.272,235.586 370.5,236.5C 370.5,236.833 370.5,237.167 370.5,237.5C 371.748,238.334 372.415,239.667 372.5,241.5C 372.449,243.1 372.116,244.6 371.5,246C 367.3,247.367 362.967,247.867 358.5,247.5C 358.5,240.167 358.5,232.833 358.5,225.5C 363.109,224.974 367.443,225.641 371.5,227.5C 371.833,228.667 372.167,229.833 372.5,231C 372.693,233.008 372.026,234.508 370.5,235.5 Z"/></g>
<g><path style="opacity:1" fill="#0e0e0e" d="M 382.5,225.5 C 384.456,231.412 385.123,237.745 384.5,244.5C 387.167,244.5 389.833,244.5 392.5,244.5C 392.5,245.5 392.5,246.5 392.5,247.5C 389.167,247.5 385.833,247.5 382.5,247.5C 382.5,240.167 382.5,232.833 382.5,225.5 Z"/></g>
<g><path style="opacity:1" fill="#141414" d="M 403.5,228.5 C 402.532,230.607 402.198,232.941 402.5,235.5C 405.167,235.5 407.833,235.5 410.5,235.5C 408.365,237.369 405.698,238.036 402.5,237.5C 402.5,239.833 402.5,242.167 402.5,244.5C 405.833,244.5 409.167,244.5 412.5,244.5C 412.5,245.5 412.5,246.5 412.5,247.5C 408.5,247.5 404.5,247.5 400.5,247.5C 400.5,240.167 400.5,232.833 400.5,225.5C 404.5,225.5 408.5,225.5 412.5,225.5C 412.5,226.5 412.5,227.5 412.5,228.5C 409.5,228.5 406.5,228.5 403.5,228.5 Z"/></g>
<g><path style="opacity:1" fill="#212121" d="M 58.5,225.5 C 60.1667,225.5 61.8333,225.5 63.5,225.5C 65.2694,232.635 67.6027,239.635 70.5,246.5C 67.5201,247.353 66.1868,246.019 66.5,242.5C 62.774,242.177 59.1073,242.511 55.5,243.5C 54.7542,244.736 54.4208,246.07 54.5,247.5C 53.325,247.719 52.325,247.386 51.5,246.5C 54.4465,239.661 56.7798,232.661 58.5,225.5 Z"/></g>
<g><path style="opacity:1" fill="#1e1e1e" d="M 113.5,228.5 C 111.833,228.5 110.167,228.5 108.5,228.5C 108.5,234.833 108.5,241.167 108.5,247.5C 107.5,247.5 106.5,247.5 105.5,247.5C 105.5,241.167 105.5,234.833 105.5,228.5C 103.833,228.5 102.167,228.5 100.5,228.5C 102.223,227.2 104.39,226.533 107,226.5C 109.61,226.533 111.777,227.2 113.5,228.5 Z"/></g>
<g><path style="opacity:1" fill="#5f5f5f" d="M 206.5,228.5 C 203.316,226.586 199.649,225.92 195.5,226.5C 195.5,233.5 195.5,240.5 195.5,247.5C 194.508,240.352 194.175,233.019 194.5,225.5C 198.833,225.5 203.167,225.5 207.5,225.5C 207.737,226.791 207.404,227.791 206.5,228.5 Z"/></g>
<g><path style="opacity:1" fill="#1f1f1f" d="M 176.5,225.5 C 177.833,225.5 179.167,225.5 180.5,225.5C 182.29,232.645 184.623,239.645 187.5,246.5C 186.675,247.386 185.675,247.719 184.5,247.5C 184.32,243.588 182.153,241.921 178,242.5C 173.847,241.921 171.68,243.588 171.5,247.5C 170.325,247.719 169.325,247.386 168.5,246.5C 171.175,239.471 173.842,232.471 176.5,225.5 Z"/></g>
<g><path style="opacity:1" fill="#7f7f7f" d="M 306.5,226.5 C 304.539,233.087 303.872,240.087 304.5,247.5C 303.508,240.352 303.175,233.019 303.5,225.5C 304.791,225.263 305.791,225.596 306.5,226.5 Z"/></g>
<g><path style="opacity:1" fill="#e2e2e2" d="M 60.5,229.5 C 62.8132,232.23 64.4798,235.396 65.5,239C 62.854,239.497 60.1873,239.664 57.5,239.5C 58.1009,236.032 59.1009,232.699 60.5,229.5 Z"/></g>
<g><path style="opacity:1" fill="#e0e0e0" d="M 177.5,229.5 C 179.813,232.23 181.48,235.396 182.5,239C 179.854,239.497 177.187,239.664 174.5,239.5C 175.101,236.032 176.101,232.699 177.5,229.5 Z"/></g>
<g><path style="opacity:1" fill="#ababab" d="M 324.5,247.5 C 323.833,219.5 323.167,219.5 322.5,247.5C 321.508,240.352 321.175,233.019 321.5,225.5C 322.833,225.5 324.167,225.5 325.5,225.5C 325.825,233.019 325.492,240.352 324.5,247.5 Z"/></g>
<g><path style="opacity:1" fill="#000000" d="M 324.5,247.5 C 323.833,247.5 323.167,247.5 322.5,247.5C 323.167,219.5 323.833,219.5 324.5,247.5 Z"/></g>
<g><path style="opacity:1" fill="#1f1f1f" d="M 339.5,225.5 C 340.833,225.5 342.167,225.5 343.5,225.5C 345.827,232.148 348.161,238.815 350.5,245.5C 350.167,246.167 349.833,246.833 349.5,247.5C 348.05,246.15 347.383,244.484 347.5,242.5C 343.818,242.335 340.152,242.501 336.5,243C 335.62,244.356 335.286,245.856 335.5,247.5C 334.5,247.5 333.5,247.5 332.5,247.5C 335.218,240.345 337.551,233.012 339.5,225.5 Z"/></g>
<g><path style="opacity:1" fill="#dedede" d="M 340.5,229.5 C 341.376,229.369 342.043,229.702 342.5,230.5C 343.801,233.427 344.801,236.427 345.5,239.5C 342.753,239.813 340.086,239.48 337.5,238.5C 338.801,235.573 339.801,232.573 340.5,229.5 Z"/></g>
<g><path style="opacity:1" fill="#858585" d="M 150.5,228.5 C 150.5,230.5 150.5,232.5 150.5,234.5C 153.385,234.194 156.052,234.527 158.5,235.5C 155.5,235.5 152.5,235.5 149.5,235.5C 149.198,232.941 149.532,230.607 150.5,228.5 Z"/></g>
<g><path style="opacity:1" fill="#7d7d7d" d="M 197.5,234.5 C 200.167,234.5 202.833,234.5 205.5,234.5C 205.737,235.791 205.404,236.791 204.5,237.5C 202.492,235.917 200.159,234.917 197.5,234.5 Z"/></g>
<g><path style="opacity:1" fill="#7c7c7c" d="M 217.5,228.5 C 217.5,230.5 217.5,232.5 217.5,234.5C 220.059,234.198 222.393,234.532 224.5,235.5C 221.833,235.5 219.167,235.5 216.5,235.5C 216.198,232.941 216.532,230.607 217.5,228.5 Z"/></g>
<g><path style="opacity:1" fill="#838383" d="M 286.5,234.5 C 289.167,234.5 291.833,234.5 294.5,234.5C 294.737,235.791 294.404,236.791 293.5,237.5C 291.492,235.917 289.159,234.917 286.5,234.5 Z"/></g>
<g><path style="opacity:1" fill="#808080" d="M 361.5,228.5 C 361.5,230.5 361.5,232.5 361.5,234.5C 364.167,234.5 366.833,234.5 369.5,234.5C 369.5,232.5 369.5,230.5 369.5,228.5C 370.468,230.607 370.802,232.941 370.5,235.5C 370.5,235.833 370.5,236.167 370.5,236.5C 367.272,235.586 363.939,235.253 360.5,235.5C 360.198,232.941 360.532,230.607 361.5,228.5 Z"/></g>
<g><path style="opacity:1" fill="#fdfdfd" d="M 361.5,228.5 C 364.167,228.5 366.833,228.5 369.5,228.5C 369.5,230.5 369.5,232.5 369.5,234.5C 366.833,234.5 364.167,234.5 361.5,234.5C 361.5,232.5 361.5,230.5 361.5,228.5 Z"/></g>
<g><path style="opacity:1" fill="#838383" d="M 403.5,228.5 C 403.5,230.5 403.5,232.5 403.5,234.5C 406.059,234.198 408.393,234.532 410.5,235.5C 407.833,235.5 405.167,235.5 402.5,235.5C 402.198,232.941 402.532,230.607 403.5,228.5 Z"/></g>
<g><path style="opacity:1" fill="#151515" d="M 79.5,242.5 C 79.5,243.5 79.5,244.5 79.5,245.5C 82.8333,245.5 86.1667,245.5 89.5,245.5C 89.5,242.833 89.5,240.167 89.5,237.5C 86.5,237.5 83.5,237.5 80.5,237.5C 78.4439,236.407 77.4439,234.574 77.5,232C 78.585,225.844 82.2517,223.844 88.5,226C 91.2337,226.718 91.9004,228.218 90.5,230.5C 87.4439,228.711 84.1106,228.044 80.5,228.5C 80.5,230.833 80.5,233.167 80.5,235.5C 89.6757,233.145 93.1757,236.478 91,245.5C 87.7441,247.429 84.2441,247.929 80.5,247C 77.2213,245.732 76.8879,244.232 79.5,242.5 Z"/></g>
<g><path style="opacity:1" fill="#9d9d9d" d="M 263.5,228.5 C 263.5,230.833 263.5,233.167 263.5,235.5C 266.167,235.5 268.833,235.5 271.5,235.5C 271.5,233.167 271.5,230.833 271.5,228.5C 272.473,230.948 272.806,233.615 272.5,236.5C 269.167,236.5 265.833,236.5 262.5,236.5C 262.194,233.615 262.527,230.948 263.5,228.5 Z"/></g>
<g><path style="opacity:1" fill="#fefefe" d="M 263.5,228.5 C 266.167,228.5 268.833,228.5 271.5,228.5C 271.5,230.833 271.5,233.167 271.5,235.5C 268.833,235.5 266.167,235.5 263.5,235.5C 263.5,233.167 263.5,230.833 263.5,228.5 Z"/></g>
<g><path style="opacity:1" fill="#ececec" d="M 370.5,237.5 C 370.5,239.833 370.5,242.167 370.5,244.5C 367.167,244.5 363.833,244.5 360.5,244.5C 360.5,242.167 360.5,239.833 360.5,237.5C 363.833,237.5 367.167,237.5 370.5,237.5 Z"/></g>
<g><path style="opacity:1" fill="#8d8d8d" d="M 268.5,239.5 C 266.833,239.5 265.167,239.5 263.5,239.5C 263.806,242.385 263.473,245.052 262.5,247.5C 262.5,244.5 262.5,241.5 262.5,238.5C 264.735,238.205 266.735,238.539 268.5,239.5 Z"/></g>
<g><path style="opacity:1" fill="#646464" d="M 150.5,237.5 C 153.5,237.5 156.5,237.5 159.5,237.5C 159.5,240.167 159.5,242.833 159.5,245.5C 155.958,245.813 152.625,245.479 149.5,244.5C 152.5,244.5 155.5,244.5 158.5,244.5C 158.5,242.5 158.5,240.5 158.5,238.5C 155.615,238.806 152.948,238.473 150.5,237.5 Z"/></g>
<g><path style="opacity:1" fill="#151515" d="M 125.5,245.5 C 125.097,248.486 124.097,251.152 122.5,253.5C 122.5,250.167 122.5,246.833 122.5,243.5C 124.179,243.285 125.179,243.952 125.5,245.5 Z"/></g>
<g><path style="opacity:1" fill="#a6a6a6" d="M 239.5,243.5 C 238.167,243.5 236.833,243.5 235.5,243.5C 235.335,246.518 235.502,249.518 236,252.5C 236.374,250.509 237.207,248.842 238.5,247.5C 239.113,250.969 237.779,252.969 234.5,253.5C 234.5,249.833 234.5,246.167 234.5,242.5C 236.415,242.216 238.081,242.549 239.5,243.5 Z"/></g>
<g><path style="opacity:1" fill="#0a0a0a" d="M 239.5,243.5 C 238.766,244.708 238.433,246.041 238.5,247.5C 237.207,248.842 236.374,250.509 236,252.5C 235.502,249.518 235.335,246.518 235.5,243.5C 236.833,243.5 238.167,243.5 239.5,243.5 Z"/></g>
<g><path style="opacity:1" fill="#818181" d="M 80.5,237.5 C 83.5,237.5 86.5,237.5 89.5,237.5C 89.5,240.167 89.5,242.833 89.5,245.5C 86.1667,245.5 82.8333,245.5 79.5,245.5C 79.5,244.5 79.5,243.5 79.5,242.5C 82.1445,244.242 85.1445,244.909 88.5,244.5C 88.5,242.5 88.5,240.5 88.5,238.5C 85.6146,238.806 82.9479,238.473 80.5,237.5 Z"/></g>
<g><path style="opacity:1" fill="#9a9a9a" d="M 125.5,245.5 C 125.179,243.952 124.179,243.285 122.5,243.5C 122.5,246.833 122.5,250.167 122.5,253.5C 121.518,250.038 121.185,246.371 121.5,242.5C 123.167,242.5 124.833,242.5 126.5,242.5C 126.737,243.791 126.404,244.791 125.5,245.5 Z"/></g>
</svg>
