<?xml version="1.0" encoding="UTF-8"?>
<!DOCTYPE svg PUBLIC "-//W3C//DTD SVG 1.1//EN" "http://www.w3.org/Graphics/SVG/1.1/DTD/svg11.dtd">
<svg xmlns="http://www.w3.org/2000/svg" version="1.1" width="436px" height="329px" style="shape-rendering:geometricPrecision; text-rendering:geometricPrecision; image-rendering:optimizeQuality; fill-rule:evenodd; clip-rule:evenodd" xmlns:xlink="http://www.w3.org/1999/xlink">
<g><path style="opacity:0.004" fill="#fefffe" d="M 48.5,3.5 C 49.8333,4.16667 49.8333,4.16667 48.5,3.5 Z"/></g>
<g><path style="opacity:0.004" fill="#fefffe" d="M 319.5,4.5 C 320.833,5.16667 320.833,5.16667 319.5,4.5 Z"/></g>
<g><path style="opacity:0.004" fill="#fefffe" d="M 137.5,12.5 C 138.833,13.1667 138.833,13.1667 137.5,12.5 Z"/></g>
<g><path style="opacity:0.004" fill="#fefffe" d="M 291.5,13.5 C 292.833,14.1667 292.833,14.1667 291.5,13.5 Z"/></g>
<g><path style="opacity:0.004" fill="#fefffe" d="M 414.5,13.5 C 415.833,14.1667 415.833,14.1667 414.5,13.5 Z"/></g>
<g><path style="opacity:0.004" fill="#fefffe" d="M 424.5,18.5 C 425.833,19.1667 425.833,19.1667 424.5,18.5 Z"/></g>
<g><path style="opacity:0.004" fill="#fefffe" d="M 419.5,22.5 C 420.833,23.1667 420.833,23.1667 419.5,22.5 Z"/></g>
<g><path style="opacity:0.004" fill="#fefffe" d="M 48.5,34.5 C 49.8333,35.1667 49.8333,35.1667 48.5,34.5 Z"/></g>
<g><path style="opacity:0.004" fill="#fefffe" d="M 96.5,34.5 C 97.8333,35.1667 97.8333,35.1667 96.5,34.5 Z"/></g>
<g><path style="opacity:0.004" fill="#fefffe" d="M 418.5,43.5 C 419.833,44.1667 419.833,44.1667 418.5,43.5 Z"/></g>
<g><path style="opacity:0.004" fill="#fefffe" d="M 65.5,46.5 C 66.8333,47.1667 66.8333,47.1667 65.5,46.5 Z"/></g>
<g><path style="opacity:0.004" fill="#fefffe" d="M 308.5,48.5 C 309.833,49.1667 309.833,49.1667 308.5,48.5 Z"/></g>
<g><path style="opacity:0.004" fill="#fefffe" d="M 357.5,49.5 C 358.833,50.1667 358.833,50.1667 357.5,49.5 Z"/></g>
<g><path style="opacity:0.004" fill="#fefffe" d="M 81.5,52.5 C 82.8333,53.1667 82.8333,53.1667 81.5,52.5 Z"/></g>
<g><path style="opacity:0.173" fill="#fdf7cb" d="M 260.5,90.5 C 275.552,100.691 291.885,108.191 309.5,113C 310.337,114.011 310.67,115.178 310.5,116.5C 306.054,117.609 301.888,117.609 298,116.5C 291.395,113.838 284.561,111.671 277.5,110C 276.944,109.617 276.611,109.117 276.5,108.5C 282.271,109.526 287.938,111.026 293.5,113C 296.167,113.667 298.833,113.667 301.5,113C 288.2,108.057 275.533,101.724 263.5,94C 257.466,91.3254 251.466,88.6587 245.5,86C 231.102,80.2263 216.102,77.2263 200.5,77C 199.107,72.3134 197.441,67.8134 195.5,63.5C 195.67,62.1779 195.337,61.0113 194.5,60C 189.167,59.3333 183.833,59.3333 178.5,60C 176.799,62.7678 175.466,65.6012 174.5,68.5C 174.396,64.9803 175.396,61.8136 177.5,59C 183.5,58.3333 189.5,58.3333 195.5,59C 197.509,65.0853 200.009,70.9187 203,76.5C 203.333,76.1667 203.667,75.8333 204,75.5C 215.104,75.5872 225.938,77.4205 236.5,81C 244.395,84.3852 252.395,87.5519 260.5,90.5 Z"/></g>
<g><path style="opacity:0.004" fill="#fefffe" d="M 354.5,58.5 C 355.833,59.1667 355.833,59.1667 354.5,58.5 Z"/></g>
<g><path style="opacity:0.004" fill="#fefffe" d="M 401.5,58.5 C 402.833,59.1667 402.833,59.1667 401.5,58.5 Z"/></g>
<g><path style="opacity:0.004" fill="#fefffe" d="M 420.5,60.5 C 421.833,61.1667 421.833,61.1667 420.5,60.5 Z"/></g>
<g><path style="opacity:0.004" fill="#fefffe" d="M 337.5,61.5 C 338.833,62.1667 338.833,62.1667 337.5,61.5 Z"/></g>
<g><path style="opacity:0.004" fill="#fefffe" d="M 324.5,69.5 C 325.833,70.1667 325.833,70.1667 324.5,69.5 Z"/></g>
<g><path style="opacity:1" fill="#f2bc27" d="M 195.5,63.5 C 195.116,68.1277 195.95,72.461 198,76.5C 200.564,78.0769 203.397,79.0769 206.5,79.5C 206.833,79.8333 207.167,80.1667 207.5,80.5C 206.5,80.8333 205.5,81.1667 204.5,81.5C 187.518,82.2914 170.518,82.7914 153.5,83C 152.975,83.6924 152.308,84.1924 151.5,84.5C 149.249,83.3052 146.915,82.3052 144.5,81.5C 141.082,83.1519 137.415,83.9853 133.5,84C 132.167,84.6667 131.167,85.6667 130.5,87C 129.333,87.1667 128.167,87.3333 127,87.5C 123.883,86.4607 120.716,85.6273 117.5,85C 118.056,84.6174 118.389,84.1174 118.5,83.5C 119.995,83.0113 121.329,82.3446 122.5,81.5C 139.378,76.8765 156.711,74.8765 174.5,75.5C 174.5,73.1667 174.5,70.8333 174.5,68.5C 175.466,65.6012 176.799,62.7678 178.5,60C 183.833,59.3333 189.167,59.3333 194.5,60C 195.337,61.0113 195.67,62.1779 195.5,63.5 Z"/></g>
<g><path style="opacity:0.004" fill="#fefffe" d="M 287.5,79.5 C 288.833,80.1667 288.833,80.1667 287.5,79.5 Z"/></g>
<g><path style="opacity:0.004" fill="#fefffe" d="M 365.5,80.5 C 366.833,81.1667 366.833,81.1667 365.5,80.5 Z"/></g>
<g><path style="opacity:0.329" fill="#fffac9" d="M 174.5,68.5 C 174.5,70.8333 174.5,73.1667 174.5,75.5C 156.711,74.8765 139.378,76.8765 122.5,81.5C 113.366,83.7676 104.366,86.4343 95.5,89.5C 119.743,78.031 145.409,73.031 172.5,74.5C 172.259,72.1016 172.926,70.1016 174.5,68.5 Z"/></g>
<g><path style="opacity:1" fill="#efbd33" d="M 195.5,63.5 C 197.441,67.8134 199.107,72.3134 200.5,77C 216.102,77.2263 231.102,80.2263 245.5,86C 251.466,88.6587 257.466,91.3254 263.5,94C 275.533,101.724 288.2,108.057 301.5,113C 298.833,113.667 296.167,113.667 293.5,113C 287.938,111.026 282.271,109.526 276.5,108.5C 270.525,105.777 264.525,102.944 258.5,100C 256.26,99.023 253.927,98.523 251.5,98.5C 251.047,97.5416 250.381,96.7083 249.5,96C 211.762,82.4437 173.096,79.7771 133.5,88C 126.235,89.9829 118.902,91.6495 111.5,93C 106.145,95.1984 100.811,97.0317 95.5,98.5C 93.4727,98.3379 91.4727,98.5045 89.5,99C 85.8277,101.558 81.8277,102.891 77.5,103C 78.2524,102.329 78.5858,101.496 78.5,100.5C 80.6621,98.1029 83.3288,96.4362 86.5,95.5C 96.8785,90.9267 107.545,86.9267 118.5,83.5C 118.389,84.1174 118.056,84.6174 117.5,85C 120.716,85.6273 123.883,86.4607 127,87.5C 128.167,87.3333 129.333,87.1667 130.5,87C 131.167,85.6667 132.167,84.6667 133.5,84C 137.415,83.9853 141.082,83.1519 144.5,81.5C 146.915,82.3052 149.249,83.3052 151.5,84.5C 152.308,84.1924 152.975,83.6924 153.5,83C 170.518,82.7914 187.518,82.2914 204.5,81.5C 205.5,81.1667 206.5,80.8333 207.5,80.5C 207.167,80.1667 206.833,79.8333 206.5,79.5C 203.397,79.0769 200.564,78.0769 198,76.5C 195.95,72.461 195.116,68.1277 195.5,63.5 Z"/></g>
<g><path style="opacity:0.004" fill="#fefffe" d="M 19.5,85.5 C 20.8333,86.1667 20.8333,86.1667 19.5,85.5 Z"/></g>
<g><path style="opacity:1" fill="#e9c763" d="M 122.5,81.5 C 121.329,82.3446 119.995,83.0113 118.5,83.5C 107.545,86.9267 96.8785,90.9267 86.5,95.5C 87.6935,94.7281 88.6935,93.7281 89.5,92.5C 91.0326,90.7549 93.0326,89.7549 95.5,89.5C 104.366,86.4343 113.366,83.7676 122.5,81.5 Z"/></g>
<g><path style="opacity:0.004" fill="#fefffe" d="M 260.5,89.5 C 261.833,90.1667 261.833,90.1667 260.5,89.5 Z"/></g>
<g><path style="opacity:0.004" fill="#fefffe" d="M 286.5,89.5 C 287.833,90.1667 287.833,90.1667 286.5,89.5 Z"/></g>
<g><path style="opacity:0.082" fill="#fcf4bf" d="M 251.5,98.5 C 244.289,95.9291 236.956,93.4291 229.5,91C 181.215,81.6674 134.215,85.5008 88.5,102.5C 90.7026,100.9 93.036,99.5665 95.5,98.5C 100.811,97.0317 106.145,95.1984 111.5,93C 118.902,91.6495 126.235,89.9829 133.5,88C 173.096,79.7771 211.762,82.4437 249.5,96C 250.381,96.7083 251.047,97.5416 251.5,98.5 Z"/></g>
<g><path style="opacity:0.204" fill="#fff9c8" d="M 89.5,92.5 C 88.6935,93.7281 87.6935,94.7281 86.5,95.5C 83.3288,96.4362 80.6621,98.1029 78.5,100.5C 77.1667,100.833 75.8333,101.167 74.5,101.5C 75.7158,99.5491 77.3825,98.0491 79.5,97C 82.7059,95.2306 86.0392,93.7306 89.5,92.5 Z"/></g>
<g><path style="opacity:0.004" fill="#fefffe" d="M 432.5,101.5 C 433.833,102.167 433.833,102.167 432.5,101.5 Z"/></g>
<g><path style="opacity:0.024" fill="#fef8c8" d="M 251.5,98.5 C 253.927,98.523 256.26,99.023 258.5,100C 264.525,102.944 270.525,105.777 276.5,108.5C 267.696,106.343 259.363,103.01 251.5,98.5 Z"/></g>
<g><path style="opacity:1" fill="#e5c04d" d="M 95.5,98.5 C 93.036,99.5665 90.7026,100.9 88.5,102.5C 83.4776,103.18 79.1443,105.18 75.5,108.5C 69.707,110.228 64.707,113.228 60.5,117.5C 58.9719,117.483 58.4719,116.816 59,115.5C 64.1452,110.699 69.3118,106.033 74.5,101.5C 75.8333,101.167 77.1667,100.833 78.5,100.5C 78.5858,101.496 78.2524,102.329 77.5,103C 81.8277,102.891 85.8277,101.558 89.5,99C 91.4727,98.5045 93.4727,98.3379 95.5,98.5 Z"/></g>
<g><path style="opacity:0.094" fill="#fef8ca" d="M 88.5,102.5 C 84.7267,105.54 80.3933,107.54 75.5,108.5C 79.1443,105.18 83.4776,103.18 88.5,102.5 Z"/></g>
<g><path style="opacity:0.176" fill="#fbf6c9" d="M 74.5,101.5 C 69.3118,106.033 64.1452,110.699 59,115.5C 58.4719,116.816 58.9719,117.483 60.5,117.5C 59.4522,119.534 57.7855,120.867 55.5,121.5C 54.1667,119.833 54.1667,118.167 55.5,116.5C 61.0092,110.309 67.3426,105.309 74.5,101.5 Z"/></g>
<g><path style="opacity:0.004" fill="#fefffe" d="M 97.5,107.5 C 98.8333,108.167 98.8333,108.167 97.5,107.5 Z"/></g>
<g><path style="opacity:0.176" fill="#fff8c8" d="M 75.5,108.5 C 71.292,112.685 66.292,115.685 60.5,117.5C 64.707,113.228 69.707,110.228 75.5,108.5 Z"/></g>
<g><path style="opacity:0.004" fill="#fefffe" d="M 404.5,113.5 C 405.833,114.167 405.833,114.167 404.5,113.5 Z"/></g>
<g><path style="opacity:0.205" fill="#fef8ca" d="M 408.5,147.5 C 412.682,148.364 416.682,149.697 420.5,151.5C 419.797,145.794 416.797,141.794 411.5,139.5C 407.764,136.71 403.764,134.21 399.5,132C 388.342,128.642 377.009,126.475 365.5,125.5C 356.738,123.652 347.738,122.486 338.5,122C 310.833,121.667 283.167,121.333 255.5,121C 241.473,120.512 227.64,118.679 214,115.5C 212.278,115.611 212.112,116.111 213.5,117C 227.269,122.106 241.269,125.94 255.5,128.5C 240.334,126.968 225.667,123.468 211.5,118C 210.62,116.644 210.286,115.144 210.5,113.5C 228.925,117.29 247.592,119.457 266.5,120C 284.62,119.683 302.62,119.516 320.5,119.5C 345.875,119.882 370.875,123.048 395.5,129C 405.284,131.596 413.451,136.763 420,144.5C 422.076,147.217 422.743,150.217 422,153.5C 421.439,154.022 420.772,154.355 420,154.5C 416.126,152.063 412.292,149.73 408.5,147.5 Z"/></g>
<g><path style="opacity:0.004" fill="#fefffe" d="M 383.5,121.5 C 384.833,122.167 384.833,122.167 383.5,121.5 Z"/></g>
<g><path style="opacity:0.004" fill="#fefffe" d="M 43.5,123.5 C 43.8966,122.475 44.5632,122.308 45.5,123C 44.9056,123.464 44.2389,123.631 43.5,123.5 Z"/></g>
<g><path style="opacity:0.998" fill="#e7bf4c" d="M 365.5,125.5 C 322.203,122.9 278.87,121.734 235.5,122C 244.487,123.732 253.487,125.399 262.5,127C 263.056,127.383 263.389,127.883 263.5,128.5C 260.833,128.5 258.167,128.5 255.5,128.5C 241.269,125.94 227.269,122.106 213.5,117C 212.112,116.111 212.278,115.611 214,115.5C 227.64,118.679 241.473,120.512 255.5,121C 283.167,121.333 310.833,121.667 338.5,122C 347.738,122.486 356.738,123.652 365.5,125.5 Z"/></g>
<g><path style="opacity:0.357" fill="#f8efc7" d="M 42.5,124.5 C 41.8333,124.5 41.1667,124.5 40.5,124.5C 35.0472,123.256 32.0472,125.589 31.5,131.5C 30.8333,131.5 30.1667,131.5 29.5,131.5C 30.0161,127.467 32.0161,124.3 35.5,122C 38.5649,121.185 40.8983,122.018 42.5,124.5 Z"/></g>
<g><path style="opacity:0.004" fill="#fefffe" d="M 165.5,123.5 C 166.833,124.167 166.833,124.167 165.5,123.5 Z"/></g>
<g><path style="opacity:1" fill="#f4bc1f" d="M 365.5,125.5 C 377.009,126.475 388.342,128.642 399.5,132C 403.764,134.21 407.764,136.71 411.5,139.5C 412.245,142.93 410.911,144.597 407.5,144.5C 402.894,143.687 398.56,142.187 394.5,140C 390.83,139.452 387.163,138.952 383.5,138.5C 379.326,138.666 375.326,138 371.5,136.5C 370.391,135.71 369.058,135.21 367.5,135C 354.5,134.667 341.5,134.333 328.5,134C 316.236,132.522 303.903,131.522 291.5,131C 282.301,128.822 272.968,127.989 263.5,128.5C 263.389,127.883 263.056,127.383 262.5,127C 253.487,125.399 244.487,123.732 235.5,122C 278.87,121.734 322.203,122.9 365.5,125.5 Z"/></g>
<g><path style="opacity:0.004" fill="#fefffe" d="M 146.5,126.5 C 147.833,127.167 147.833,127.167 146.5,126.5 Z"/></g>
<g><path style="opacity:0.294" fill="#fcf2c3" d="M 47.5,125.5 C 50.4869,125.998 53.4869,126.498 56.5,127C 57.9423,127.377 58.9423,128.21 59.5,129.5C 58.8333,129.5 58.1667,129.5 57.5,129.5C 54.5431,128.345 51.5431,127.345 48.5,126.5C 47.8333,126.5 47.5,126.167 47.5,125.5 Z"/></g>
<g><path style="opacity:0.008" fill="#fefffe" d="M 61.5,127.5 C 62.8333,128.167 62.8333,128.167 61.5,127.5 Z"/></g>
<g><path style="opacity:0.329" fill="#fffccb" d="M 255.5,128.5 C 258.167,128.5 260.833,128.5 263.5,128.5C 266.167,129.167 268.833,129.833 271.5,130.5C 265.902,130.844 260.568,130.178 255.5,128.5 Z"/></g>
<g><path style="opacity:1" fill="#e9c65b" d="M 263.5,128.5 C 272.968,127.989 282.301,128.822 291.5,131C 303.903,131.522 316.236,132.522 328.5,134C 341.5,134.333 354.5,134.667 367.5,135C 369.058,135.21 370.391,135.71 371.5,136.5C 338.111,135.54 304.777,133.54 271.5,130.5C 268.833,129.833 266.167,129.167 263.5,128.5 Z"/></g>
<g><path style="opacity:1" fill="#e3b947" d="M 40.5,124.5 C 40.2208,127.118 39.5541,129.618 38.5,132C 36.2028,132.018 33.8695,131.851 31.5,131.5C 32.0472,125.589 35.0472,123.256 40.5,124.5 Z"/></g>
<g><path style="opacity:1" fill="#d6af48" d="M 48.5,126.5 C 51.5431,127.345 54.5431,128.345 57.5,129.5C 57.5,131.5 57.5,133.5 57.5,135.5C 54.4816,135.335 51.4816,135.502 48.5,136C 47.8906,137.948 47.224,139.782 46.5,141.5C 46.5,139.5 46.5,137.5 46.5,135.5C 44.1944,135.007 41.861,134.674 39.5,134.5C 39.5,136.5 39.5,138.5 39.5,140.5C 38.8333,140.5 38.1667,140.5 37.5,140.5C 37.6741,138.139 38.0074,135.806 38.5,133.5C 41.5184,133.665 44.5184,133.498 47.5,133C 48.4231,130.959 48.7564,128.792 48.5,126.5 Z"/></g>
<g><path style="opacity:0.012" fill="#fefffe" d="M 27.5,133.5 C 27.631,134.239 27.4643,134.906 27,135.5C 26.3083,134.563 26.475,133.897 27.5,133.5 Z"/></g>
<g><path style="opacity:0.357" fill="#d0d0cd" d="M 29.5,132.5 C 29.7373,133.791 29.404,134.791 28.5,135.5C 28.6716,134.508 28.3382,133.842 27.5,133.5C 27.4088,131.302 28.0755,130.969 29.5,132.5 Z"/></g>
<g><path style="opacity:1" fill="#19140f" d="M 40.5,124.5 C 41.1667,124.5 41.8333,124.5 42.5,124.5C 44.2161,124.629 45.8828,124.962 47.5,125.5C 47.5,126.167 47.8333,126.5 48.5,126.5C 48.7564,128.792 48.4231,130.959 47.5,133C 44.5184,133.498 41.5184,133.665 38.5,133.5C 38.0074,135.806 37.6741,138.139 37.5,140.5C 34.4606,139.99 31.4606,139.323 28.5,138.5C 28.5,137.5 28.5,136.5 28.5,135.5C 29.404,134.791 29.7373,133.791 29.5,132.5C 29.5,132.167 29.5,131.833 29.5,131.5C 30.1667,131.5 30.8333,131.5 31.5,131.5C 33.8695,131.851 36.2028,132.018 38.5,132C 39.5541,129.618 40.2208,127.118 40.5,124.5 Z"/></g>
<g><path style="opacity:0.173" fill="#e2dcbf" d="M 64.5,130.5 C 74.0465,132.44 83.7132,133.94 93.5,135C 95.5018,136.019 97.5018,136.852 99.5,137.5C 97.5,137.5 95.5,137.5 93.5,137.5C 90.7814,136.087 87.7814,135.42 84.5,135.5C 84.1667,135.5 83.8333,135.5 83.5,135.5C 80.9039,134.735 78.2372,134.401 75.5,134.5C 72.5513,133.632 69.5513,132.632 66.5,131.5C 65.5084,131.672 64.8417,131.338 64.5,130.5 Z"/></g>
<g><path style="opacity:1" fill="#cda949" d="M 66.5,131.5 C 69.5513,132.632 72.5513,133.632 75.5,134.5C 75.67,135.822 75.3366,136.989 74.5,138C 71.854,138.497 69.1873,138.664 66.5,138.5C 66.5,136.167 66.5,133.833 66.5,131.5 Z"/></g>
<g><path style="opacity:0.008" fill="#fefffe" d="M 26.5,136.5 C 27.8333,137.167 27.8333,137.167 26.5,136.5 Z"/></g>
<g><path style="opacity:1" fill="#ebbd36" d="M 46.5,141.5 C 43.9407,141.802 41.6074,141.468 39.5,140.5C 39.5,138.5 39.5,136.5 39.5,134.5C 41.861,134.674 44.1944,135.007 46.5,135.5C 46.5,137.5 46.5,139.5 46.5,141.5 Z"/></g>
<g><path style="opacity:0.114" fill="#fffcd0" d="M 271.5,130.5 C 304.777,133.54 338.111,135.54 371.5,136.5C 375.326,138 379.326,138.666 383.5,138.5C 391.783,140.706 399.783,143.706 407.5,147.5C 396.73,143.815 385.73,140.982 374.5,139C 351.038,137.176 327.538,135.676 304,134.5C 300.914,134.522 297.914,134.855 295,135.5C 294.161,134.376 292.994,133.709 291.5,133.5C 284.608,133.046 277.941,132.046 271.5,130.5 Z"/></g>
<g><path style="opacity:1" fill="#1c140c" d="M 57.5,129.5 C 58.1667,129.5 58.8333,129.5 59.5,129.5C 61.2161,129.629 62.8828,129.962 64.5,130.5C 64.8417,131.338 65.5084,131.672 66.5,131.5C 66.5,133.833 66.5,136.167 66.5,138.5C 69.1873,138.664 71.854,138.497 74.5,138C 75.3366,136.989 75.67,135.822 75.5,134.5C 78.2372,134.401 80.9039,134.735 83.5,135.5C 83.7947,137.735 83.4614,139.735 82.5,141.5C 80.0521,140.527 77.3854,140.194 74.5,140.5C 74.5,141.833 74.5,143.167 74.5,144.5C 71.3125,146.657 67.9792,146.99 64.5,145.5C 67.0716,138.611 64.7383,135.777 57.5,137C 56.3313,139.007 55.6646,141.173 55.5,143.5C 52.8333,143.5 50.1667,143.5 47.5,143.5C 47.1667,142.833 46.8333,142.167 46.5,141.5C 47.224,139.782 47.8906,137.948 48.5,136C 51.4816,135.502 54.4816,135.335 57.5,135.5C 57.5,133.5 57.5,131.5 57.5,129.5 Z"/></g>
<g><path style="opacity:1" fill="#1c130a" d="M 93.5,137.5 C 95.5,137.5 97.5,137.5 99.5,137.5C 100.5,137.5 101.5,137.5 102.5,137.5C 102.5,137.833 102.5,138.167 102.5,138.5C 102.5,140.5 102.5,142.5 102.5,144.5C 104.937,144.756 107.271,145.423 109.5,146.5C 110.782,147.958 110.782,149.292 109.5,150.5C 106.833,150.5 104.167,150.5 101.5,150.5C 101.662,148.473 101.495,146.473 101,144.5C 99.6439,143.62 98.1439,143.286 96.5,143.5C 95.4324,142.566 94.099,142.232 92.5,142.5C 93.3007,140.958 93.634,139.292 93.5,137.5 Z"/></g>
<g><path style="opacity:0.139" fill="#e7e3c6" d="M 132.5,141.5 C 130.833,141.5 129.167,141.5 127.5,141.5C 127.167,141.5 126.833,141.5 126.5,141.5C 126.167,141.5 125.833,141.5 125.5,141.5C 124.081,140.549 122.415,140.216 120.5,140.5C 117.5,140.5 114.5,140.5 111.5,140.5C 111.389,139.883 111.056,139.383 110.5,139C 107.854,138.503 105.187,138.336 102.5,138.5C 102.5,138.167 102.5,137.833 102.5,137.5C 105.993,137.331 109.493,137.331 113,137.5C 114.396,139.527 116.062,139.86 118,138.5C 122.989,139.176 127.823,140.176 132.5,141.5 Z"/></g>
<g><path style="opacity:1" fill="#e2ba4b" d="M 84.5,135.5 C 87.7814,135.42 90.7814,136.087 93.5,137.5C 93.634,139.292 93.3007,140.958 92.5,142.5C 89.8333,142.167 87.1667,141.833 84.5,141.5C 84.5,139.5 84.5,137.5 84.5,135.5 Z"/></g>
<g><path style="opacity:0.161" fill="#f1e4c1" d="M 28.5,138.5 C 31.4606,139.323 34.4606,139.99 37.5,140.5C 38.1667,140.5 38.8333,140.5 39.5,140.5C 41.6074,141.468 43.9407,141.802 46.5,141.5C 46.8333,142.167 47.1667,142.833 47.5,143.5C 46.7354,143.923 45.9021,144.257 45,144.5C 39.885,142.876 34.7184,141.376 29.5,140C 28.944,139.617 28.6107,139.117 28.5,138.5 Z"/></g>
<g><path style="opacity:1" fill="#735e25" d="M 83.5,135.5 C 83.8333,135.5 84.1667,135.5 84.5,135.5C 84.5,137.5 84.5,139.5 84.5,141.5C 87.1667,141.833 89.8333,142.167 92.5,142.5C 94.099,142.232 95.4324,142.566 96.5,143.5C 94.7085,143.366 93.0418,143.699 91.5,144.5C 89.0948,143.232 86.4282,142.565 83.5,142.5C 83.7373,143.791 83.404,144.791 82.5,145.5C 82.5,144.167 82.5,142.833 82.5,141.5C 83.4614,139.735 83.7947,137.735 83.5,135.5 Z"/></g>
<g><path style="opacity:0.01" fill="#e9e6d2" d="M 163.5,143.5 C 160.833,143.5 158.167,143.5 155.5,143.5C 155.167,143.5 154.833,143.5 154.5,143.5C 151.5,143.5 148.5,143.5 145.5,143.5C 142.57,142.701 139.57,142.368 136.5,142.5C 134.901,142.768 133.568,142.434 132.5,141.5C 136.722,140.736 140.888,140.402 145,140.5C 145.75,141.126 146.584,141.626 147.5,142C 153.016,142.173 158.349,142.673 163.5,143.5 Z"/></g>
<g><path style="opacity:1" fill="#e1b644" d="M 64.5,145.5 C 61.1709,145.785 58.1709,145.118 55.5,143.5C 55.6646,141.173 56.3313,139.007 57.5,137C 64.7383,135.777 67.0716,138.611 64.5,145.5 Z"/></g>
<g><path style="opacity:1" fill="#0d0601" d="M 91.5,144.5 C 91.5,145.833 91.5,147.167 91.5,148.5C 88.5,148.5 85.5,148.5 82.5,148.5C 82.5,147.5 82.5,146.5 82.5,145.5C 83.404,144.791 83.7373,143.791 83.5,142.5C 86.4282,142.565 89.0948,143.232 91.5,144.5 Z"/></g>
<g><path style="opacity:1" fill="#d1ac4c" d="M 102.5,138.5 C 105.187,138.336 107.854,138.503 110.5,139C 111.056,139.383 111.389,139.883 111.5,140.5C 111.5,142.167 111.5,143.833 111.5,145.5C 113.5,145.5 115.5,145.5 117.5,145.5C 117.5,147.5 117.5,149.5 117.5,151.5C 114.615,151.806 111.948,151.473 109.5,150.5C 110.782,149.292 110.782,147.958 109.5,146.5C 107.271,145.423 104.937,144.756 102.5,144.5C 102.5,142.5 102.5,140.5 102.5,138.5 Z"/></g>
<g><path style="opacity:1" fill="#ecc146" d="M 383.5,138.5 C 387.163,138.952 390.83,139.452 394.5,140C 398.56,142.187 402.894,143.687 407.5,144.5C 410.911,144.597 412.245,142.93 411.5,139.5C 416.797,141.794 419.797,145.794 420.5,151.5C 416.682,149.697 412.682,148.364 408.5,147.5C 408.167,147.5 407.833,147.5 407.5,147.5C 399.783,143.706 391.783,140.706 383.5,138.5 Z"/></g>
<g><path style="opacity:0.149" fill="#e3dcc2" d="M 47.5,143.5 C 50.1667,143.5 52.8333,143.5 55.5,143.5C 58.1709,145.118 61.1709,145.785 64.5,145.5C 67.9792,146.99 71.3125,146.657 74.5,144.5C 74.5,145.833 74.5,147.167 74.5,148.5C 65.3083,148.29 56.3083,146.624 47.5,143.5 Z"/></g>
<g><path style="opacity:1" fill="#170e08" d="M 127.5,141.5 C 129.167,141.5 130.833,141.5 132.5,141.5C 133.568,142.434 134.901,142.768 136.5,142.5C 136.5,144.167 136.5,145.833 136.5,147.5C 136.167,147.5 135.833,147.5 135.5,147.5C 133.052,146.527 130.385,146.194 127.5,146.5C 127.5,144.833 127.5,143.167 127.5,141.5 Z"/></g>
<g><path style="opacity:1" fill="#e4bf47" d="M 136.5,142.5 C 139.57,142.368 142.57,142.701 145.5,143.5C 145.5,144.833 145.5,146.167 145.5,147.5C 142.5,147.5 139.5,147.5 136.5,147.5C 136.5,145.833 136.5,144.167 136.5,142.5 Z"/></g>
<g><path style="opacity:1" fill="#181510" d="M 145.5,143.5 C 148.5,143.5 151.5,143.5 154.5,143.5C 154.923,145.781 154.256,147.448 152.5,148.5C 151.833,148.5 151.167,148.5 150.5,148.5C 149.081,147.549 147.415,147.216 145.5,147.5C 145.5,146.167 145.5,144.833 145.5,143.5 Z"/></g>
<g><path style="opacity:1" fill="#13100e" d="M 163.5,144.5 C 166.5,144.5 169.5,144.5 172.5,144.5C 172.5,146.5 172.5,148.5 172.5,150.5C 169.287,150.81 166.287,150.477 163.5,149.5C 163.5,147.833 163.5,146.167 163.5,144.5 Z"/></g>
<g><path style="opacity:1" fill="#d2b55e" d="M 82.5,141.5 C 82.5,142.833 82.5,144.167 82.5,145.5C 82.5,146.5 82.5,147.5 82.5,148.5C 80.5,148.5 78.5,148.5 76.5,148.5C 75.8333,148.5 75.1667,148.5 74.5,148.5C 74.5,147.167 74.5,145.833 74.5,144.5C 74.5,143.167 74.5,141.833 74.5,140.5C 77.3854,140.194 80.0521,140.527 82.5,141.5 Z"/></g>
<g><path style="opacity:1" fill="#eebc38" d="M 75.5,141.5 C 77.5,141.5 79.5,141.5 81.5,141.5C 81.5,143.167 81.5,144.833 81.5,146.5C 79.5,146.5 77.5,146.5 75.5,146.5C 75.5,144.833 75.5,143.167 75.5,141.5 Z"/></g>
<g><path style="opacity:1" fill="#0f0904" d="M 111.5,140.5 C 114.5,140.5 117.5,140.5 120.5,140.5C 120.5,142.5 120.5,144.5 120.5,146.5C 122.5,146.5 124.5,146.5 126.5,146.5C 126.5,148.167 126.5,149.833 126.5,151.5C 123.5,151.5 120.5,151.5 117.5,151.5C 117.5,149.5 117.5,147.5 117.5,145.5C 115.5,145.5 113.5,145.5 111.5,145.5C 111.5,143.833 111.5,142.167 111.5,140.5 Z"/></g>
<g><path style="opacity:0.937" fill="#68552e" d="M 135.5,147.5 C 135.833,147.5 136.167,147.5 136.5,147.5C 139.5,147.5 142.5,147.5 145.5,147.5C 147.415,147.216 149.081,147.549 150.5,148.5C 148.833,148.5 147.167,148.5 145.5,148.5C 142.5,148.5 139.5,148.5 136.5,148.5C 136.5,149.5 136.5,150.5 136.5,151.5C 139.855,151.909 142.855,151.242 145.5,149.5C 145.5,150.5 145.5,151.5 145.5,152.5C 141.958,152.813 138.625,152.479 135.5,151.5C 135.5,150.167 135.5,148.833 135.5,147.5 Z"/></g>
<g><path style="opacity:1" fill="#e5c055" d="M 155.5,143.5 C 158.167,143.5 160.833,143.5 163.5,143.5C 163.5,143.833 163.5,144.167 163.5,144.5C 163.5,146.167 163.5,147.833 163.5,149.5C 160.794,149.425 158.127,149.092 155.5,148.5C 155.5,146.833 155.5,145.167 155.5,143.5 Z"/></g>
<g><path style="opacity:1" fill="#d7b347" d="M 96.5,143.5 C 98.1439,143.286 99.6439,143.62 101,144.5C 101.495,146.473 101.662,148.473 101.5,150.5C 98.8127,150.664 96.146,150.497 93.5,150C 92.5842,149.722 91.9175,149.222 91.5,148.5C 91.5,147.167 91.5,145.833 91.5,144.5C 93.0418,143.699 94.7085,143.366 96.5,143.5 Z"/></g>
<g><path style="opacity:0.984" fill="#a38b49" d="M 120.5,140.5 C 122.415,140.216 124.081,140.549 125.5,141.5C 124.167,141.5 122.833,141.5 121.5,141.5C 121.5,142.833 121.5,144.167 121.5,145.5C 123.167,145.5 124.833,145.5 126.5,145.5C 126.5,144.167 126.5,142.833 126.5,141.5C 126.833,141.5 127.167,141.5 127.5,141.5C 127.5,143.167 127.5,144.833 127.5,146.5C 130.385,146.194 133.052,146.527 135.5,147.5C 132.833,147.5 130.167,147.5 127.5,147.5C 127.5,148.833 127.5,150.167 127.5,151.5C 127.167,151.5 126.833,151.5 126.5,151.5C 126.5,149.833 126.5,148.167 126.5,146.5C 124.5,146.5 122.5,146.5 120.5,146.5C 120.5,144.5 120.5,142.5 120.5,140.5 Z"/></g>
<g><path style="opacity:1" fill="#e7bd43" d="M 125.5,141.5 C 125.833,141.5 126.167,141.5 126.5,141.5C 126.5,142.833 126.5,144.167 126.5,145.5C 124.833,145.5 123.167,145.5 121.5,145.5C 121.5,144.167 121.5,142.833 121.5,141.5C 122.833,141.5 124.167,141.5 125.5,141.5 Z"/></g>
<g><path style="opacity:0.004" fill="#fefffe" d="M 229.5,148.5 C 230.833,149.167 230.833,149.167 229.5,148.5 Z"/></g>
<g><path style="opacity:1" fill="#534326" d="M 154.5,143.5 C 154.833,143.5 155.167,143.5 155.5,143.5C 155.5,145.167 155.5,146.833 155.5,148.5C 158.127,149.092 160.794,149.425 163.5,149.5C 166.287,150.477 169.287,150.81 172.5,150.5C 166.69,151.49 160.69,151.823 154.5,151.5C 154.218,150.222 153.551,149.222 152.5,148.5C 154.256,147.448 154.923,145.781 154.5,143.5 Z"/></g>
<g><path style="opacity:0.965" fill="#e4ba44" d="M 135.5,147.5 C 135.5,148.833 135.5,150.167 135.5,151.5C 132.833,151.5 130.167,151.5 127.5,151.5C 127.5,150.167 127.5,148.833 127.5,147.5C 130.167,147.5 132.833,147.5 135.5,147.5 Z"/></g>
<g><path style="opacity:0.086" fill="#ebe4cb" d="M 163.5,144.5 C 163.5,144.167 163.5,143.833 163.5,143.5C 177.22,143.654 190.886,144.321 204.5,145.5C 206.064,144.814 207.731,144.981 209.5,146C 202.469,150.11 194.969,151.61 187,150.5C 173.49,151.878 159.99,153.212 146.5,154.5C 139.807,154.18 133.14,154.18 126.5,154.5C 125.808,153.975 125.308,153.308 125,152.5C 116.262,152.544 107.262,152.544 98,152.5C 94.068,150.729 90.068,150.396 86,151.5C 84.8872,149.2 83.3872,148.867 81.5,150.5C 79.5784,150.199 77.9117,149.533 76.5,148.5C 78.5,148.5 80.5,148.5 82.5,148.5C 85.5,148.5 88.5,148.5 91.5,148.5C 91.9175,149.222 92.5842,149.722 93.5,150C 96.146,150.497 98.8127,150.664 101.5,150.5C 104.167,150.5 106.833,150.5 109.5,150.5C 111.948,151.473 114.615,151.806 117.5,151.5C 120.5,151.5 123.5,151.5 126.5,151.5C 126.833,151.5 127.167,151.5 127.5,151.5C 130.167,151.5 132.833,151.5 135.5,151.5C 138.625,152.479 141.958,152.813 145.5,152.5C 148.713,152.81 151.713,152.477 154.5,151.5C 160.69,151.823 166.69,151.49 172.5,150.5C 172.5,148.5 172.5,146.5 172.5,144.5C 169.5,144.5 166.5,144.5 163.5,144.5 Z"/></g>
<g><path style="opacity:1" fill="#e1bb5c" d="M 145.5,148.5 C 147.167,148.5 148.833,148.5 150.5,148.5C 151.167,148.5 151.833,148.5 152.5,148.5C 153.551,149.222 154.218,150.222 154.5,151.5C 151.713,152.477 148.713,152.81 145.5,152.5C 145.5,151.5 145.5,150.5 145.5,149.5C 145.5,149.167 145.5,148.833 145.5,148.5 Z"/></g>
<g><path style="opacity:1" fill="#0c0401" d="M 145.5,148.5 C 145.5,148.833 145.5,149.167 145.5,149.5C 142.855,151.242 139.855,151.909 136.5,151.5C 136.5,150.5 136.5,149.5 136.5,148.5C 139.5,148.5 142.5,148.5 145.5,148.5 Z"/></g>
<g><path style="opacity:1" fill="#eabe41" d="M 181.5,145.5 C 181.5,146.833 181.5,148.167 181.5,149.5C 179.052,150.473 176.385,150.806 173.5,150.5C 173.5,148.833 173.5,147.167 173.5,145.5C 176.167,145.5 178.833,145.5 181.5,145.5 Z"/></g>
<g><path style="opacity:0.969" fill="#e2c570" d="M 191.5,145.5 C 194.247,145.187 196.914,145.52 199.5,146.5C 197.149,148.229 194.482,148.896 191.5,148.5C 191.5,147.5 191.5,146.5 191.5,145.5 Z"/></g>
<g><path style="opacity:1" fill="#24211d" d="M 181.5,145.5 C 184.833,145.5 188.167,145.5 191.5,145.5C 191.5,146.5 191.5,147.5 191.5,148.5C 188.272,149.414 184.939,149.747 181.5,149.5C 181.5,148.167 181.5,146.833 181.5,145.5 Z"/></g>
<g><path style="opacity:0.004" fill="#fefffe" d="M 269.5,152.5 C 270.833,153.167 270.833,153.167 269.5,152.5 Z"/></g>
<g><path style="opacity:0.004" fill="#fefffe" d="M 139.5,160.5 C 140.833,161.167 140.833,161.167 139.5,160.5 Z"/></g>
<g><path style="opacity:0.066" fill="#d3d3d3" d="M 195.5,162.5 C 204.324,161.343 213.324,161.176 222.5,162C 223.591,164.064 223.758,166.231 223,168.5C 222.31,169.738 221.81,169.738 221.5,168.5C 221.5,166.5 221.5,164.5 221.5,162.5C 212.833,162.5 204.167,162.5 195.5,162.5 Z"/></g>
<g><path style="opacity:0.004" fill="#fefffe" d="M 384.5,161.5 C 385.833,162.167 385.833,162.167 384.5,161.5 Z"/></g>
<g><path style="opacity:1" fill="#1a1a1a" d="M 107.5,162.5 C 110.423,163.295 113.09,164.628 115.5,166.5C 116.664,173.142 116.831,179.808 116,186.5C 115.184,187.823 114.017,188.489 112.5,188.5C 110.973,188.427 109.973,189.094 109.5,190.5C 109.389,191.117 109.056,191.617 108.5,192C 109.582,193.33 110.249,194.83 110.5,196.5C 110.427,198.027 111.094,199.027 112.5,199.5C 113.674,200.514 114.34,201.847 114.5,203.5C 114.427,205.027 115.094,206.027 116.5,206.5C 119.527,209.016 119.027,210.683 115,211.5C 113.584,210.427 112.25,210.427 111,211.5C 109.961,210.756 109.461,209.756 109.5,208.5C 109.25,206.326 108.25,204.659 106.5,203.5C 105.662,203.158 105.328,202.492 105.5,201.5C 105.25,199.326 104.25,197.659 102.5,196.5C 101.662,196.158 101.328,195.492 101.5,194.5C 101.461,193.417 101.127,192.417 100.5,191.5C 96.8927,190.511 93.226,190.177 89.5,190.5C 89.5,197.167 89.5,203.833 89.5,210.5C 87.7411,210.954 85.7411,210.954 83.5,210.5C 83.5,194.5 83.5,178.5 83.5,162.5C 91.5,162.5 99.5,162.5 107.5,162.5 Z M 91.5,168.5 C 96.8944,168.561 102.228,168.561 107.5,168.5C 107.726,173.548 107.392,178.714 106.5,184C 101.177,184.499 95.8437,184.666 90.5,184.5C 90.2175,179.073 90.5509,173.74 91.5,168.5 Z"/></g>
<g><path style="opacity:1" fill="#2b2b2b" d="M 134.5,162.5 C 135.661,178.328 135.828,194.328 135,210.5C 132.637,211.232 130.137,211.232 127.5,210.5C 127.5,194.5 127.5,178.5 127.5,162.5C 129.833,162.5 132.167,162.5 134.5,162.5 Z"/></g>
<g><path style="opacity:1" fill="#131313" d="M 175.5,162.5 C 178.342,163.172 180.842,164.506 183,166.5C 183.667,179.833 183.667,193.167 183,206.5C 180.686,207.733 178.519,209.067 176.5,210.5C 174.726,211.017 173.059,211.35 171.5,211.5C 163.345,210.524 155.345,210.191 147.5,210.5C 147.5,194.5 147.5,178.5 147.5,162.5C 156.833,162.5 166.167,162.5 175.5,162.5 Z M 154.5,168.5 C 161.388,168.722 168.388,168.722 175.5,168.5C 175.5,180.167 175.5,191.833 175.5,203.5C 168.5,203.5 161.5,203.5 154.5,203.5C 154.574,191.654 154.574,179.987 154.5,168.5 Z"/></g>
<g><path style="opacity:0.999" fill="#0b0b0b" d="M 195.5,162.5 C 204.167,162.5 212.833,162.5 221.5,162.5C 221.5,164.5 221.5,166.5 221.5,168.5C 215.439,168.671 209.106,168.671 202.5,168.5C 201.167,173.167 201.167,177.833 202.5,182.5C 207.992,182.415 213.325,182.415 218.5,182.5C 218.5,184.5 218.5,186.5 218.5,188.5C 212.833,188.5 207.167,188.5 201.5,188.5C 201.5,193.833 201.5,199.167 201.5,204.5C 208.5,204.5 215.5,204.5 222.5,204.5C 223.461,206.265 223.795,208.265 223.5,210.5C 214,210.646 204.667,210.646 195.5,210.5C 195.5,194.5 195.5,178.5 195.5,162.5 Z"/></g>
<g><path style="opacity:1" fill="#131313" d="M 271.5,162.5 C 271.132,166.044 272.132,169.044 274.5,171.5C 275.931,172.78 276.598,174.447 276.5,176.5C 276.861,180.915 278.194,184.915 280.5,188.5C 282.427,195.949 284.761,203.283 287.5,210.5C 285.118,211.48 283.118,211.48 281.5,210.5C 281.267,207.458 280.267,204.792 278.5,202.5C 278.737,201.209 278.404,200.209 277.5,199.5C 270.323,198.181 262.99,198.181 255.5,199.5C 253.875,203.08 252.541,206.746 251.5,210.5C 250.133,211.268 248.467,211.268 246.5,210.5C 246.993,208.194 247.326,205.861 247.5,203.5C 247.595,201.214 248.262,199.214 249.5,197.5C 251.38,195.245 252.38,192.578 252.5,189.5C 255.986,183.382 258.319,176.715 259.5,169.5C 260.352,161.742 264.352,159.408 271.5,162.5 Z M 273.5,191.5 C 273.167,191.5 272.833,191.5 272.5,191.5C 268.317,192.811 263.984,192.811 259.5,191.5C 261.372,186.55 263.039,181.55 264.5,176.5C 265.467,175.194 266.801,174.527 268.5,174.5C 269.968,180.237 271.635,185.903 273.5,191.5 Z"/></g>
<g><path style="opacity:1" fill="#171717" d="M 320.5,162.5 C 322.062,162.733 323.395,163.4 324.5,164.5C 326.518,171.97 327.018,179.636 326,187.5C 325.282,186.549 324.449,186.383 323.5,187C 324.252,187.671 324.586,188.504 324.5,189.5C 324.158,190.338 323.492,190.672 322.5,190.5C 315.891,191.423 309.224,191.756 302.5,191.5C 302.5,197.833 302.5,204.167 302.5,210.5C 300.427,211.332 298.093,211.332 295.5,210.5C 295.5,194.5 295.5,178.5 295.5,162.5C 303.833,162.5 312.167,162.5 320.5,162.5 Z M 319.5,168.5 C 319.5,174.167 319.5,179.833 319.5,185.5C 314.167,185.5 308.833,185.5 303.5,185.5C 303.5,179.833 303.5,174.167 303.5,168.5C 308.833,168.5 314.167,168.5 319.5,168.5 Z"/></g>
<g><path style="opacity:1" fill="#141414" d="M 363.5,162.5 C 366.388,163.11 368.888,164.444 371,166.5C 371.667,173.5 371.667,180.5 371,187.5C 368.843,189.495 366.343,190.828 363.5,191.5C 357.5,191.5 351.5,191.5 345.5,191.5C 344.833,197.833 344.167,204.167 343.5,210.5C 342.167,210.5 340.833,210.5 339.5,210.5C 339.5,194.5 339.5,178.5 339.5,162.5C 347.5,162.5 355.5,162.5 363.5,162.5 Z M 347.5,168.5 C 352.38,168.764 357.38,168.764 362.5,168.5C 363.108,172.861 363.108,178.528 362.5,185.5C 357.228,185.439 351.894,185.439 346.5,185.5C 346.561,179.578 346.894,173.912 347.5,168.5 Z"/></g>
<g><path style="opacity:0.73" fill="#929292" d="M 107.5,162.5 C 99.5,162.5 91.5,162.5 83.5,162.5C 83.5,178.5 83.5,194.5 83.5,210.5C 83.19,211.738 82.69,211.738 82,210.5C 81.3333,194.5 81.3333,178.5 82,162.5C 90.5983,161.172 99.0983,161.172 107.5,162.5 Z"/></g>
<g><path style="opacity:0.739" fill="#939393" d="M 363.5,162.5 C 355.5,162.5 347.5,162.5 339.5,162.5C 339.5,178.5 339.5,194.5 339.5,210.5C 339.5,210.833 339.5,211.167 339.5,211.5C 338.883,211.389 338.383,211.056 338,210.5C 337.333,194.5 337.333,178.5 338,162.5C 346.598,161.172 355.098,161.172 363.5,162.5 Z"/></g>
<g><path style="opacity:0.604" fill="#a9a9a9" d="M 175.5,162.5 C 166.167,162.5 156.833,162.5 147.5,162.5C 147.5,178.5 147.5,194.5 147.5,210.5C 147.19,211.738 146.69,211.738 146,210.5C 145.387,194.283 145.387,178.283 146,162.5C 155.931,161.171 165.765,161.171 175.5,162.5 Z"/></g>
<g><path style="opacity:0.354" fill="#a4a4a4" d="M 195.5,162.5 C 195.5,178.5 195.5,194.5 195.5,210.5C 194.826,194.765 194.16,178.931 193.5,163C 194.094,162.536 194.761,162.369 195.5,162.5 Z"/></g>
<g><path style="opacity:0.878" fill="#8b8b8b" d="M 271.5,162.5 C 273.072,165.215 274.072,168.215 274.5,171.5C 272.132,169.044 271.132,166.044 271.5,162.5 Z"/></g>
<g><path style="opacity:0.064" fill="#efefef" d="M 134.5,162.5 C 132.167,162.5 129.833,162.5 127.5,162.5C 127.5,178.5 127.5,194.5 127.5,210.5C 127.5,210.833 127.5,211.167 127.5,211.5C 126.503,195.008 126.17,178.342 126.5,161.5C 129.385,161.194 132.052,161.527 134.5,162.5 Z"/></g>
<g><path style="opacity:0.065" fill="#efefef" d="M 320.5,162.5 C 312.167,162.5 303.833,162.5 295.5,162.5C 295.5,178.5 295.5,194.5 295.5,210.5C 294.504,194.342 294.17,178.009 294.5,161.5C 303.349,161.174 312.016,161.507 320.5,162.5 Z"/></g>
<g><path style="opacity:0.146" fill="#d9d9d9" d="M 327.5,166.5 C 328.239,166.369 328.906,166.536 329.5,167C 328.85,173.932 328.183,180.766 327.5,187.5C 327.5,180.5 327.5,173.5 327.5,166.5 Z"/></g>
<g><path style="opacity:0.004" fill="#fefffe" d="M 188.5,170.5 C 189.833,171.167 189.833,171.167 188.5,170.5 Z"/></g>
<g><path style="opacity:0.062" fill="#efefef" d="M 347.5,168.5 C 346.894,173.912 346.561,179.578 346.5,185.5C 346.167,185.5 345.833,185.5 345.5,185.5C 344.883,179.402 345.55,173.735 347.5,168.5 Z"/></g>
<g><path style="opacity:0.604" fill="#959595" d="M 319.5,168.5 C 320.814,170.915 321.481,173.748 321.5,177C 321.481,180.252 320.814,183.085 319.5,185.5C 319.5,179.833 319.5,174.167 319.5,168.5 Z"/></g>
<g><path style="opacity:0.141" fill="#cccccc" d="M 154.5,168.5 C 154.574,179.987 154.574,191.654 154.5,203.5C 161.5,203.5 168.5,203.5 175.5,203.5C 175.5,191.833 175.5,180.167 175.5,168.5C 176.495,180.322 176.828,192.322 176.5,204.5C 168.833,204.5 161.167,204.5 153.5,204.5C 153.172,192.322 153.505,180.322 154.5,168.5 Z M 154.5,168.5 C 161.388,168.722 168.388,168.722 175.5,168.5C 175.5,180.167 175.5,191.833 175.5,203.5C 168.5,203.5 161.5,203.5 154.5,203.5C 154.574,191.654 154.574,179.987 154.5,168.5 Z"/></g>
<g><path style="opacity:0.373" fill="#a8a8a8" d="M 202.5,168.5 C 202.5,173.167 202.5,177.833 202.5,182.5C 201.167,177.833 201.167,173.167 202.5,168.5 Z"/></g>
<g><path style="opacity:0.816" fill="#3e3e3e" d="M 324.5,164.5 C 325.71,164.932 326.71,165.599 327.5,166.5C 327.5,173.5 327.5,180.5 327.5,187.5C 327.027,188.906 326.027,189.573 324.5,189.5C 324.586,188.504 324.252,187.671 323.5,187C 324.449,186.383 325.282,186.549 326,187.5C 327.018,179.636 326.518,171.97 324.5,164.5 Z"/></g>
<g><path style="opacity:0.607" fill="#959595" d="M 362.5,168.5 C 363.814,170.915 364.481,173.748 364.5,177C 364.498,180.021 364.164,182.854 363.5,185.5C 363.167,185.5 362.833,185.5 362.5,185.5C 363.108,178.528 363.108,172.861 362.5,168.5 Z"/></g>
<g><path style="opacity:0.247" fill="#b5b5b5" d="M 259.5,169.5 C 258.319,176.715 255.986,183.382 252.5,189.5C 254.064,182.469 256.398,175.802 259.5,169.5 Z"/></g>
<g><path style="opacity:0.004" fill="#fefffe" d="M 284.5,177.5 C 285.833,178.167 285.833,178.167 284.5,177.5 Z"/></g>
<g><path style="opacity:0.004" fill="#fefffe" d="M 212.5,178.5 C 213.833,179.167 213.833,179.167 212.5,178.5 Z"/></g>
<g><path style="opacity:0.639" fill="#9d9d9d" d="M 276.5,176.5 C 278.405,180.216 279.739,184.216 280.5,188.5C 278.194,184.915 276.861,180.915 276.5,176.5 Z"/></g>
<g><path style="opacity:0.004" fill="#fefffe" d="M 224.5,181.5 C 225.833,182.167 225.833,182.167 224.5,181.5 Z"/></g>
<g><path style="opacity:0.004" fill="#fefffe" d="M 65.5,184.5 C 66.8333,185.167 66.8333,185.167 65.5,184.5 Z"/></g>
<g><path style="opacity:0.248" fill="#d0d0d0" d="M 91.5,168.5 C 90.5509,173.74 90.2175,179.073 90.5,184.5C 95.8437,184.666 101.177,184.499 106.5,184C 107.392,178.714 107.726,173.548 107.5,168.5C 108.489,173.975 108.822,179.642 108.5,185.5C 102.167,185.5 95.8333,185.5 89.5,185.5C 88.8833,179.402 89.55,173.735 91.5,168.5 Z M 91.5,168.5 C 96.8944,168.561 102.228,168.561 107.5,168.5C 107.726,173.548 107.392,178.714 106.5,184C 101.177,184.499 95.8437,184.666 90.5,184.5C 90.2175,179.073 90.5509,173.74 91.5,168.5 Z"/></g>
<g><path style="opacity:0.741" fill="#5c5c5c" d="M 362.5,185.5 C 362.833,185.5 363.167,185.5 363.5,185.5C 357.5,186.833 351.5,186.833 345.5,185.5C 345.833,185.5 346.167,185.5 346.5,185.5C 351.894,185.439 357.228,185.439 362.5,185.5 Z"/></g>
<g><path style="opacity:0.018" fill="#e8e8e8" d="M 112.5,188.5 C 112.179,190.048 111.179,190.715 109.5,190.5C 109.973,189.094 110.973,188.427 112.5,188.5 Z"/></g>
<g><path style="opacity:0.353" fill="#c8c8c8" d="M 218.5,182.5 C 219.289,182.783 219.956,183.283 220.5,184C 219.594,185.699 219.261,187.533 219.5,189.5C 213.833,189.5 208.167,189.5 202.5,189.5C 202.5,194.167 202.5,198.833 202.5,203.5C 209.354,203.176 216.021,203.509 222.5,204.5C 215.5,204.5 208.5,204.5 201.5,204.5C 201.5,199.167 201.5,193.833 201.5,188.5C 207.167,188.5 212.833,188.5 218.5,188.5C 218.5,186.5 218.5,184.5 218.5,182.5 Z"/></g>
<g><path style="opacity:0.004" fill="#fefffe" d="M 243.5,189.5 C 244.833,190.167 244.833,190.167 243.5,189.5 Z"/></g>
<g><path style="opacity:0.733" fill="#999999" d="M 101.5,194.5 C 100.21,193.942 99.3768,192.942 99,191.5C 96.2499,192.001 93.4166,192.001 90.5,191.5C 90.8235,198.022 90.4902,204.355 89.5,210.5C 89.5,203.833 89.5,197.167 89.5,190.5C 93.226,190.177 96.8927,190.511 100.5,191.5C 101.127,192.417 101.461,193.417 101.5,194.5 Z"/></g>
<g><path style="opacity:0.004" fill="#fefffe" d="M 110.5,192.5 C 111.833,193.167 111.833,193.167 110.5,192.5 Z"/></g>
<g><path style="opacity:0.471" fill="#a6a6a6" d="M 264.5,176.5 C 264.39,173.941 265.056,171.608 266.5,169.5C 267.086,169.709 267.586,170.043 268,170.5C 270.611,178.165 273.111,185.832 275.5,193.5C 269.833,193.5 264.167,193.5 258.5,193.5C 259.342,187.3 261.342,181.633 264.5,176.5 Z M 273.5,191.5 C 273.167,191.5 272.833,191.5 272.5,191.5C 268.317,192.811 263.984,192.811 259.5,191.5C 261.372,186.55 263.039,181.55 264.5,176.5C 265.467,175.194 266.801,174.527 268.5,174.5C 269.968,180.237 271.635,185.903 273.5,191.5 Z"/></g>
<g><path style="opacity:0.006" fill="#c6c6c6" d="M 252.5,189.5 C 252.38,192.578 251.38,195.245 249.5,197.5C 249.415,194.351 250.415,191.684 252.5,189.5 Z"/></g>
<g><path style="opacity:0.635" fill="#9f9f9f" d="M 280.5,188.5 C 283.433,195.116 286.1,201.949 288.5,209C 288.43,209.765 288.097,210.265 287.5,210.5C 284.761,203.283 282.427,195.949 280.5,188.5 Z"/></g>
<g><path style="opacity:0.065" fill="#dfdfdf" d="M 322.5,190.5 C 322.389,191.117 322.056,191.617 321.5,192C 315.509,192.499 309.509,192.666 303.5,192.5C 303.823,198.69 303.49,204.69 302.5,210.5C 302.5,204.167 302.5,197.833 302.5,191.5C 309.224,191.756 315.891,191.423 322.5,190.5 Z"/></g>
<g><path style="opacity:0.18" fill="#c7c7c7" d="M 102.5,196.5 C 104.25,197.659 105.25,199.326 105.5,201.5C 103.75,200.341 102.75,198.674 102.5,196.5 Z"/></g>
<g><path style="opacity:0.176" fill="#c5c5c5" d="M 110.5,196.5 C 111.906,196.973 112.573,197.973 112.5,199.5C 111.094,199.027 110.427,198.027 110.5,196.5 Z"/></g>
<g><path style="opacity:0.723" fill="#565656" d="M 345.5,191.5 C 345.5,197.833 345.5,204.167 345.5,210.5C 345.158,211.338 344.492,211.672 343.5,211.5C 343.5,211.167 343.5,210.833 343.5,210.5C 344.167,204.167 344.833,197.833 345.5,191.5 Z"/></g>
<g><path style="opacity:0.004" fill="#fefffe" d="M 276.5,201.5 C 275.833,200.167 275.833,200.167 276.5,201.5 Z"/></g>
<g><path style="opacity:0.055" fill="#dedede" d="M 345.5,191.5 C 351.5,191.5 357.5,191.5 363.5,191.5C 358.025,192.489 352.358,192.822 346.5,192.5C 346.823,198.69 346.49,204.69 345.5,210.5C 345.5,204.167 345.5,197.833 345.5,191.5 Z"/></g>
<g><path style="opacity:0.004" fill="#fefffe" d="M 206.5,201.5 C 207.833,202.167 207.833,202.167 206.5,201.5 Z"/></g>
<g><path style="opacity:0.01" fill="#e1e1e1" d="M 277.5,199.5 C 278.404,200.209 278.737,201.209 278.5,202.5C 277.075,204.031 276.409,203.698 276.5,201.5C 277.338,201.158 277.672,200.492 277.5,199.5 Z"/></g>
<g><path style="opacity:0.302" fill="#9c9c9c" d="M 277.5,199.5 C 270.468,199.17 263.468,199.503 256.5,200.5C 255.314,204.205 253.648,207.538 251.5,210.5C 252.541,206.746 253.875,203.08 255.5,199.5C 262.99,198.181 270.323,198.181 277.5,199.5 Z"/></g>
<g><path style="opacity:0.051" fill="#c0c0c0" d="M 278.5,202.5 C 280.267,204.792 281.267,207.458 281.5,210.5C 281.167,210.5 280.833,210.5 280.5,210.5C 280.342,208.179 279.342,206.346 277.5,205C 278.252,204.329 278.586,203.496 278.5,202.5 Z"/></g>
<g><path style="opacity:0.212" fill="#c8c8c8" d="M 106.5,203.5 C 108.25,204.659 109.25,206.326 109.5,208.5C 109.167,208.5 108.833,208.5 108.5,208.5C 108.056,206.887 107.056,205.72 105.5,205C 106.056,204.617 106.389,204.117 106.5,203.5 Z"/></g>
<g><path style="opacity:0.227" fill="#bfbfbf" d="M 114.5,203.5 C 115.906,203.973 116.573,204.973 116.5,206.5C 115.094,206.027 114.427,205.027 114.5,203.5 Z"/></g>
<g><path style="opacity:0.004" fill="#fefffe" d="M 184.5,205.5 C 185.833,206.167 185.833,206.167 184.5,205.5 Z"/></g>
<g><path style="opacity:0.004" fill="#fefffe" d="M 307.5,205.5 C 308.833,206.167 308.833,206.167 307.5,205.5 Z"/></g>
<g><path style="opacity:0.004" fill="#fefffe" d="M 108.5,208.5 C 107.833,209.167 107.833,209.167 108.5,208.5 Z"/></g>
<g><path style="opacity:0.761" fill="#a1a1a1" d="M 247.5,203.5 C 247.326,205.861 246.993,208.194 246.5,210.5C 246.5,210.833 246.5,211.167 246.5,211.5C 245.522,211.189 244.855,210.522 244.5,209.5C 245.641,208.575 245.641,207.741 244.5,207C 245.636,205.855 246.636,204.688 247.5,203.5 Z"/></g>
<g><path style="opacity:0.004" fill="#fefffe" d="M 176.5,210.5 C 177.833,211.167 177.833,211.167 176.5,210.5 Z"/></g>
<g><path style="opacity:0.004" fill="#fefffe" d="M 280.5,210.5 C 279.833,211.167 279.833,211.167 280.5,210.5 Z"/></g>
<g><path style="opacity:0.004" fill="#fefffe" d="M 323.5,210.5 C 324.833,211.167 324.833,211.167 323.5,210.5 Z"/></g>
<g><path style="opacity:0.004" fill="#fefffe" d="M 29.5,211.5 C 30.8333,212.167 30.8333,212.167 29.5,211.5 Z"/></g>
<g><path style="opacity:0.008" fill="#fefffe" d="M 127.5,211.5 C 128.833,212.167 128.833,212.167 127.5,211.5 Z"/></g>
<g><path style="opacity:0.012" fill="#fefffe" d="M 171.5,211.5 C 172.833,212.167 172.833,212.167 171.5,211.5 Z"/></g>
<g><path style="opacity:0.008" fill="#fefffe" d="M 246.5,211.5 C 247.833,212.167 247.833,212.167 246.5,211.5 Z"/></g>
<g><path style="opacity:0.004" fill="#fefffe" d="M 295.5,211.5 C 296.833,212.167 296.833,212.167 295.5,211.5 Z"/></g>
<g><path style="opacity:0.004" fill="#fefffe" d="M 339.5,211.5 C 340.833,212.167 340.833,212.167 339.5,211.5 Z"/></g>
<g><path style="opacity:0.004" fill="#fefffe" d="M 343.5,211.5 C 342.833,212.167 342.833,212.167 343.5,211.5 Z"/></g>
<g><path style="opacity:0.008" fill="#fefffe" d="M 113.5,212.5 C 114.833,213.167 114.833,213.167 113.5,212.5 Z"/></g>
<g><path style="opacity:0.004" fill="#fefffe" d="M 84.5,215.5 C 85.8333,216.167 85.8333,216.167 84.5,215.5 Z"/></g>
<g><path style="opacity:0.008" fill="#fefffe" d="M 33.5,225.5 C 32.7611,225.631 32.0944,225.464 31.5,225C 32.4368,224.308 33.1034,224.475 33.5,225.5 Z"/></g>
<g><path style="opacity:0.753" fill="#848484" d="M 114.5,228.5 C 112.429,227.191 109.929,226.525 107,226.5C 104.071,226.525 101.571,227.191 99.5,228.5C 98.7611,228.631 98.0944,228.464 97.5,228C 98.1905,226.933 98.6905,225.766 99,224.5C 103.852,224.871 108.852,224.871 114,224.5C 116.725,225.925 116.892,227.258 114.5,228.5 Z"/></g>
<g><path style="opacity:0.004" fill="#fefffe" d="M 144.5,225.5 C 145.833,226.167 145.833,226.167 144.5,225.5 Z"/></g>
<g><path style="opacity:0.716" fill="#797979" d="M 159.5,226.5 C 155.4,226.237 151.4,226.57 147.5,227.5C 147.75,226.078 148.583,225.078 150,224.5C 151.667,225.833 153.333,225.833 155,224.5C 156.622,225.099 158.122,225.766 159.5,226.5 Z"/></g>
<g><path style="opacity:0.739" fill="#898989" d="M 183.5,234.5 C 181.711,232.349 180.378,229.849 179.5,227C 178.072,226.421 176.738,226.588 175.5,227.5C 176.075,224.132 177.741,223.632 180.5,226C 181.929,228.69 182.929,231.523 183.5,234.5 Z"/></g>
<g><path style="opacity:0.739" fill="#5f5f5f" d="M 296.5,228.5 C 296.167,228.5 295.833,228.5 295.5,228.5C 292.452,226.881 289.119,225.881 285.5,225.5C 285.435,225.062 285.601,224.728 286,224.5C 289.411,225.293 292.911,225.793 296.5,226C 297.598,226.77 297.598,227.603 296.5,228.5 Z"/></g>
<g><path style="opacity:0.004" fill="#fefffe" d="M 319.5,225.5 C 320.833,226.167 320.833,226.167 319.5,225.5 Z"/></g>
<g><path style="opacity:0.735" fill="#848484" d="M 412.5,225.5 C 412.5,226.5 412.5,227.5 412.5,228.5C 412.167,228.5 411.833,228.5 411.5,228.5C 408.316,226.586 404.649,225.92 400.5,226.5C 400.5,233.5 400.5,240.5 400.5,247.5C 399.345,240.345 399.178,233.012 400,225.5C 404.272,225.438 408.438,225.438 412.5,225.5 Z"/></g>
<g><path style="opacity:0.694" fill="#8b8b8b" d="M 66.5,234.5 C 64.6885,232.615 63.5218,230.281 63,227.5C 62.4387,226.978 61.772,226.645 61,226.5C 59.2182,228.27 57.7182,230.27 56.5,232.5C 56.5,231.5 56.5,230.5 56.5,229.5C 57.4047,225.856 59.7381,224.689 63.5,226C 64.9292,228.69 65.9292,231.523 66.5,234.5 Z"/></g>
<g><path style="opacity:1" fill="#292929" d="M 91.5,227.5 C 91.3059,231.005 90.3059,231.338 88.5,228.5C 88.1667,228.5 87.8333,228.5 87.5,228.5C 86.5,228.5 85.5,228.5 84.5,228.5C 83.5,229.833 82.5,229.833 81.5,228.5C 80.5318,230.607 80.1984,232.941 80.5,235.5C 84.2343,235.323 87.9009,235.656 91.5,236.5C 91.9903,240.487 91.3236,244.154 89.5,247.5C 85.4161,247.957 81.5828,247.29 78,245.5C 77.5172,244.552 77.3505,243.552 77.5,242.5C 79.0481,242.821 79.7148,243.821 79.5,245.5C 82.8333,245.5 86.1667,245.5 89.5,245.5C 89.5,242.833 89.5,240.167 89.5,237.5C 85.7657,237.677 82.0991,237.344 78.5,236.5C 77.2521,235.666 76.5854,234.333 76.5,232.5C 76.3647,230.192 77.0314,228.192 78.5,226.5C 83.3622,224.026 87.6955,224.36 91.5,227.5 Z"/></g>
<g><path style="opacity:0.999" fill="#272727" d="M 114.5,228.5 C 113.027,229.071 111.36,229.071 109.5,228.5C 108.51,234.645 108.177,240.978 108.5,247.5C 107.5,247.5 106.5,247.5 105.5,247.5C 105.823,240.978 105.49,234.645 104.5,228.5C 103.833,228.5 103.5,228.833 103.5,229.5C 102.167,229.167 100.833,228.833 99.5,228.5C 101.571,227.191 104.071,226.525 107,226.5C 109.929,226.525 112.429,227.191 114.5,228.5 Z"/></g>
<g><path style="opacity:1" fill="#121212" d="M 272.5,226.5 C 273.492,226.328 274.158,226.662 274.5,227.5C 274.964,231.502 274.298,235.169 272.5,238.5C 271.698,239.952 271.198,241.618 271,243.5C 270.617,242.944 270.117,242.611 269.5,242.5C 269.461,241.417 269.127,240.417 268.5,239.5C 266.604,238.534 264.604,238.201 262.5,238.5C 262.5,241.5 262.5,244.5 262.5,247.5C 261.833,247.5 261.167,247.5 260.5,247.5C 260.5,240.5 260.5,233.5 260.5,226.5C 264.5,226.5 268.5,226.5 272.5,226.5 Z M 263.5,228.5 C 266.068,229.232 268.734,229.232 271.5,228.5C 271.5,230.833 271.5,233.167 271.5,235.5C 269.061,234.947 266.727,234.947 264.5,235.5C 263.17,233.653 263.503,232.153 265.5,231C 264.244,230.583 263.577,229.75 263.5,228.5 Z"/></g>
<g><path style="opacity:1" fill="#202020" d="M 285.5,225.5 C 289.119,225.881 292.452,226.881 295.5,228.5C 294.065,229.096 292.398,229.096 290.5,228.5C 289.167,228.5 287.833,228.5 286.5,228.5C 286.5,230.833 286.5,233.167 286.5,235.5C 295.833,236.167 295.833,236.833 286.5,237.5C 286.198,240.059 286.532,242.393 287.5,244.5C 290.85,244.335 294.183,244.502 297.5,245C 297.043,245.414 296.709,245.914 296.5,246.5C 292.217,247.492 287.884,247.826 283.5,247.5C 282.87,239.757 283.537,232.424 285.5,225.5 Z"/></g>
<g><path style="opacity:1" fill="#121212" d="M 307.5,244.5 C 310.167,244.5 312.833,244.5 315.5,244.5C 315.5,245.5 315.5,246.5 315.5,247.5C 311.833,247.5 308.167,247.5 304.5,247.5C 304.17,240.468 304.503,233.468 305.5,226.5C 306.167,232.654 306.833,238.654 307.5,244.5 Z"/></g>
<g><path style="opacity:1" fill="#5c5c5c" d="M 348.5,238.5 C 346.883,236.879 345.716,234.879 345,232.5C 344.424,234.377 344.591,236.211 345.5,238C 345.164,239.03 344.497,239.53 343.5,239.5C 344.071,238.027 344.071,236.36 343.5,234.5C 343.579,233.07 343.246,231.736 342.5,230.5C 341.743,229.227 341.077,229.227 340.5,230.5C 338.376,232.059 336.709,234.059 335.5,236.5C 335.586,234.323 336.253,232.323 337.5,230.5C 337.291,229.914 336.957,229.414 336.5,229C 337.973,228.29 338.64,227.124 338.5,225.5C 340.604,225.201 342.604,225.534 344.5,226.5C 346.039,230.45 347.372,234.45 348.5,238.5 Z"/></g>
<g><path style="opacity:1" fill="#171717" d="M 372.5,227.5 C 372.875,230.397 372.375,233.063 371,235.5C 370.814,232.964 370.314,230.631 369.5,228.5C 368.391,228.557 367.391,228.89 366.5,229.5C 365.833,228.167 365.167,228.167 364.5,229.5C 363.833,229.167 363.167,228.833 362.5,228.5C 360.656,230.279 359.99,232.612 360.5,235.5C 363.518,235.335 366.518,235.502 369.5,236C 370.056,236.383 370.389,236.883 370.5,237.5C 371.167,237.5 371.833,237.5 372.5,237.5C 372.5,240.167 372.5,242.833 372.5,245.5C 371.29,245.932 370.29,246.599 369.5,247.5C 365.833,247.5 362.167,247.5 358.5,247.5C 358.5,240.167 358.5,232.833 358.5,225.5C 359.15,225.196 359.817,224.863 360.5,224.5C 364.78,224.921 368.78,225.921 372.5,227.5 Z M 362.5,228.5 C 363.167,228.833 363.833,229.167 364.5,229.5C 365.167,230.833 365.833,230.833 366.5,229.5C 367.391,228.89 368.391,228.557 369.5,228.5C 369.5,230.5 369.5,232.5 369.5,234.5C 366.813,234.664 364.146,234.497 361.5,234C 361.653,232.791 361.986,231.625 362.5,230.5C 362.5,229.833 362.5,229.167 362.5,228.5 Z M 363.5,239.5 C 364.902,239.264 366.402,238.93 368,238.5C 369.684,238.683 369.85,239.35 368.5,240.5C 369.434,241.568 369.768,242.901 369.5,244.5C 367.167,244.5 364.833,244.5 362.5,244.5C 361.489,242.598 361.322,240.598 362,238.5C 362.383,239.056 362.883,239.389 363.5,239.5 Z"/></g>
<g><path style="opacity:0.999" fill="#171717" d="M 382.5,225.5 C 383.167,225.5 383.833,225.5 384.5,225.5C 384.177,232.022 384.51,238.355 385.5,244.5C 387.792,244.756 389.959,244.423 392,243.5C 393.188,244.563 393.688,245.897 393.5,247.5C 389.833,247.5 386.167,247.5 382.5,247.5C 382.5,240.167 382.5,232.833 382.5,225.5 Z"/></g>
<g><path style="opacity:0.016" fill="#fefffe" d="M 298.5,227.5 C 299.833,228.167 299.833,228.167 298.5,227.5 Z"/></g>
<g><path style="opacity:0.008" fill="#fefffe" d="M 301.5,228.5 C 300.833,227.167 300.833,227.167 301.5,228.5 Z"/></g>
<g><path style="opacity:0.017" fill="#fdfdfd" d="M 412.5,225.5 C 413.239,225.369 413.906,225.536 414.5,226C 414.335,227.117 414.002,228.284 413.5,229.5C 411.539,230.689 411.206,230.355 412.5,228.5C 412.5,227.5 412.5,226.5 412.5,225.5 Z"/></g>
<g><path style="opacity:0.012" fill="#fefffe" d="M 56.5,229.5 C 55.8333,228.167 55.8333,228.167 56.5,229.5 Z"/></g>
<g><path style="opacity:1" fill="#121212" d="M 66.5,234.5 C 67.1922,238.891 68.1922,243.224 69.5,247.5C 68.8333,247.5 68.1667,247.5 67.5,247.5C 68.1782,242.869 66.1782,240.869 61.5,241.5C 56.6993,240.635 54.3659,242.635 54.5,247.5C 53.8333,247.5 53.1667,247.5 52.5,247.5C 53.1495,245.565 53.4828,243.565 53.5,241.5C 53.5,241.167 53.5,240.833 53.5,240.5C 55.6545,238.383 56.6545,235.716 56.5,232.5C 57.7182,230.27 59.2182,228.27 61,226.5C 61.772,226.645 62.4387,226.978 63,227.5C 63.5218,230.281 64.6885,232.615 66.5,234.5 Z M 61.5,236.5 C 60.788,237.739 59.788,238.239 58.5,238C 59.3366,236.989 59.67,235.822 59.5,234.5C 62.4574,232.975 63.1241,233.642 61.5,236.5 Z M 61.5,236.5 C 62.9063,236.973 63.573,237.973 63.5,239.5C 62.8333,239.5 62.1667,239.5 61.5,239.5C 61.5,238.5 61.5,237.5 61.5,236.5 Z"/></g>
<g><path style="opacity:0.064" fill="#f0f0f0" d="M 109.5,228.5 C 109.918,229.222 110.584,229.722 111.5,230C 109.885,235.728 108.885,241.561 108.5,247.5C 108.177,240.978 108.51,234.645 109.5,228.5 Z"/></g>
<g><path style="opacity:0.008" fill="#fefffe" d="M 153.5,228.5 C 153.833,228.5 154.167,228.5 154.5,228.5C 154.833,229.167 155.167,229.833 155.5,230.5C 154.788,231.739 153.788,232.239 152.5,232C 153.337,230.989 153.67,229.822 153.5,228.5 Z"/></g>
<g><path style="opacity:0.012" fill="#fefffe" d="M 280.5,228.5 C 281.833,229.167 281.833,229.167 280.5,228.5 Z"/></g>
<g><path style="opacity:0.02" fill="#fefffe" d="M 296.5,228.5 C 297.833,229.167 297.833,229.167 296.5,228.5 Z"/></g>
<g><path style="opacity:0.008" fill="#fefffe" d="M 301.5,228.5 C 302.833,229.167 302.833,229.167 301.5,228.5 Z"/></g>
<g><path style="opacity:0.497" fill="#949494" d="M 45.5,228.5 C 42.3157,226.586 38.649,225.92 34.5,226.5C 34.5,233.5 34.5,240.5 34.5,247.5C 33.7948,244.772 33.1281,241.939 32.5,239C 32.3675,235.75 32.7009,232.75 33.5,230C 32.6919,229.692 32.0253,229.192 31.5,228.5C 32.1925,227.482 32.8592,226.482 33.5,225.5C 37.5979,225.03 42.2646,225.03 47.5,225.5C 47.6567,226.873 47.49,228.207 47,229.5C 46.6174,228.944 46.1174,228.611 45.5,228.5 Z"/></g>
<g><path style="opacity:0.073" fill="#f1f1f1" d="M 104.5,228.5 C 105.49,234.645 105.823,240.978 105.5,247.5C 104.833,241.833 104.167,236.167 103.5,230.5C 103.5,230.167 103.5,229.833 103.5,229.5C 104.167,229.5 104.5,229.167 104.5,228.5 Z"/></g>
<g><path style="opacity:0.004" fill="#fefffe" d="M 114.5,229.5 C 115.833,230.167 115.833,230.167 114.5,229.5 Z"/></g>
<g><path style="opacity:0.597" fill="#9f9f9f" d="M 195.5,225.5 C 195.5,232.833 195.5,240.167 195.5,247.5C 194.235,246.486 193.569,244.986 193.5,243C 193.787,240.051 194.12,237.385 194.5,235C 193.833,234.667 193.167,234.333 192.5,234C 193.167,232 193.833,230 194.5,228C 193.117,226.539 193.451,225.706 195.5,225.5 Z"/></g>
<g><path style="opacity:0.004" fill="#fefffe" d="M 199.5,229.5 C 200.833,230.167 200.833,230.167 199.5,229.5 Z"/></g>
<g><path style="opacity:0.005" fill="#fefffe" d="M 203.5,230.5 C 203.631,231.376 203.298,232.043 202.5,232.5C 201.127,230.192 201.46,229.525 203.5,230.5 Z"/></g>
<g><path style="opacity:0.02" fill="#fefffe" d="M 203.5,229.5 C 204.833,230.167 204.833,230.167 203.5,229.5 Z"/></g>
<g><path style="opacity:0.004" fill="#fefffe" d="M 222.5,230.5 C 222.842,229.662 223.508,229.328 224.5,229.5C 224.5,229.833 224.5,230.167 224.5,230.5C 223.833,230.5 223.167,230.5 222.5,230.5 Z"/></g>
<g><path style="opacity:0.004" fill="#fefffe" d="M 226.5,229.5 C 227.833,230.167 227.833,230.167 226.5,229.5 Z"/></g>
<g><path style="opacity:0.02" fill="#fefffe" d="M 276.5,229.5 C 277.833,230.167 277.833,230.167 276.5,229.5 Z"/></g>
<g><path style="opacity:0.013" fill="#fefffe" d="M 404.5,230.5 C 404.5,230.167 404.5,229.833 404.5,229.5C 406.424,229.711 406.757,230.377 405.5,231.5C 405.5,230.833 405.167,230.5 404.5,230.5 Z"/></g>
<g><path style="opacity:0.004" fill="#fefffe" d="M 44.5,230.5 C 45.8333,231.167 45.8333,231.167 44.5,230.5 Z"/></g>
<g><path style="opacity:0.005" fill="#fefffe" d="M 85.5,231.5 C 85.5,231.833 85.5,232.167 85.5,232.5C 84.6236,232.631 83.9569,232.298 83.5,231.5C 83.9698,230.537 84.6365,230.537 85.5,231.5 Z"/></g>
<g><path style="opacity:0.251" fill="#d6d6d6" d="M 91.5,227.5 C 93.5382,228.856 93.8715,230.523 92.5,232.5C 92.1667,232.5 91.8333,232.5 91.5,232.5C 90.8333,231.167 90.1667,231.167 89.5,232.5C 88.5284,230.507 87.1951,230.174 85.5,231.5C 85.4431,230.391 85.1098,229.391 84.5,228.5C 85.5,228.5 86.5,228.5 87.5,228.5C 87.8333,229.833 88.1667,229.833 88.5,228.5C 90.3059,231.338 91.3059,231.005 91.5,227.5 Z"/></g>
<g><path style="opacity:0.004" fill="#fefffe" d="M 100.5,230.5 C 101.833,231.167 101.833,231.167 100.5,230.5 Z"/></g>
<g><path style="opacity:0.004" fill="#fefffe" d="M 103.5,230.5 C 102.833,231.167 102.833,231.167 103.5,230.5 Z"/></g>
<g><path style="opacity:0.012" fill="#fefffe" d="M 112.5,230.5 C 113.833,231.167 113.833,231.167 112.5,230.5 Z"/></g>
<g><path style="opacity:0.504" fill="#8a8a8a" d="M 150.5,228.5 C 150.5,229.167 150.833,229.5 151.5,229.5C 150.699,231.042 150.366,232.708 150.5,234.5C 153.713,234.19 156.713,234.523 159.5,235.5C 156.167,235.5 152.833,235.5 149.5,235.5C 149.198,232.941 149.532,230.607 150.5,228.5 Z"/></g>
<g><path style="opacity:0.011" fill="#f7f7f7" d="M 161.5,227.5 C 162.434,228.568 162.768,229.901 162.5,231.5C 160.901,231.232 159.568,231.566 158.5,232.5C 157.29,232.068 156.29,231.401 155.5,230.5C 157.698,230.591 158.031,229.925 156.5,228.5C 158.011,229.502 159.678,230.169 161.5,230.5C 161.5,229.5 161.5,228.5 161.5,227.5 Z"/></g>
<g><path style="opacity:0.024" fill="#fefffe" d="M 205.5,230.5 C 206.833,231.167 206.833,231.167 205.5,230.5 Z"/></g>
<g><path style="opacity:0.012" fill="#fefffe" d="M 222.5,230.5 C 221.833,231.167 221.833,231.167 222.5,230.5 Z"/></g>
<g><path style="opacity:0.012" fill="#fefffe" d="M 224.5,230.5 C 225.525,230.897 225.692,231.563 225,232.5C 224.536,231.906 224.369,231.239 224.5,230.5 Z"/></g>
<g><path style="opacity:0.219" fill="#d1d1d1" d="M 274.5,227.5 C 275.874,231.105 276.207,234.772 275.5,238.5C 274.5,238.5 273.5,238.5 272.5,238.5C 274.298,235.169 274.964,231.502 274.5,227.5 Z"/></g>
<g><path style="opacity:0.225" fill="#c6c6c6" d="M 358.5,225.5 C 358.5,232.833 358.5,240.167 358.5,247.5C 357.816,241.099 357.15,234.599 356.5,228C 357.066,227.005 357.733,226.172 358.5,225.5 Z"/></g>
<g><path style="opacity:0.23" fill="#c8c8c8" d="M 384.5,225.5 C 385.267,226.172 385.934,227.005 386.5,228C 385.648,233.135 385.315,238.635 385.5,244.5C 384.51,238.355 384.177,232.022 384.5,225.5 Z"/></g>
<g><path style="opacity:1" fill="#0b0b0b" d="M 411.5,228.5 C 410.833,229.167 410.167,229.833 409.5,230.5C 408.448,228.744 406.781,228.077 404.5,228.5C 402.656,230.279 401.99,232.612 402.5,235.5C 405.698,234.964 408.365,235.631 410.5,237.5C 407.833,237.5 405.167,237.5 402.5,237.5C 402.337,239.857 402.503,242.19 403,244.5C 406.254,244.838 409.088,245.838 411.5,247.5C 407.833,247.5 404.167,247.5 400.5,247.5C 400.5,240.5 400.5,233.5 400.5,226.5C 404.649,225.92 408.316,226.586 411.5,228.5 Z"/></g>
<g><path style="opacity:0.005" fill="#fefffe" d="M 409.5,230.5 C 409.728,232.355 409.061,233.188 407.5,233C 408.066,232.005 408.733,231.172 409.5,230.5 Z"/></g>
<g><path style="opacity:0.004" fill="#fefffe" d="M 42.5,232.5 C 41.8333,231.167 41.8333,231.167 42.5,232.5 Z"/></g>
<g><path style="opacity:0.147" fill="#d8d8d8" d="M 214.5,225.5 C 214.5,232.833 214.5,240.167 214.5,247.5C 213.816,241.099 213.15,234.599 212.5,228C 213.066,227.005 213.733,226.172 214.5,225.5 Z"/></g>
<g><path style="opacity:0.004" fill="#fefffe" d="M 243.5,231.5 C 244.833,232.167 244.833,232.167 243.5,231.5 Z"/></g>
<g><path style="opacity:0.227" fill="#acacac" d="M 307.5,244.5 C 306.833,238.654 306.167,232.654 305.5,226.5C 304.503,233.468 304.17,240.468 304.5,247.5C 303.181,240.323 303.181,232.99 304.5,225.5C 305.086,225.291 305.586,224.957 306,224.5C 306.956,225.579 307.789,226.745 308.5,228C 307.527,233.407 307.193,238.907 307.5,244.5 Z"/></g>
<g><path style="opacity:0.499" fill="#989898" d="M 324.5,247.5 C 323.833,219.5 323.167,219.5 322.5,247.5C 321.686,240.89 321.019,234.39 320.5,228C 321.211,226.745 322.044,225.579 323,224.5C 323.414,224.957 323.914,225.291 324.5,225.5C 325.819,232.99 325.819,240.323 324.5,247.5 Z"/></g>
<g><path style="opacity:1" fill="#010101" d="M 324.5,247.5 C 323.833,247.5 323.167,247.5 322.5,247.5C 323.167,219.5 323.833,219.5 324.5,247.5 Z"/></g>
<g><path style="opacity:0.008" fill="#d4d4d4" d="M 343.5,234.5 C 342.5,233.833 341.5,233.167 340.5,232.5C 340.5,231.833 340.5,231.167 340.5,230.5C 341.077,229.227 341.743,229.227 342.5,230.5C 343.246,231.736 343.579,233.07 343.5,234.5 Z"/></g>
<g><path style="opacity:0.497" fill="#828282" d="M 382.5,225.5 C 382.5,232.833 382.5,240.167 382.5,247.5C 381.818,240.432 381.151,233.266 380.5,226C 381.094,225.536 381.761,225.369 382.5,225.5 Z"/></g>
<g><path style="opacity:0.004" fill="#fefffe" d="M 389.5,231.5 C 390.833,232.167 390.833,232.167 389.5,231.5 Z"/></g>
<g><path style="opacity:0.004" fill="#fefffe" d="M 404.5,231.5 C 404.833,231.5 405.167,231.5 405.5,231.5C 405.167,234.167 404.833,234.167 404.5,231.5 Z"/></g>
<g><path style="opacity:0.027" fill="#fefffe" d="M 39.5,232.5 C 40.8333,233.167 40.8333,233.167 39.5,232.5 Z"/></g>
<g><path style="opacity:0.004" fill="#fefffe" d="M 42.5,232.5 C 43.8333,233.167 43.8333,233.167 42.5,232.5 Z"/></g>
<g><path style="opacity:0.004" fill="#fefffe" d="M 85.5,232.5 C 86.8333,233.167 86.8333,233.167 85.5,232.5 Z"/></g>
<g><path style="opacity:0.014" fill="#fefffe" d="M 89.5,232.5 C 90.1667,232.5 90.8333,232.5 91.5,232.5C 90.8333,233.833 90.1667,233.833 89.5,232.5 Z"/></g>
<g><path style="opacity:0.024" fill="#fefffe" d="M 92.5,232.5 C 93.8333,233.167 93.8333,233.167 92.5,232.5 Z"/></g>
<g><path style="opacity:0.225" fill="#cdcdcd" d="M 147.5,227.5 C 147.5,230.5 147.5,233.5 147.5,236.5C 146.659,234.068 145.659,231.568 144.5,229C 145.527,228.487 146.527,227.987 147.5,227.5 Z"/></g>
<g><path style="opacity:0.012" fill="#fefffe" d="M 155.5,232.5 C 156.833,233.167 156.833,233.167 155.5,232.5 Z"/></g>
<g><path style="opacity:0.01" fill="#fefffe" d="M 158.5,232.5 C 159.239,232.369 159.906,232.536 160.5,233C 159.563,233.692 158.897,233.525 158.5,232.5 Z"/></g>
<g><path style="opacity:0.004" fill="#fefffe" d="M 199.5,232.5 C 200.833,233.167 200.833,233.167 199.5,232.5 Z"/></g>
<g><path style="opacity:0.004" fill="#fefffe" d="M 281.5,232.5 C 282.833,233.167 282.833,233.167 281.5,232.5 Z"/></g>
<g><path style="opacity:0.004" fill="#fefffe" d="M 45.5,233.5 C 46.8333,234.167 46.8333,234.167 45.5,233.5 Z"/></g>
<g><path style="opacity:1" fill="#1e1e1e" d="M 195.5,225.5 C 199.833,225.5 204.167,225.5 208.5,225.5C 208.657,226.873 208.49,228.207 208,229.5C 205.531,228.853 202.698,228.52 199.5,228.5C 197.656,230.279 196.99,232.612 197.5,235.5C 200.698,234.964 203.365,235.631 205.5,237.5C 202.833,237.5 200.167,237.5 197.5,237.5C 197.5,240.833 197.5,244.167 197.5,247.5C 196.833,247.5 196.167,247.5 195.5,247.5C 195.5,240.167 195.5,232.833 195.5,225.5 Z"/></g>
<g><path style="opacity:1" fill="#212121" d="M 224.5,229.5 C 222.735,228.539 220.735,228.205 218.5,228.5C 216.656,230.279 215.99,232.612 216.5,235.5C 219.698,234.964 222.365,235.631 224.5,237.5C 222.167,237.5 219.833,237.5 217.5,237.5C 217.198,240.059 217.532,242.393 218.5,244.5C 221.572,244.183 224.572,244.516 227.5,245.5C 227.291,246.086 226.957,246.586 226.5,247C 222.514,247.499 218.514,247.666 214.5,247.5C 214.5,240.167 214.5,232.833 214.5,225.5C 218.437,225.793 222.27,225.46 226,224.5C 229.183,226.895 228.683,228.561 224.5,229.5 Z"/></g>
<g><path style="opacity:0.008" fill="#fefffe" d="M 348.5,233.5 C 349.833,234.167 349.833,234.167 348.5,233.5 Z"/></g>
<g><path style="opacity:0.455" fill="#ababab" d="M 37.5,228.5 C 37.3284,229.492 37.6618,230.158 38.5,230.5C 38.67,231.822 38.3366,232.989 37.5,234C 40.146,234.497 42.8127,234.664 45.5,234.5C 45.7373,235.791 45.404,236.791 44.5,237.5C 42.3647,235.631 39.6981,234.964 36.5,235.5C 36.1984,232.941 36.5318,230.607 37.5,228.5 Z"/></g>
<g><path style="opacity:0.494" fill="#a7a7a7" d="M 81.5,228.5 C 81.5,230.5 81.5,232.5 81.5,234.5C 84.5184,234.335 87.5184,234.502 90.5,235C 91.056,235.383 91.3893,235.883 91.5,236.5C 87.9009,235.656 84.2343,235.323 80.5,235.5C 80.1984,232.941 80.5318,230.607 81.5,228.5 Z"/></g>
<g><path style="opacity:0.465" fill="#aaaaaa" d="M 199.5,228.5 C 199.5,228.833 199.5,229.167 199.5,229.5C 198.549,230.919 198.216,232.585 198.5,234.5C 201.062,233.629 203.728,233.629 206.5,234.5C 206.737,235.791 206.404,236.791 205.5,237.5C 203.365,235.631 200.698,234.964 197.5,235.5C 196.99,232.612 197.656,230.279 199.5,228.5 Z"/></g>
<g><path style="opacity:0.461" fill="#a1a1a1" d="M 218.5,228.5 C 219.38,230.389 219.38,232.389 218.5,234.5C 220.833,234.5 223.167,234.5 225.5,234.5C 225.5,235.5 225.5,236.5 225.5,237.5C 225.167,237.5 224.833,237.5 224.5,237.5C 222.365,235.631 219.698,234.964 216.5,235.5C 215.99,232.612 216.656,230.279 218.5,228.5 Z"/></g>
<g><path style="opacity:0.492" fill="#909090" d="M 372.5,227.5 C 373.234,228.878 373.901,230.378 374.5,232C 373.536,233.725 372.869,235.559 372.5,237.5C 371.833,237.5 371.167,237.5 370.5,237.5C 370.389,236.883 370.056,236.383 369.5,236C 366.518,235.502 363.518,235.335 360.5,235.5C 359.99,232.612 360.656,230.279 362.5,228.5C 362.5,229.167 362.5,229.833 362.5,230.5C 361.986,231.625 361.653,232.791 361.5,234C 364.146,234.497 366.813,234.664 369.5,234.5C 369.5,232.5 369.5,230.5 369.5,228.5C 370.314,230.631 370.814,232.964 371,235.5C 372.375,233.063 372.875,230.397 372.5,227.5 Z M 362.5,228.5 C 363.167,228.833 363.833,229.167 364.5,229.5C 365.167,230.833 365.833,230.833 366.5,229.5C 367.391,228.89 368.391,228.557 369.5,228.5C 369.5,230.5 369.5,232.5 369.5,234.5C 366.813,234.664 364.146,234.497 361.5,234C 361.653,232.791 361.986,231.625 362.5,230.5C 362.5,229.833 362.5,229.167 362.5,228.5 Z"/></g>
<g><path style="opacity:0.478" fill="#9e9e9e" d="M 404.5,228.5 C 404.5,228.833 404.5,229.167 404.5,229.5C 403.167,229.833 403.167,230.167 404.5,230.5C 404.5,230.833 404.5,231.167 404.5,231.5C 403.596,232.209 403.263,233.209 403.5,234.5C 406.249,234.726 408.916,234.393 411.5,233.5C 411.906,234.557 411.906,235.891 411.5,237.5C 411.167,237.5 410.833,237.5 410.5,237.5C 408.365,235.631 405.698,234.964 402.5,235.5C 401.99,232.612 402.656,230.279 404.5,228.5 Z"/></g>
<g><path style="opacity:1" fill="#131313" d="M 45.5,228.5 C 44.6618,228.842 44.3284,229.508 44.5,230.5C 43.7784,230.082 43.2784,229.416 43,228.5C 42.7216,229.416 42.2216,230.082 41.5,230.5C 40.8166,228.824 39.4832,228.157 37.5,228.5C 36.5318,230.607 36.1984,232.941 36.5,235.5C 39.6981,234.964 42.3647,235.631 44.5,237.5C 41.8333,237.5 39.1667,237.5 36.5,237.5C 36.5,240.833 36.5,244.167 36.5,247.5C 35.8333,247.5 35.1667,247.5 34.5,247.5C 34.5,240.5 34.5,233.5 34.5,226.5C 38.649,225.92 42.3157,226.586 45.5,228.5 Z M 37.5,228.5 C 39.4832,228.157 40.8166,228.824 41.5,230.5C 40.2022,229.884 39.2022,229.884 38.5,230.5C 37.6618,230.158 37.3284,229.492 37.5,228.5 Z"/></g>
<g><path style="opacity:0.694" fill="#9b9b9b" d="M 56.5,232.5 C 56.6545,235.716 55.6545,238.383 53.5,240.5C 54.129,237.603 55.129,234.936 56.5,232.5 Z"/></g>
<g><path style="opacity:0.999" fill="#1c1c1c" d="M 159.5,226.5 C 160.492,226.328 161.158,226.662 161.5,227.5C 161.5,228.5 161.5,229.5 161.5,230.5C 159.678,230.169 158.011,229.502 156.5,228.5C 155.833,228.5 155.167,228.5 154.5,228.5C 154.167,228.5 153.833,228.5 153.5,228.5C 152.833,228.833 152.167,229.167 151.5,229.5C 150.833,229.5 150.5,229.167 150.5,228.5C 149.532,230.607 149.198,232.941 149.5,235.5C 152.833,235.5 156.167,235.5 159.5,235.5C 160.167,235.833 160.833,236.167 161.5,236.5C 161.5,239.5 161.5,242.5 161.5,245.5C 161.027,246.906 160.027,247.573 158.5,247.5C 155.5,247.5 152.5,247.5 149.5,247.5C 148.833,247.5 148.5,247.167 148.5,246.5C 146.825,244.544 147.158,243.211 149.5,242.5C 149.5,243.5 149.5,244.5 149.5,245.5C 152.5,245.5 155.5,245.5 158.5,245.5C 158.5,242.833 158.5,240.167 158.5,237.5C 155.5,237.5 152.5,237.5 149.5,237.5C 149.158,236.662 148.492,236.328 147.5,236.5C 147.5,233.5 147.5,230.5 147.5,227.5C 151.4,226.57 155.4,226.237 159.5,226.5 Z M 154.5,228.5 C 155.167,228.5 155.833,228.5 156.5,228.5C 158.031,229.925 157.698,230.591 155.5,230.5C 155.167,229.833 154.833,229.167 154.5,228.5 Z"/></g>
<g><path style="opacity:0.259" fill="#a9a9a9" d="M 263.5,228.5 C 263.577,229.75 264.244,230.583 265.5,231C 263.503,232.153 263.17,233.653 264.5,235.5C 266.727,234.947 269.061,234.947 271.5,235.5C 271.5,233.167 271.5,230.833 271.5,228.5C 272.473,230.948 272.806,233.615 272.5,236.5C 269.167,236.5 265.833,236.5 262.5,236.5C 262.194,233.615 262.527,230.948 263.5,228.5 Z M 263.5,228.5 C 266.068,229.232 268.734,229.232 271.5,228.5C 271.5,230.833 271.5,233.167 271.5,235.5C 269.061,234.947 266.727,234.947 264.5,235.5C 263.17,233.653 263.503,232.153 265.5,231C 264.244,230.583 263.577,229.75 263.5,228.5 Z"/></g>
<g><path style="opacity:1" fill="#111111" d="M 340.5,230.5 C 340.5,231.167 340.5,231.833 340.5,232.5C 339.136,234.22 338.136,236.22 337.5,238.5C 339.045,239.452 340.712,239.785 342.5,239.5C 342.833,239.5 343.167,239.5 343.5,239.5C 344.497,239.53 345.164,239.03 345.5,238C 344.591,236.211 344.424,234.377 345,232.5C 345.716,234.879 346.883,236.879 348.5,238.5C 348.66,240.199 348.494,241.866 348,243.5C 346.178,241.955 344.011,241.288 341.5,241.5C 336.822,240.869 334.822,242.869 335.5,247.5C 334.833,247.5 334.167,247.5 333.5,247.5C 334.374,244.211 335.041,240.877 335.5,237.5C 335.5,237.167 335.5,236.833 335.5,236.5C 336.709,234.059 338.376,232.059 340.5,230.5 Z M 340.5,232.5 C 341.5,233.167 342.5,233.833 343.5,234.5C 344.071,236.36 344.071,238.027 343.5,239.5C 343.167,239.5 342.833,239.5 342.5,239.5C 339.375,238.9 339.042,237.733 341.5,236C 340.663,234.989 340.33,233.822 340.5,232.5 Z"/></g>
<g><path style="opacity:0.008" fill="#d7d7d7" d="M 340.5,232.5 C 340.33,233.822 340.663,234.989 341.5,236C 339.042,237.733 339.375,238.9 342.5,239.5C 340.712,239.785 339.045,239.452 337.5,238.5C 338.136,236.22 339.136,234.22 340.5,232.5 Z"/></g>
<g><path style="opacity:0.014" fill="#e5e5e5" d="M 147.5,236.5 C 148.492,236.328 149.158,236.662 149.5,237.5C 148.033,240.258 147.367,239.925 147.5,236.5 Z"/></g>
<g><path style="opacity:1" fill="#2d2d2d" d="M 183.5,234.5 C 185.141,238.4 186.808,242.4 188.5,246.5C 186.955,247.452 185.288,247.785 183.5,247.5C 183.5,246.5 183.5,245.5 183.5,244.5C 183.586,243.504 183.252,242.671 182.5,242C 179.5,241.333 176.5,241.333 173.5,242C 172.139,243.584 171.472,245.418 171.5,247.5C 170.5,247.5 169.5,247.5 168.5,247.5C 169.234,246.292 169.567,244.959 169.5,243.5C 171.99,240.374 173.323,236.708 173.5,232.5C 173.402,230.447 174.069,228.78 175.5,227.5C 176.738,226.588 178.072,226.421 179.5,227C 180.378,229.849 181.711,232.349 183.5,234.5 Z M 178.5,233.5 C 179.338,233.842 179.672,234.508 179.5,235.5C 179.833,235.5 180.167,235.5 180.5,235.5C 180.657,236.873 180.49,238.207 180,239.5C 178.549,239.264 177.049,239.264 175.5,239.5C 175.75,237.059 176.75,235.059 178.5,233.5 Z"/></g>
<g><path style="opacity:0.008" fill="#fefffe" d="M 179.5,235.5 C 179.483,237.028 178.816,237.528 177.5,237C 178.044,236.283 178.711,235.783 179.5,235.5 Z"/></g>
<g><path style="opacity:0.176" fill="#c2c2c2" d="M 180.5,235.5 C 180.167,235.5 179.833,235.5 179.5,235.5C 179.672,234.508 179.338,233.842 178.5,233.5C 176.75,235.059 175.75,237.059 175.5,239.5C 174.91,236.048 175.743,232.715 178,229.5C 179.663,231.158 180.496,233.158 180.5,235.5 Z"/></g>
<g><path style="opacity:0.004" fill="#fefffe" d="M 8.5,237.5 C 9.83333,238.167 9.83333,238.167 8.5,237.5 Z"/></g>
<g><path style="opacity:0.282" fill="#cecece" d="M 59.5,234.5 C 59.67,235.822 59.3366,236.989 58.5,238C 59.788,238.239 60.788,237.739 61.5,236.5C 61.5,237.5 61.5,238.5 61.5,239.5C 60.1667,239.5 58.8333,239.5 57.5,239.5C 57.4021,237.447 58.0687,235.78 59.5,234.5 Z"/></g>
<g><path style="opacity:0.016" fill="#fefffe" d="M 225.5,237.5 C 226.833,238.167 226.833,238.167 225.5,237.5 Z"/></g>
<g><path style="opacity:0.008" fill="#fefffe" d="M 280.5,237.5 C 281.833,238.167 281.833,238.167 280.5,237.5 Z"/></g>
<g><path style="opacity:0.065" fill="#cccccc" d="M 290.5,228.5 C 289.791,229.404 288.791,229.737 287.5,229.5C 287.5,231.167 287.5,232.833 287.5,234.5C 290.167,234.5 292.833,234.5 295.5,234.5C 295.567,235.959 295.234,237.292 294.5,238.5C 292.253,238.921 290.087,238.921 288,238.5C 287.505,240.473 287.338,242.473 287.5,244.5C 286.532,242.393 286.198,240.059 286.5,237.5C 295.833,236.833 295.833,236.167 286.5,235.5C 286.5,233.167 286.5,230.833 286.5,228.5C 287.833,228.5 289.167,228.5 290.5,228.5 Z"/></g>
<g><path style="opacity:0.004" fill="#fefffe" d="M 411.5,237.5 C 412.833,238.167 412.833,238.167 411.5,237.5 Z"/></g>
<g><path style="opacity:0.227" fill="#d1d1d1" d="M 44.5,237.5 C 43.0655,239.378 41.3989,240.045 39.5,239.5C 39.44,238.957 39.1067,238.624 38.5,238.5C 37.8326,241.642 37.166,244.642 36.5,247.5C 36.5,244.167 36.5,240.833 36.5,237.5C 39.1667,237.5 41.8333,237.5 44.5,237.5 Z"/></g>
<g><path style="opacity:0.027" fill="#dadada" d="M 63.5,239.5 C 63.573,237.973 62.9063,236.973 61.5,236.5C 63.1241,233.642 62.4574,232.975 59.5,234.5C 59.2627,233.209 59.596,232.209 60.5,231.5C 61.2481,229.265 62.0814,229.598 63,232.5C 64.3923,234.941 64.559,237.274 63.5,239.5 Z"/></g>
<g><path style="opacity:0.918" fill="#898989" d="M 66.5,234.5 C 68.1411,238.4 69.8078,242.4 71.5,246.5C 71.0431,247.298 70.3764,247.631 69.5,247.5C 68.1922,243.224 67.1922,238.891 66.5,234.5 Z"/></g>
<g><path style="opacity:0.012" fill="#fefffe" d="M 77.5,238.5 C 78.8333,239.167 78.8333,239.167 77.5,238.5 Z"/></g>
<g><path style="opacity:0.004" fill="#fefffe" d="M 114.5,238.5 C 115.833,239.167 115.833,239.167 114.5,238.5 Z"/></g>
<g><path style="opacity:0.733" fill="#939393" d="M 173.5,232.5 C 173.323,236.708 171.99,240.374 169.5,243.5C 169.598,242.118 169.598,240.618 169.5,239C 171.05,236.928 172.383,234.761 173.5,232.5 Z"/></g>
<g><path style="opacity:0.144" fill="#dadada" d="M 205.5,237.5 C 203.393,238.468 201.059,238.802 198.5,238.5C 198.81,241.713 198.477,244.713 197.5,247.5C 197.5,244.167 197.5,240.833 197.5,237.5C 200.167,237.5 202.833,237.5 205.5,237.5 Z"/></g>
<g><path style="opacity:0.018" fill="#f7f7f7" d="M 224.5,237.5 C 224.5,237.833 224.5,238.167 224.5,238.5C 222.473,238.338 220.473,238.505 218.5,239C 218.649,240.816 218.649,242.649 218.5,244.5C 217.532,242.393 217.198,240.059 217.5,237.5C 219.833,237.5 222.167,237.5 224.5,237.5 Z"/></g>
<g><path style="opacity:0.012" fill="#fefffe" d="M 224.5,238.5 C 224.833,238.5 225.167,238.5 225.5,238.5C 225.315,239.17 224.981,239.17 224.5,238.5 Z"/></g>
<g><path style="opacity:0.004" fill="#fefffe" d="M 294.5,238.5 C 295.833,239.167 295.833,239.167 294.5,238.5 Z"/></g>
<g><path style="opacity:0.016" fill="#fefffe" d="M 410.5,238.5 C 410.833,238.5 411.167,238.5 411.5,238.5C 411.315,239.17 410.981,239.17 410.5,238.5 Z"/></g>
<g><path style="opacity:0.004" fill="#fefffe" d="M 39.5,239.5 C 38.8333,240.167 38.8333,240.167 39.5,239.5 Z"/></g>
<g><path style="opacity:0.016" fill="#fefffe" d="M 81.5,239.5 C 80.8333,240.167 80.8333,240.167 81.5,239.5 Z"/></g>
<g><path style="opacity:0.491" fill="#a5a5a5" d="M 269.5,242.5 C 268.222,242.218 267.222,241.551 266.5,240.5C 265.791,239.596 264.791,239.263 263.5,239.5C 263.806,242.385 263.473,245.052 262.5,247.5C 262.5,244.5 262.5,241.5 262.5,238.5C 264.604,238.201 266.604,238.534 268.5,239.5C 269.127,240.417 269.461,241.417 269.5,242.5 Z"/></g>
<g><path style="opacity:0.004" fill="#fefffe" d="M 274.5,239.5 C 275.833,240.167 275.833,240.167 274.5,239.5 Z"/></g>
<g><path style="opacity:0.492" fill="#a8a8a8" d="M 370.5,237.5 C 370.802,240.059 370.468,242.393 369.5,244.5C 369.768,242.901 369.434,241.568 368.5,240.5C 369.85,239.35 369.684,238.683 368,238.5C 366.402,238.93 364.902,239.264 363.5,239.5C 362.883,239.389 362.383,239.056 362,238.5C 361.322,240.598 361.489,242.598 362.5,244.5C 360.656,242.721 359.99,240.388 360.5,237.5C 363.833,237.5 367.167,237.5 370.5,237.5 Z M 363.5,239.5 C 364.902,239.264 366.402,238.93 368,238.5C 369.684,238.683 369.85,239.35 368.5,240.5C 369.434,241.568 369.768,242.901 369.5,244.5C 367.167,244.5 364.833,244.5 362.5,244.5C 361.489,242.598 361.322,240.598 362,238.5C 362.383,239.056 362.883,239.389 363.5,239.5 Z"/></g>
<g><path style="opacity:0.012" fill="#fefffe" d="M 410.5,239.5 C 409.833,240.167 409.833,240.167 410.5,239.5 Z"/></g>
<g><path style="opacity:0.008" fill="#fefffe" d="M 82.5,240.5 C 83.8333,241.167 83.8333,241.167 82.5,240.5 Z"/></g>
<g><path style="opacity:0.013" fill="#fefffe" d="M 86.5,240.5 C 86.1667,241.167 85.8333,241.833 85.5,242.5C 84.2426,241.377 84.5759,240.711 86.5,240.5 Z"/></g>
<g><path style="opacity:0.012" fill="#fefffe" d="M 123.5,240.5 C 124.833,241.167 124.833,241.167 123.5,240.5 Z"/></g>
<g><path style="opacity:0.012" fill="#fefffe" d="M 146.5,241.5 C 145.833,240.167 145.833,240.167 146.5,241.5 Z"/></g>
<g><path style="opacity:0.232" fill="#aaaaaa" d="M 272.5,226.5 C 268.5,226.5 264.5,226.5 260.5,226.5C 260.5,233.5 260.5,240.5 260.5,247.5C 259.817,240.766 259.15,233.932 258.5,227C 259.354,225.978 260.354,225.145 261.5,224.5C 263.648,225.758 265.815,225.758 268,224.5C 269.728,224.899 271.228,225.566 272.5,226.5 Z"/></g>
<g><path style="opacity:0.007" fill="#fefffe" d="M 266.5,240.5 C 266.361,242.337 265.694,242.67 264.5,241.5C 264.957,240.702 265.624,240.369 266.5,240.5 Z"/></g>
<g><path style="opacity:0.016" fill="#fefffe" d="M 406.5,241.5 C 405.761,241.631 405.094,241.464 404.5,241C 405.437,240.308 406.103,240.475 406.5,241.5 Z"/></g>
<g><path style="opacity:0.008" fill="#fefffe" d="M 408.5,241.5 C 407.833,240.167 407.833,240.167 408.5,241.5 Z"/></g>
<g><path style="opacity:0.008" fill="#fefffe" d="M 411.5,240.5 C 412.833,241.167 412.833,241.167 411.5,240.5 Z"/></g>
<g><path style="opacity:0.737" fill="#828282" d="M 67.5,247.5 C 67.2165,245.559 65.8832,243.893 63.5,242.5C 62.8076,243.025 62.3076,243.692 62,244.5C 60.7303,242.422 59.2303,242.088 57.5,243.5C 56.5,244.833 55.5,246.167 54.5,247.5C 54.3659,242.635 56.6993,240.635 61.5,241.5C 66.1782,240.869 68.1782,242.869 67.5,247.5 Z"/></g>
<g><path style="opacity:0.736" fill="#969696" d="M 183.5,244.5 C 182.542,244.047 181.708,243.381 181,242.5C 180.536,243.094 180.369,243.761 180.5,244.5C 178.009,242.388 175.676,242.222 173.5,244C 173.833,244.333 174.167,244.667 174.5,245C 173.309,245.698 172.309,246.531 171.5,247.5C 171.472,245.418 172.139,243.584 173.5,242C 176.5,241.333 179.5,241.333 182.5,242C 183.252,242.671 183.586,243.504 183.5,244.5 Z"/></g>
<g><path style="opacity:0.004" fill="#fefffe" d="M 220.5,241.5 C 221.833,242.167 221.833,242.167 220.5,241.5 Z"/></g>
<g><path style="opacity:0.004" fill="#fefffe" d="M 275.5,241.5 C 276.833,242.167 276.833,242.167 275.5,241.5 Z"/></g>
<g><path style="opacity:0.004" fill="#fefffe" d="M 288.5,242.5 C 289.601,241.402 290.934,241.235 292.5,242C 291.207,242.49 289.873,242.657 288.5,242.5 Z"/></g>
<g><path style="opacity:0.004" fill="#fefffe" d="M 301.5,241.5 C 302.833,242.167 302.833,242.167 301.5,241.5 Z"/></g>
<g><path style="opacity:0.725" fill="#777777" d="M 348.5,238.5 C 350.072,241.215 351.072,244.215 351.5,247.5C 348.05,248.244 346.384,246.91 346.5,243.5C 344.167,242.167 341.833,242.167 339.5,243.5C 339.44,242.957 339.107,242.624 338.5,242.5C 337.304,244.145 336.304,245.811 335.5,247.5C 334.822,242.869 336.822,240.869 341.5,241.5C 344.011,241.288 346.178,241.955 348,243.5C 348.494,241.866 348.66,240.199 348.5,238.5 Z"/></g>
<g><path style="opacity:0.006" fill="#fefffe" d="M 406.5,241.5 C 406.833,241.5 407.167,241.5 407.5,241.5C 407.167,244.167 406.833,244.167 406.5,241.5 Z"/></g>
<g><path style="opacity:0.012" fill="#fefffe" d="M 408.5,241.5 C 409.492,241.328 410.158,241.662 410.5,242.5C 409.508,242.672 408.842,242.338 408.5,241.5 Z"/></g>
<g><path style="opacity:0.012" fill="#fefffe" d="M 72.5,242.5 C 73.8333,243.167 73.8333,243.167 72.5,242.5 Z"/></g>
<g><path style="opacity:0.498" fill="#b2b2b2" d="M 149.5,240.5 C 149.5,241.167 149.5,241.833 149.5,242.5C 147.158,243.211 146.825,244.544 148.5,246.5C 147.833,246.5 147.167,246.5 146.5,246.5C 145.929,245.027 145.929,243.36 146.5,241.5C 147.609,241.443 148.609,241.11 149.5,240.5 Z"/></g>
<g><path style="opacity:0.067" fill="#c4c4c4" d="M 149.5,237.5 C 152.5,237.5 155.5,237.5 158.5,237.5C 158.5,240.167 158.5,242.833 158.5,245.5C 155.5,245.5 152.5,245.5 149.5,245.5C 149.5,244.5 149.5,243.5 149.5,242.5C 151.866,244.546 154.533,244.879 157.5,243.5C 156.359,242.575 156.359,241.741 157.5,241C 156.167,240.333 154.833,239.667 153.5,239C 151.807,238.516 150.473,239.016 149.5,240.5C 149.5,239.5 149.5,238.5 149.5,237.5 Z"/></g>
<g><path style="opacity:0.047" fill="#e9e9e9" d="M 161.5,236.5 C 163.433,239.322 163.433,242.322 161.5,245.5C 161.5,242.5 161.5,239.5 161.5,236.5 Z"/></g>
<g><path style="opacity:0.012" fill="#fefffe" d="M 222.5,243.5 C 222.897,242.475 223.563,242.308 224.5,243C 223.906,243.464 223.239,243.631 222.5,243.5 Z"/></g>
<g><path style="opacity:0.012" fill="#fefffe" d="M 296.5,242.5 C 297.833,243.167 297.833,243.167 296.5,242.5 Z"/></g>
<g><path style="opacity:0.012" fill="#fefffe" d="M 301.5,242.5 C 300.833,243.167 300.833,243.167 301.5,242.5 Z"/></g>
<g><path style="opacity:0.239" fill="#c6c6c6" d="M 372.5,237.5 C 374.714,240.044 374.714,242.711 372.5,245.5C 372.5,242.833 372.5,240.167 372.5,237.5 Z"/></g>
<g><path style="opacity:0.008" fill="#fefffe" d="M 386.5,242.5 C 387.833,243.167 387.833,243.167 386.5,242.5 Z"/></g>
<g><path style="opacity:0.008" fill="#fefffe" d="M 404.5,242.5 C 405.833,243.167 405.833,243.167 404.5,242.5 Z"/></g>
<g><path style="opacity:0.004" fill="#fefffe" d="M 410.5,242.5 C 411.833,243.167 411.833,243.167 410.5,242.5 Z"/></g>
<g><path style="opacity:0.013" fill="#fefffe" d="M 57.5,243.5 C 60.0009,243.511 60.1676,244.178 58,245.5C 57.5357,244.906 57.369,244.239 57.5,243.5 Z"/></g>
<g><path style="opacity:0.369" fill="#b2b2b2" d="M 91.5,236.5 C 92.6408,239.64 92.8075,242.973 92,246.5C 91.3292,247.252 90.4959,247.586 89.5,247.5C 91.3236,244.154 91.9903,240.487 91.5,236.5 Z"/></g>
<g><path style="opacity:0.353" fill="#b9b9b9" d="M 125.5,248.5 C 125.286,246.856 125.62,245.356 126.5,244C 125.207,243.51 123.873,243.343 122.5,243.5C 122.187,247.042 122.521,250.375 123.5,253.5C 123.44,254.043 123.107,254.376 122.5,254.5C 121.824,253.398 121.158,252.398 120.5,251.5C 120.5,251.167 120.5,250.833 120.5,250.5C 120.562,248.438 120.562,246.272 120.5,244C 121.126,243.25 121.626,242.416 122,241.5C 123.699,242.406 125.533,242.739 127.5,242.5C 127.405,244.786 126.738,246.786 125.5,248.5 Z"/></g>
<g><path style="opacity:1" fill="#2d2d2d" d="M 125.5,248.5 C 125.598,250.553 124.931,252.22 123.5,253.5C 122.521,250.375 122.187,247.042 122.5,243.5C 123.873,243.343 125.207,243.51 126.5,244C 125.62,245.356 125.286,246.856 125.5,248.5 Z"/></g>
<g><path style="opacity:0.004" fill="#fefffe" d="M 232.5,243.5 C 233.525,243.897 233.692,244.563 233,245.5C 232.536,244.906 232.369,244.239 232.5,243.5 Z"/></g>
<g><path style="opacity:1" fill="#6a6a6a" d="M 272.5,238.5 C 273.365,241.375 274.698,244.042 276.5,246.5C 275.667,246.833 274.833,247.167 274,247.5C 272.393,246.926 270.893,246.26 269.5,245.5C 269.5,244.5 269.5,243.5 269.5,242.5C 270.117,242.611 270.617,242.944 271,243.5C 271.198,241.618 271.698,239.952 272.5,238.5 Z"/></g>
<g><path style="opacity:0.925" fill="#666666" d="M 335.5,237.5 C 335.041,240.877 334.374,244.211 333.5,247.5C 332.624,247.631 331.957,247.298 331.5,246.5C 332.469,243.231 333.802,240.231 335.5,237.5 Z"/></g>
<g><path style="opacity:0.012" fill="#fefffe" d="M 339.5,243.5 C 338.833,244.167 338.833,244.167 339.5,243.5 Z"/></g>
<g><path style="opacity:0.49" fill="#9d9d9d" d="M 78.5,236.5 C 82.0991,237.344 85.7657,237.677 89.5,237.5C 89.5,240.167 89.5,242.833 89.5,245.5C 86.1667,245.5 82.8333,245.5 79.5,245.5C 79.7148,243.821 79.0481,242.821 77.5,242.5C 77.7352,241.903 78.2352,241.57 79,241.5C 80.5456,243.241 82.5456,244.241 85,244.5C 86.1667,244.333 87.3333,244.167 88.5,244C 87.2625,243.768 86.2625,243.268 85.5,242.5C 88.8531,242.655 89.1864,241.988 86.5,240.5C 86.631,239.761 86.4643,239.094 86,238.5C 84.5707,238.47 83.0707,238.803 81.5,239.5C 80.3065,238.728 79.3065,237.728 78.5,236.5 Z"/></g>
<g><path style="opacity:0.016" fill="#fefffe" d="M 180.5,244.5 C 181.833,245.167 181.833,245.167 180.5,244.5 Z"/></g>
<g><path style="opacity:0.004" fill="#fefffe" d="M 300.5,244.5 C 301.833,245.167 301.833,245.167 300.5,244.5 Z"/></g>
<g><path style="opacity:0.004" fill="#fefffe" d="M 329.5,244.5 C 330.833,245.167 330.833,245.167 329.5,244.5 Z"/></g>
<g><path style="opacity:0.008" fill="#fefffe" d="M 344.5,244.5 C 345.833,245.167 345.833,245.167 344.5,244.5 Z"/></g>
<g><path style="opacity:0.004" fill="#fefffe" d="M 62.5,245.5 C 63.8333,246.167 63.8333,246.167 62.5,245.5 Z"/></g>
<g><path style="opacity:0.004" fill="#fefffe" d="M 72.5,245.5 C 73.8333,246.167 73.8333,246.167 72.5,245.5 Z"/></g>
<g><path style="opacity:0.012" fill="#fefffe" d="M 93.5,245.5 C 94.8333,246.167 94.8333,246.167 93.5,245.5 Z"/></g>
<g><path style="opacity:0.016" fill="#f0f0f0" d="M 169.5,243.5 C 169.567,244.959 169.234,246.292 168.5,247.5C 167.529,246.038 167.862,244.705 169.5,243.5 Z"/></g>
<g><path style="opacity:0.004" fill="#fefffe" d="M 251.5,245.5 C 252.833,246.167 252.833,246.167 251.5,245.5 Z"/></g>
<g><path style="opacity:0.004" fill="#fefffe" d="M 269.5,245.5 C 268.833,246.167 268.833,246.167 269.5,245.5 Z"/></g>
<g><path style="opacity:0.749" fill="#7f7f7f" d="M 410.5,237.5 C 410.5,237.833 410.5,238.167 410.5,238.5C 408.248,239.333 406.081,239.333 404,238.5C 403.22,240.387 403.387,242.054 404.5,243.5C 407.388,243.448 410.388,243.781 413.5,244.5C 413.715,246.179 413.048,247.179 411.5,247.5C 409.088,245.838 406.254,244.838 403,244.5C 402.503,242.19 402.337,239.857 402.5,237.5C 405.167,237.5 407.833,237.5 410.5,237.5 Z"/></g>
<g><path style="opacity:0.624" fill="#969696" d="M 53.5,241.5 C 53.4828,243.565 53.1495,245.565 52.5,247.5C 51.7611,247.631 51.0944,247.464 50.5,247C 51.2291,244.942 52.2291,243.109 53.5,241.5 Z"/></g>
<g><path style="opacity:0.004" fill="#fefffe" d="M 75.5,246.5 C 74.8333,247.167 74.8333,247.167 75.5,246.5 Z"/></g>
<g><path style="opacity:0.008" fill="#fefffe" d="M 146.5,246.5 C 145.833,247.167 145.833,247.167 146.5,246.5 Z"/></g>
<g><path style="opacity:0.363" fill="#adadad" d="M 237.5,251.5 C 236.324,255.271 234.99,255.104 233.5,251C 234.147,248.531 234.48,245.698 234.5,242.5C 236.5,242.5 238.5,242.5 240.5,242.5C 240.072,245.785 239.072,248.785 237.5,251.5 Z"/></g>
<g><path style="opacity:0.999" fill="#141414" d="M 237.5,251.5 C 236.883,251.611 236.383,251.944 236,252.5C 235.502,249.518 235.335,246.518 235.5,243.5C 236.873,243.343 238.207,243.51 239.5,244C 238.133,246.301 237.466,248.801 237.5,251.5 Z"/></g>
<g><path style="opacity:0.008" fill="#fefffe" d="M 277.5,246.5 C 278.833,247.167 278.833,247.167 277.5,246.5 Z"/></g>
<g><path style="opacity:0.018" fill="#d9d9d9" d="M 372.5,245.5 C 372.179,247.048 371.179,247.715 369.5,247.5C 370.29,246.599 371.29,245.932 372.5,245.5 Z"/></g>
<g><path style="opacity:0.073" fill="#edeeee" d="M 77.5,242.5 C 77.3505,243.552 77.5172,244.552 78,245.5C 81.5828,247.29 85.4161,247.957 89.5,247.5C 89.189,248.478 88.5223,249.145 87.5,249.5C 85.9579,248.253 84.4579,248.253 83,249.5C 80.5501,248.358 78.0501,247.358 75.5,246.5C 76.9526,245.175 76.6192,244.342 74.5,244C 75.5266,243.487 76.5266,242.987 77.5,242.5 Z"/></g>
<g><path style="opacity:0.063" fill="#f1f1f1" d="M 149.5,247.5 C 152.5,247.5 155.5,247.5 158.5,247.5C 156.107,248.21 153.607,248.877 151,249.5C 150.283,248.956 149.783,248.289 149.5,247.5 Z"/></g>
<g><path style="opacity:0.004" fill="#fefffe" d="M 100.5,248.5 C 101.833,249.167 101.833,249.167 100.5,248.5 Z"/></g>
<g><path style="opacity:0.016" fill="#fefffe" d="M 120.5,250.5 C 119.833,249.167 119.833,249.167 120.5,250.5 Z"/></g>
<g><path style="opacity:0.012" fill="#fefffe" d="M 120.5,251.5 C 119.833,252.167 119.833,252.167 120.5,251.5 Z"/></g>
<g><path style="opacity:0.004" fill="#fefffe" d="M 340.5,259.5 C 339.833,258.167 339.833,258.167 340.5,259.5 Z"/></g>
<g><path style="opacity:0.004" fill="#fefffe" d="M 340.5,259.5 C 341.833,260.167 341.833,260.167 340.5,259.5 Z"/></g>
<g><path style="opacity:0.004" fill="#fefffe" d="M 283.5,260.5 C 284.833,261.167 284.833,261.167 283.5,260.5 Z"/></g>
<g><path style="opacity:0.004" fill="#fefffe" d="M 423.5,261.5 C 424.833,262.167 424.833,262.167 423.5,261.5 Z"/></g>
<g><path style="opacity:0.004" fill="#fefffe" d="M 364.5,263.5 C 365.833,264.167 365.833,264.167 364.5,263.5 Z"/></g>
<g><path style="opacity:0.004" fill="#fefffe" d="M 413.5,264.5 C 414.833,265.167 414.833,265.167 413.5,264.5 Z"/></g>
<g><path style="opacity:0.004" fill="#fefffe" d="M 250.5,266.5 C 251.833,267.167 251.833,267.167 250.5,266.5 Z"/></g>
<g><path style="opacity:0.004" fill="#fefffe" d="M 126.5,270.5 C 127.833,271.167 127.833,271.167 126.5,270.5 Z"/></g>
<g><path style="opacity:0.004" fill="#fefffe" d="M 153.5,270.5 C 154.833,271.167 154.833,271.167 153.5,270.5 Z"/></g>
<g><path style="opacity:0.004" fill="#fefffe" d="M 425.5,275.5 C 426.833,276.167 426.833,276.167 425.5,275.5 Z"/></g>
<g><path style="opacity:0.004" fill="#fefffe" d="M 179.5,278.5 C 180.833,279.167 180.833,279.167 179.5,278.5 Z"/></g>
<g><path style="opacity:0.004" fill="#fefffe" d="M 13.5,280.5 C 14.8333,281.167 14.8333,281.167 13.5,280.5 Z"/></g>
<g><path style="opacity:0.004" fill="#fefffe" d="M 326.5,283.5 C 327.833,284.167 327.833,284.167 326.5,283.5 Z"/></g>
<g><path style="opacity:0.004" fill="#fefffe" d="M 358.5,284.5 C 359.833,285.167 359.833,285.167 358.5,284.5 Z"/></g>
<g><path style="opacity:0.004" fill="#fefffe" d="M 353.5,295.5 C 354.833,296.167 354.833,296.167 353.5,295.5 Z"/></g>
<g><path style="opacity:0.004" fill="#fefffe" d="M 181.5,298.5 C 182.833,299.167 182.833,299.167 181.5,298.5 Z"/></g>
<g><path style="opacity:0.004" fill="#fefffe" d="M 35.5,307.5 C 36.8333,308.167 36.8333,308.167 35.5,307.5 Z"/></g>
<g><path style="opacity:0.004" fill="#fefffe" d="M 65.5,308.5 C 66.8333,309.167 66.8333,309.167 65.5,308.5 Z"/></g>
<g><path style="opacity:0.004" fill="#fefffe" d="M 132.5,308.5 C 133.833,309.167 133.833,309.167 132.5,308.5 Z"/></g>
<g><path style="opacity:0.004" fill="#fefffe" d="M 287.5,308.5 C 288.833,309.167 288.833,309.167 287.5,308.5 Z"/></g>
<g><path style="opacity:0.004" fill="#fefffe" d="M 123.5,315.5 C 124.833,316.167 124.833,316.167 123.5,315.5 Z"/></g>
<g><path style="opacity:0.004" fill="#fefffe" d="M 398.5,315.5 C 399.833,316.167 399.833,316.167 398.5,315.5 Z"/></g>
<g><path style="opacity:0.004" fill="#fefffe" d="M 279.5,321.5 C 280.833,322.167 280.833,322.167 279.5,321.5 Z"/></g>
<g><path style="opacity:0.004" fill="#fefffe" d="M 19.5,324.5 C 20.8333,325.167 20.8333,325.167 19.5,324.5 Z"/></g>
</svg>
