<?xml version="1.0" encoding="UTF-8"?>
<!DOCTYPE svg PUBLIC "-//W3C//DTD SVG 1.1//EN" "http://www.w3.org/Graphics/SVG/1.1/DTD/svg11.dtd">
<svg xmlns="http://www.w3.org/2000/svg" version="1.1" width="1200px" height="1200px" style="shape-rendering:geometricPrecision; text-rendering:geometricPrecision; image-rendering:optimizeQuality; fill-rule:evenodd; clip-rule:evenodd" xmlns:xlink="http://www.w3.org/1999/xlink">
<g><path style="opacity:0.92" fill="#434343" d="M 312.5,478.5 C 333.463,481.023 354.463,481.023 375.5,478.5C 391.382,478.375 406.382,481.875 420.5,489C 428.762,496.384 436.928,503.884 445,511.5C 452.116,524.495 453.449,538.162 449,552.5C 443.003,566.158 432.836,575.324 418.5,580C 430.028,596.028 441.361,612.195 452.5,628.5C 453.376,629.251 454.376,629.751 455.5,630C 462.833,630.667 470.167,630.667 477.5,630C 479.061,629.682 480.228,628.849 481,627.5C 481.5,588.168 481.667,548.835 481.5,509.5C 472.084,512.3 467.418,508.967 467.5,499.5C 460.303,499.904 457.303,496.404 458.5,489C 457.847,481.818 461.18,478.318 468.5,478.5C 489.343,481.07 510.176,481.07 531,478.5C 537.663,478.665 541.163,481.999 541.5,488.5C 543.262,488.357 544.929,488.691 546.5,489.5C 547.83,481.402 552.663,477.735 561,478.5C 580.8,480.759 600.633,481.093 620.5,479.5C 642.194,478.466 663.194,481.633 683.5,489C 689.137,491.82 694.47,495.153 699.5,499C 708.356,506.858 716.856,515.024 725,523.5C 744.193,556.463 744.193,589.463 725,622.5C 707.089,647.54 682.589,660.04 651.5,660C 624.161,659.722 596.827,659.889 569.5,660.5C 561.023,662.129 556.689,658.795 556.5,650.5C 555.167,650.5 553.833,650.5 552.5,650.5C 553.057,654.888 551.39,658.055 547.5,660C 506.727,660.405 466.06,660.405 425.5,660C 418.627,652.795 412.127,645.295 406,637.5C 397.6,622.369 388.933,607.369 380,592.5C 377.761,589.038 374.594,587.705 370.5,588.5C 370.434,602.512 370.767,616.512 371.5,630.5C 378.116,629.782 381.116,632.782 380.5,639.5C 382.857,639.337 385.19,639.503 387.5,640C 388.701,640.903 389.535,642.069 390,643.5C 390.667,647.833 390.667,652.167 390,656.5C 388.681,658.487 386.848,659.654 384.5,660C 362.831,659.348 341.165,659.348 319.5,660C 315.042,658.529 313.042,655.362 313.5,650.5C 306.803,650.297 303.803,646.797 304.5,640C 304.313,636.559 305.313,633.559 307.5,631C 312.22,630.779 316.887,630.279 321.5,629.5C 322.5,589.506 322.833,549.506 322.5,509.5C 315.853,509.509 313.186,506.175 314.5,499.5C 311.03,500.125 308.196,499.125 306,496.5C 305.333,491.833 305.333,487.167 306,482.5C 308.013,480.752 310.18,479.418 312.5,478.5 Z M 551.5,499.5 C 553.167,499.5 554.833,499.5 556.5,499.5C 556.704,508.026 561.037,511.359 569.5,509.5C 570.197,523.161 570.863,536.827 571.5,550.5C 570.562,576.496 569.729,602.496 569,628.5C 568.5,629 568,629.5 567.5,630C 561.833,630.333 556.167,630.667 550.5,631C 547.875,633.196 546.875,636.03 547.5,639.5C 545.833,639.5 544.167,639.5 542.5,639.5C 542.628,632.628 539.295,629.628 532.5,630.5C 531.061,590.495 531.227,550.495 533,510.5C 537.749,509.695 542.582,509.195 547.5,509C 550.288,506.477 551.621,503.31 551.5,499.5 Z M 627.5,508.5 C 643.547,508.131 658.213,512.297 671.5,521C 678.803,529.109 683.303,538.609 685,549.5C 689.332,576.367 682.165,599.533 663.5,619C 650.895,627.586 636.895,631.419 621.5,630.5C 620.785,595.835 620.618,561.168 621,526.5C 621.333,521.167 621.667,515.833 622,510.5C 623.948,509.891 625.782,509.224 627.5,508.5 Z M 372.5,509.5 C 381.337,508.473 389.671,509.973 397.5,514C 404.701,537.431 396.534,552.598 373,559.5C 372.5,559.167 372,558.833 371.5,558.5C 372.485,542.214 372.818,525.881 372.5,509.5 Z"/></g>
<g><path style="opacity:0.921" fill="#444444" d="M 745.5,478.5 C 784.305,479.476 822.971,479.476 861.5,478.5C 867.616,478.211 871.616,480.878 873.5,486.5C 877.955,487.643 881.122,490.31 883,494.5C 886.206,507.246 889.706,519.912 893.5,532.5C 891.927,538.222 888.093,541.222 882,541.5C 880.439,541.397 878.939,541.063 877.5,540.5C 870.011,532.844 862.678,525.01 855.5,517C 851.993,514.746 848.327,512.746 844.5,511C 833.23,509.591 821.896,509.091 810.5,509.5C 810.5,523.5 810.5,537.5 810.5,551.5C 815.715,552.298 820.215,550.964 824,547.5C 826.435,542.764 828.101,537.764 829,532.5C 830.167,531.333 831.333,530.167 832.5,529C 836.905,528.304 841.239,528.637 845.5,530C 847.487,532.14 848.82,534.64 849.5,537.5C 857.001,538.314 860.001,542.481 858.5,550C 857.457,564.692 857.79,579.358 859.5,594C 859.271,599.226 856.604,602.226 851.5,603C 843.475,605.494 838.809,602.66 837.5,594.5C 831.493,592.819 828.493,588.819 828.5,582.5C 822.529,581.759 816.529,581.425 810.5,581.5C 810.21,598.201 810.543,614.868 811.5,631.5C 821.87,631.726 832.203,631.226 842.5,630C 845.595,629.286 848.595,628.286 851.5,627C 860.865,618.767 869.199,609.601 876.5,599.5C 884.361,596.444 890.028,598.944 893.5,607C 898.524,608.024 901.524,611.024 902.5,616C 898.866,628.569 895.032,641.069 891,653.5C 889.878,655.624 888.378,657.457 886.5,659C 842.213,660.646 797.879,660.979 753.5,660C 749.125,658.299 747.458,655.133 748.5,650.5C 744.975,650.654 742.141,649.321 740,646.5C 739.133,642.044 739.466,637.711 741,633.5C 742.491,631.996 744.324,631.163 746.5,631C 751.155,630.501 755.821,630.334 760.5,630.5C 760.5,590.167 760.5,549.833 760.5,509.5C 753.043,510.876 749.21,507.876 749,500.5C 741.156,499.102 738.156,494.436 740,486.5C 740.135,482.551 741.969,479.884 745.5,478.5 Z"/></g>
<g><path style="opacity:1" fill="#828282" d="M 310.5,485.5 C 337.835,485.333 365.169,485.5 392.5,486C 409.274,487.462 422.441,494.962 432,508.5C 438.102,522.083 437.435,535.416 430,548.5C 427.167,552.667 423.667,556.167 419.5,559C 411.807,563.083 403.807,566.25 395.5,568.5C 400.305,570.992 404.472,574.325 408,578.5C 418.926,596.021 430.592,613.021 443,629.5C 448.592,635.309 455.425,637.642 463.5,636.5C 463.768,639.119 463.435,641.619 462.5,644C 447.833,644.667 433.167,644.667 418.5,644C 408.286,630.417 399.452,615.917 392,600.5C 388,594.5 384,588.5 380,582.5C 373.816,574.381 365.649,571.048 355.5,572.5C 355.333,591.17 355.5,609.836 356,628.5C 356.795,630.901 357.962,633.068 359.5,635C 364.5,635.333 369.5,635.667 374.5,636C 375.602,638.401 375.769,640.901 375,643.5C 353.575,644.494 332.075,644.827 310.5,644.5C 310.223,641.552 310.556,638.719 311.5,636C 315.833,635.667 320.167,635.333 324.5,635C 326.049,633.786 327.215,632.286 328,630.5C 328.667,586.833 328.667,543.167 328,499.5C 327.215,497.714 326.049,496.214 324.5,495C 320.167,494.667 315.833,494.333 311.5,494C 310.556,491.281 310.223,488.448 310.5,485.5 Z M 372.5,509.5 C 372.818,525.881 372.485,542.214 371.5,558.5C 372,558.833 372.5,559.167 373,559.5C 396.534,552.598 404.701,537.431 397.5,514C 389.671,509.973 381.337,508.473 372.5,509.5 Z"/></g>
<g><path style="opacity:1" fill="#828282" d="M 464.5,485.5 C 488.167,485.5 511.833,485.5 535.5,485.5C 535.777,488.448 535.444,491.281 534.5,494C 529.833,494.333 525.167,494.667 520.5,495C 519.069,495.465 517.903,496.299 517,497.5C 516.333,541.833 516.333,586.167 517,630.5C 517.11,632.848 518.277,634.348 520.5,635C 525.885,635.214 531.219,635.714 536.5,636.5C 537.647,638.765 537.814,641.098 537,643.5C 513.241,644.494 489.408,644.828 465.5,644.5C 465.223,641.552 465.556,638.719 466.5,636C 471.5,635.667 476.5,635.333 481.5,635C 484.381,633.749 486.214,631.583 487,628.5C 487.667,585.833 487.667,543.167 487,500.5C 486.315,497.943 484.815,496.109 482.5,495C 476.833,494.667 471.167,494.333 465.5,494C 464.556,491.281 464.223,488.448 464.5,485.5 Z"/></g>
<g><path style="opacity:1" fill="#828282" d="M 575.5,614.5 C 576.664,576.669 576.831,538.669 576,500.5C 575.768,499.263 575.268,498.263 574.5,497.5C 574.047,496.542 573.381,495.708 572.5,495C 566.5,494.667 560.5,494.333 554.5,494C 553.556,491.281 553.223,488.448 553.5,485.5C 584.502,485.333 615.502,485.5 646.5,486C 673.728,487.693 695.561,499.193 712,520.5C 724.206,542.324 726.872,565.324 720,589.5C 707.258,623.822 682.424,641.989 645.5,644C 614.502,644.5 583.502,644.667 552.5,644.5C 552.223,641.552 552.556,638.719 553.5,636C 559.5,635.667 565.5,635.333 571.5,635C 572.333,634.167 573.167,633.333 574,632.5C 575.41,626.621 575.91,620.621 575.5,614.5 Z M 627.5,508.5 C 625.782,509.224 623.948,509.891 622,510.5C 621.667,515.833 621.333,521.167 621,526.5C 620.618,561.168 620.785,595.835 621.5,630.5C 636.895,631.419 650.895,627.586 663.5,619C 682.165,599.533 689.332,576.367 685,549.5C 683.303,538.609 678.803,529.109 671.5,521C 658.213,512.297 643.547,508.131 627.5,508.5 Z"/></g>
<g><path style="opacity:1" fill="#828282" d="M 794.5,566.5 C 793.411,585.181 793.745,603.848 795.5,622.5C 795.829,629.358 799.162,633.858 805.5,636C 817.5,636.667 829.5,636.667 841.5,636C 847.674,634.833 853.34,632.499 858.5,629C 866.403,620.436 874.236,611.936 882,603.5C 884.499,603.816 885.999,605.149 886.5,607.5C 882.845,618.453 879.345,629.453 876,640.5C 875.535,641.931 874.701,643.097 873.5,644C 830.835,644.5 788.168,644.667 745.5,644.5C 745.5,641.833 745.5,639.167 745.5,636.5C 751.176,636.666 756.843,636.499 762.5,636C 764.049,634.786 765.215,633.286 766,631.5C 766.167,610.167 766.333,588.833 766.5,567.5C 766.646,544.785 766.146,522.119 765,499.5C 764.167,497.333 762.667,495.833 760.5,495C 755.833,494.667 751.167,494.333 746.5,494C 745.556,491.281 745.223,488.448 745.5,485.5C 786.167,485.5 826.833,485.5 867.5,485.5C 870.623,497.539 873.957,509.539 877.5,521.5C 876.307,524.763 873.974,525.93 870.5,525C 862.809,516.31 854.809,507.977 846.5,500C 842.799,498.326 839.132,496.659 835.5,495C 821.879,493.615 808.212,493.115 794.5,493.5C 794.5,514.833 794.5,536.167 794.5,557.5C 804.64,558.042 814.64,557.209 824.5,555C 827.734,553.056 829.9,550.222 831,546.5C 832.408,542.943 833.408,539.276 834,535.5C 836.719,534.556 839.552,534.223 842.5,534.5C 842.582,552.103 842.582,569.603 842.5,587C 840.098,587.814 837.765,587.647 835.5,586.5C 834.356,581.568 832.522,576.901 830,572.5C 828.457,570.622 826.624,569.122 824.5,568C 814.412,565.932 804.412,565.432 794.5,566.5 Z"/></g>
<g><path style="opacity:0.94" fill="#434343" d="M 359.5,493.5 C 371.57,491.963 382.903,494.13 393.5,500C 409.197,515.695 410.697,532.862 398,551.5C 386.297,563.29 372.297,567.623 356,564.5C 355.333,542.5 355.333,520.5 356,498.5C 356.997,496.677 358.164,495.01 359.5,493.5 Z M 372.5,509.5 C 372.818,525.881 372.485,542.214 371.5,558.5C 372,558.833 372.5,559.167 373,559.5C 396.534,552.598 404.701,537.431 397.5,514C 389.671,509.973 381.337,508.473 372.5,509.5 Z"/></g>
<g><path style="opacity:0.925" fill="#434343" d="M 611.5,493.5 C 661.092,490.598 688.092,513.764 692.5,563C 692.105,585.872 684.105,605.539 668.5,622C 653.082,633.965 635.749,638.298 616.5,635C 611.269,632.768 607.769,628.935 606,623.5C 605.333,582.167 605.333,540.833 606,499.5C 607.36,496.977 609.193,494.977 611.5,493.5 Z M 627.5,508.5 C 625.782,509.224 623.948,509.891 622,510.5C 621.667,515.833 621.333,521.167 621,526.5C 620.618,561.168 620.785,595.835 621.5,630.5C 636.895,631.419 650.895,627.586 663.5,619C 682.165,599.533 689.332,576.367 685,549.5C 683.303,538.609 678.803,529.109 671.5,521C 658.213,512.297 643.547,508.131 627.5,508.5 Z"/></g>
<g><path style="opacity:1" fill="#545454" d="M 574.5,497.5 C 575.268,498.263 575.768,499.263 576,500.5C 576.831,538.669 576.664,576.669 575.5,614.5C 575.803,575.48 575.47,536.48 574.5,497.5 Z"/></g>
<g><path style="opacity:1" fill="#6c6c6c" d="M 794.5,566.5 C 794.833,585.167 795.167,603.833 795.5,622.5C 793.745,603.848 793.411,585.181 794.5,566.5 Z"/></g>
</svg>
