<?xml version="1.0" encoding="UTF-8"?>
<!DOCTYPE svg PUBLIC "-//W3C//DTD SVG 1.1//EN" "http://www.w3.org/Graphics/SVG/1.1/DTD/svg11.dtd">
<svg xmlns="http://www.w3.org/2000/svg" version="1.1" width="1200px" height="1200px" style="shape-rendering:geometricPrecision; text-rendering:geometricPrecision; image-rendering:optimizeQuality; fill-rule:evenodd; clip-rule:evenodd" xmlns:xlink="http://www.w3.org/1999/xlink">
<g><path style="opacity:1" fill="#fafafa" d="M -0.5,-0.5 C 399.5,-0.5 799.5,-0.5 1199.5,-0.5C 1199.5,399.5 1199.5,799.5 1199.5,1199.5C 799.5,1199.5 399.5,1199.5 -0.5,1199.5C -0.5,799.5 -0.5,399.5 -0.5,-0.5 Z"/></g>
<g><path style="opacity:1" fill="#474747" d="M 425.5,575.5 C 422.603,576.129 419.936,577.129 417.5,578.5C 416.224,579.386 416.224,580.386 417.5,581.5C 418.814,582.313 419.981,583.313 421,584.5C 430.72,600.218 441.22,615.384 452.5,630C 462.078,630.818 471.578,630.651 481,629.5C 482.488,589.252 482.988,548.919 482.5,508.5C 478.818,508.665 475.152,508.499 471.5,508C 470.177,507.184 469.511,506.017 469.5,504.5C 469.5,502.5 469.5,500.5 469.5,498.5C 467.167,498.5 464.833,498.5 462.5,498.5C 461.21,497.942 460.377,496.942 460,495.5C 459.333,491.167 459.333,486.833 460,482.5C 460.75,481.874 461.584,481.374 462.5,481C 487.167,480.333 511.833,480.333 536.5,481C 540.051,482.677 541.384,485.51 540.5,489.5C 543.049,489.387 545.382,490.054 547.5,491.5C 548.318,488.893 548.818,486.226 549,483.5C 549.833,482.667 550.667,481.833 551.5,481C 582.833,480.333 614.167,480.333 645.5,481C 670.289,482.152 691.456,491.319 709,508.5C 713.633,514.135 718.633,519.468 724,524.5C 729.425,531.68 732.925,539.68 734.5,548.5C 738.397,564.478 738.397,580.478 734.5,596.5C 734.5,596.833 734.5,597.167 734.5,597.5C 732.926,599.102 732.259,601.102 732.5,603.5C 730.935,605.509 729.935,607.843 729.5,610.5C 720.328,630.341 705.661,644.341 685.5,652.5C 682.848,652.41 680.515,653.076 678.5,654.5C 663.722,657.982 648.722,659.649 633.5,659.5C 609.17,658.839 584.837,658.339 560.5,658C 557.875,655.804 556.875,652.97 557.5,649.5C 556.167,649.5 554.833,649.5 553.5,649.5C 552.791,648.596 551.791,648.263 550.5,648.5C 550.5,650.833 550.5,653.167 550.5,655.5C 549.522,655.811 548.855,656.478 548.5,657.5C 507.504,658.667 466.504,658.833 425.5,658C 420.039,652.836 414.872,647.336 410,641.5C 401.414,627.331 393.081,612.997 385,598.5C 382.158,594.803 379.325,591.137 376.5,587.5C 374.393,586.532 372.059,586.198 369.5,586.5C 369.5,601.5 369.5,616.5 369.5,631.5C 371.833,631.5 374.167,631.5 376.5,631.5C 378.262,632.262 379.262,633.596 379.5,635.5C 379.5,637.167 379.5,638.833 379.5,640.5C 381.167,640.5 382.833,640.5 384.5,640.5C 388.445,641.74 390.112,644.574 389.5,649C 390.013,652.604 389.013,655.604 386.5,658C 363.5,658.667 340.5,658.667 317.5,658C 314.875,655.804 313.875,652.97 314.5,649.5C 311.03,650.125 308.196,649.125 306,646.5C 305.333,642.167 305.333,637.833 306,633.5C 306.833,632.667 307.667,631.833 308.5,631C 313.351,630.826 318.018,630.326 322.5,629.5C 323.499,589.003 323.832,548.337 323.5,507.5C 321.5,507.5 319.5,507.5 317.5,507.5C 316.833,506.5 316.167,505.5 315.5,504.5C 315.5,502.5 315.5,500.5 315.5,498.5C 313.5,498.5 311.5,498.5 309.5,498.5C 306.148,496.286 304.815,493.119 305.5,489C 305.026,485.708 306.026,483.041 308.5,481C 337.5,480.333 366.5,480.333 395.5,481C 404.123,483.142 412.456,486.142 420.5,490C 428.636,497.135 436.47,504.635 444,512.5C 454.911,533.324 452.078,552.158 435.5,569C 431.991,571.03 428.658,573.196 425.5,575.5 Z"/></g>
<g><path style="opacity:1" fill="#464646" d="M 751.5,480.5 C 790,481.4 828.667,481.4 867.5,480.5C 869.017,480.511 870.184,481.177 871,482.5C 871.912,484.659 872.745,486.825 873.5,489C 876.371,489.131 878.705,490.297 880.5,492.5C 882.767,496.901 884.1,501.567 884.5,506.5C 885.39,512.166 887.057,517.5 889.5,522.5C 889.5,522.833 889.5,523.167 889.5,523.5C 890.463,527.101 891.13,530.767 891.5,534.5C 889.66,536.914 887.327,538.581 884.5,539.5C 882.097,539.552 879.764,539.219 877.5,538.5C 869.305,530.021 860.972,521.521 852.5,513C 849.126,512.479 846.126,511.146 843.5,509C 832.172,508.5 820.838,508.333 809.5,508.5C 808.504,522.99 808.171,537.657 808.5,552.5C 811.059,552.802 813.393,552.468 815.5,551.5C 819.426,551.953 822.592,550.62 825,547.5C 827.145,543.066 828.478,538.4 829,533.5C 830.167,532.333 831.333,531.167 832.5,530C 836.167,529.333 839.833,529.333 843.5,530C 845.644,530.792 846.977,532.292 847.5,534.5C 847.5,536.167 847.5,537.833 847.5,539.5C 848.833,539.5 850.167,539.5 851.5,539.5C 853.062,539.733 854.395,540.4 855.5,541.5C 856.265,544.096 856.599,546.763 856.5,549.5C 855.631,565.333 855.631,581.333 856.5,597.5C 856.5,598.167 856.5,598.833 856.5,599.5C 852.902,600.698 849.236,601.698 845.5,602.5C 841.282,601.084 839.282,598.084 839.5,593.5C 836.728,593.78 834.228,593.113 832,591.5C 830.83,588.143 829.663,584.809 828.5,581.5C 822.021,580.509 815.354,580.176 808.5,580.5C 808.17,597.342 808.503,614.008 809.5,630.5C 809.611,631.117 809.944,631.617 810.5,632C 823.385,633.352 836.052,632.352 848.5,629C 850.996,627.92 853.33,626.586 855.5,625C 863.538,616.63 871.205,607.964 878.5,599C 883.505,598.083 887.672,599.583 891,603.5C 891.494,605.134 891.66,606.801 891.5,608.5C 899.968,609.296 902.635,613.63 899.5,621.5C 898.076,623.515 897.41,625.848 897.5,628.5C 896.331,631.341 895.331,634.341 894.5,637.5C 892.39,641.502 891.057,645.835 890.5,650.5C 889.185,655.645 885.852,658.478 880.5,659C 838.167,659.667 795.833,659.667 753.5,659C 750.38,656.592 749.047,653.426 749.5,649.5C 746.635,649.945 744.135,649.278 742,647.5C 740.466,643.289 740.133,638.956 741,634.5C 741.903,633.299 743.069,632.465 744.5,632C 750.083,631.809 755.583,631.309 761,630.5C 761.831,589.665 761.665,548.998 760.5,508.5C 757.997,507.629 755.33,506.963 752.5,506.5C 751.094,506.027 750.427,505.027 750.5,503.5C 750.5,501.833 750.5,500.167 750.5,498.5C 748.833,498.5 747.167,498.5 745.5,498.5C 743.292,497.977 741.792,496.644 741,494.5C 737.692,484.336 741.192,479.669 751.5,480.5 Z"/></g>
<g><path style="opacity:1" fill="#767676" d="M 867.5,480.5 C 828.667,481.4 790,481.4 751.5,480.5C 790.336,480.007 829.003,480.007 867.5,480.5 Z"/></g>
<g><path style="opacity:1" fill="#828282" d="M 310.5,485.5 C 337.835,485.333 365.169,485.5 392.5,486C 409.274,487.462 422.441,494.962 432,508.5C 437.516,519.595 437.849,530.928 433,542.5C 429.574,548.921 425.074,554.421 419.5,559C 411.807,563.083 403.807,566.25 395.5,568.5C 400.305,570.992 404.472,574.325 408,578.5C 418.926,596.021 430.592,613.021 443,629.5C 448.592,635.309 455.425,637.642 463.5,636.5C 463.768,639.119 463.435,641.619 462.5,644C 447.833,644.667 433.167,644.667 418.5,644C 408.286,630.417 399.452,615.917 392,600.5C 388,594.5 384,588.5 380,582.5C 373.816,574.381 365.649,571.048 355.5,572.5C 355.333,591.17 355.5,609.836 356,628.5C 356.946,630.788 358.113,632.955 359.5,635C 364.5,635.333 369.5,635.667 374.5,636C 375.602,638.401 375.769,640.901 375,643.5C 353.575,644.494 332.075,644.827 310.5,644.5C 310.223,641.552 310.556,638.719 311.5,636C 315.833,635.667 320.167,635.333 324.5,635C 326.049,633.786 327.215,632.286 328,630.5C 328.667,586.833 328.667,543.167 328,499.5C 327.215,497.714 326.049,496.214 324.5,495C 320.167,494.667 315.833,494.333 311.5,494C 310.556,491.281 310.223,488.448 310.5,485.5 Z"/></g>
<g><path style="opacity:1" fill="#828282" d="M 464.5,485.5 C 488.167,485.5 511.833,485.5 535.5,485.5C 535.777,488.448 535.444,491.281 534.5,494C 529.833,494.333 525.167,494.667 520.5,495C 519.069,495.465 517.903,496.299 517,497.5C 516.333,541.833 516.333,586.167 517,630.5C 517.11,632.848 518.277,634.348 520.5,635C 525.5,635.333 530.5,635.667 535.5,636C 536.444,638.719 536.777,641.552 536.5,644.5C 512.833,644.5 489.167,644.5 465.5,644.5C 465.223,641.552 465.556,638.719 466.5,636C 471.5,635.667 476.5,635.333 481.5,635C 484.381,633.749 486.214,631.583 487,628.5C 487.667,585.833 487.667,543.167 487,500.5C 486.315,497.943 484.815,496.109 482.5,495C 476.833,494.667 471.167,494.333 465.5,494C 464.556,491.281 464.223,488.448 464.5,485.5 Z"/></g>
<g><path style="opacity:1" fill="#828282" d="M 553.5,485.5 C 584.502,485.333 615.502,485.5 646.5,486C 673.728,487.693 695.561,499.193 712,520.5C 724.626,543.417 726.959,567.417 719,592.5C 705.635,625.151 681.135,642.318 645.5,644C 614.502,644.5 583.502,644.667 552.5,644.5C 552.223,641.552 552.556,638.719 553.5,636C 559.5,635.667 565.5,635.333 571.5,635C 573.259,633.992 574.426,632.492 575,630.5C 576.573,587.182 576.906,543.848 576,500.5C 575.654,498.152 574.487,496.319 572.5,495C 566.5,494.667 560.5,494.333 554.5,494C 553.556,491.281 553.223,488.448 553.5,485.5 Z"/></g>
<g><path style="opacity:1" fill="#828282" d="M 745.5,485.5 C 786.167,485.5 826.833,485.5 867.5,485.5C 870.623,497.539 873.957,509.539 877.5,521.5C 876.307,524.763 873.974,525.93 870.5,525C 862.809,516.31 854.809,507.977 846.5,500C 842.799,498.326 839.132,496.659 835.5,495C 821.879,493.615 808.212,493.115 794.5,493.5C 794.5,514.833 794.5,536.167 794.5,557.5C 804.64,558.042 814.64,557.209 824.5,555C 827.734,553.056 829.9,550.222 831,546.5C 832.408,542.943 833.408,539.276 834,535.5C 836.719,534.556 839.552,534.223 842.5,534.5C 842.582,552.103 842.582,569.603 842.5,587C 840.098,587.814 837.765,587.647 835.5,586.5C 834.356,581.568 832.522,576.901 830,572.5C 828.457,570.622 826.624,569.122 824.5,568C 814.583,566.285 804.583,565.451 794.5,565.5C 794.71,585.506 795.21,605.506 796,625.5C 796.772,631.235 799.938,634.735 805.5,636C 817.5,636.667 829.5,636.667 841.5,636C 847.674,634.833 853.34,632.499 858.5,629C 866.403,620.436 874.236,611.936 882,603.5C 884.499,603.816 885.999,605.149 886.5,607.5C 882.764,619.209 878.93,630.875 875,642.5C 874.5,643 874,643.5 873.5,644C 830.835,644.5 788.168,644.667 745.5,644.5C 745.5,641.833 745.5,639.167 745.5,636.5C 751.176,636.666 756.843,636.499 762.5,636C 764.049,634.786 765.215,633.286 766,631.5C 766.167,610.167 766.333,588.833 766.5,567.5C 766.646,544.785 766.146,522.119 765,499.5C 764.167,497.333 762.667,495.833 760.5,495C 755.833,494.667 751.167,494.333 746.5,494C 745.556,491.281 745.223,488.448 745.5,485.5 Z"/></g>
<g><path style="opacity:1" fill="#474747" d="M 359.5,493.5 C 371.57,491.963 382.903,494.13 393.5,500C 409.197,515.695 410.697,532.862 398,551.5C 386.332,563.278 372.332,567.611 356,564.5C 355.333,542.5 355.333,520.5 356,498.5C 356.997,496.677 358.164,495.01 359.5,493.5 Z"/></g>
<g><path style="opacity:1" fill="#454545" d="M 611.5,493.5 C 661.092,490.598 688.092,513.764 692.5,563C 692.105,585.872 684.105,605.539 668.5,622C 653.118,634.077 635.785,638.41 616.5,635C 611.269,632.768 607.769,628.935 606,623.5C 605.333,582.167 605.333,540.833 606,499.5C 607.36,496.977 609.193,494.977 611.5,493.5 Z"/></g>
<g><path style="opacity:1" fill="#b2b2b2" d="M 309.5,498.5 C 311.5,498.5 313.5,498.5 315.5,498.5C 315.5,500.5 315.5,502.5 315.5,504.5C 314.549,503.081 314.216,501.415 314.5,499.5C 312.585,499.784 310.919,499.451 309.5,498.5 Z"/></g>
<g><path style="opacity:1" fill="#fafafa" d="M 553.5,498.5 C 554.568,499.434 555.901,499.768 557.5,499.5C 557.216,501.415 557.549,503.081 558.5,504.5C 559.364,505.688 560.364,506.855 561.5,508C 564.482,508.498 567.482,508.665 570.5,508.5C 571.75,543.831 571.75,579.165 570.5,614.5C 570.666,619.511 570.499,624.511 570,629.5C 563.915,630.312 557.748,630.812 551.5,631C 548.599,633.64 546.932,636.807 546.5,640.5C 545.432,639.566 544.099,639.232 542.5,639.5C 542.737,638.209 542.404,637.209 541.5,636.5C 539.796,631.974 536.463,629.974 531.5,630.5C 531.438,590.162 531.771,549.829 532.5,509.5C 536.702,509.817 540.702,509.483 544.5,508.5C 548.87,505.807 550.703,501.807 550,496.5C 550.816,497.823 551.983,498.489 553.5,498.5 Z"/></g>
<g><path style="opacity:1" fill="#adadad" d="M 745.5,498.5 C 747.167,498.5 748.833,498.5 750.5,498.5C 750.5,500.167 750.5,501.833 750.5,503.5C 749.566,502.432 749.232,501.099 749.5,499.5C 747.901,499.768 746.568,499.434 745.5,498.5 Z"/></g>
<g><path style="opacity:1" fill="#8c8c8c" d="M 462.5,498.5 C 464.833,498.5 467.167,498.5 469.5,498.5C 469.5,500.5 469.5,502.5 469.5,504.5C 468.549,503.081 468.216,501.415 468.5,499.5C 466.265,499.795 464.265,499.461 462.5,498.5 Z"/></g>
<g><path style="opacity:1" fill="#969696" d="M 553.5,498.5 C 555.167,498.5 556.833,498.5 558.5,498.5C 558.5,500.5 558.5,502.5 558.5,504.5C 557.549,503.081 557.216,501.415 557.5,499.5C 555.901,499.768 554.568,499.434 553.5,498.5 Z"/></g>
<g><path style="opacity:1" fill="#828282" d="M 640.5,507.5 C 634.131,507.347 627.797,507.68 621.5,508.5C 624.865,506.961 628.531,506.294 632.5,506.5C 635.355,506.503 638.022,506.836 640.5,507.5 Z"/></g>
<g><path style="opacity:1" fill="#8c8c8c" d="M 752.5,506.5 C 755.33,506.963 757.997,507.629 760.5,508.5C 758.143,508.663 755.81,508.497 753.5,508C 752.944,507.617 752.611,507.117 752.5,506.5 Z"/></g>
<g><path style="opacity:1" fill="#f9f9f9" d="M 640.5,507.5 C 651.48,509.22 661.813,513.053 671.5,519C 678.984,527.468 683.65,537.302 685.5,548.5C 686.118,555.817 686.451,563.151 686.5,570.5C 685.432,589.55 678.098,605.717 664.5,619C 651.446,628.683 636.779,632.516 620.5,630.5C 619.931,594.836 619.597,559.169 619.5,523.5C 619.334,519.154 619.501,514.821 620,510.5C 620.717,509.956 621.217,509.289 621.5,508.5C 627.797,507.68 634.131,507.347 640.5,507.5 Z"/></g>
<g><path style="opacity:1" fill="#a8a8a8" d="M 317.5,507.5 C 319.5,507.5 321.5,507.5 323.5,507.5C 323.832,548.337 323.499,589.003 322.5,629.5C 322.5,589.167 322.5,548.833 322.5,508.5C 320.585,508.784 318.919,508.451 317.5,507.5 Z"/></g>
<g><path style="opacity:1" fill="#f9f9f9" d="M 386.5,508.5 C 390.622,509.152 394.456,510.486 398,512.5C 404.513,527.961 401.68,541.461 389.5,553C 384.964,556.234 379.964,558.401 374.5,559.5C 373.5,559.5 372.5,559.5 371.5,559.5C 371.5,542.5 371.5,525.5 371.5,508.5C 376.5,508.5 381.5,508.5 386.5,508.5 Z"/></g>
<g><path style="opacity:1" fill="#c4c4c4" d="M 386.5,508.5 C 381.5,508.5 376.5,508.5 371.5,508.5C 371.5,525.5 371.5,542.5 371.5,559.5C 372.5,559.5 373.5,559.5 374.5,559.5C 373.432,560.434 372.099,560.768 370.5,560.5C 370.5,542.833 370.5,525.167 370.5,507.5C 376.026,507.179 381.36,507.512 386.5,508.5 Z"/></g>
<g><path style="opacity:1" fill="#919191" d="M 884.5,506.5 C 886.943,511.5 888.61,516.834 889.5,522.5C 887.057,517.5 885.39,512.166 884.5,506.5 Z"/></g>
<g><path style="opacity:1" fill="#979797" d="M 889.5,523.5 C 892.229,526.878 892.895,530.545 891.5,534.5C 891.13,530.767 890.463,527.101 889.5,523.5 Z"/></g>
<g><path style="opacity:1" fill="#aaaaaa" d="M 847.5,534.5 C 848.434,535.568 848.768,536.901 848.5,538.5C 849.791,538.263 850.791,538.596 851.5,539.5C 850.167,539.5 848.833,539.5 847.5,539.5C 847.5,537.833 847.5,536.167 847.5,534.5 Z"/></g>
<g><path style="opacity:1" fill="#838383" d="M 877.5,538.5 C 879.764,539.219 882.097,539.552 884.5,539.5C 883.726,540.147 882.726,540.48 881.5,540.5C 879.645,540.66 878.312,539.993 877.5,538.5 Z"/></g>
<g><path style="opacity:1" fill="#787878" d="M 570.5,508.5 C 572.021,524.638 572.688,540.972 572.5,557.5C 572.608,576.687 571.942,595.687 570.5,614.5C 571.75,579.165 571.75,543.831 570.5,508.5 Z"/></g>
<g><path style="opacity:1" fill="#b1b1b1" d="M 809.5,508.5 C 809.5,522.833 809.5,537.167 809.5,551.5C 811.5,551.5 813.5,551.5 815.5,551.5C 813.393,552.468 811.059,552.802 808.5,552.5C 808.171,537.657 808.504,522.99 809.5,508.5 Z"/></g>
<g><path style="opacity:1" fill="#676767" d="M 856.5,549.5 C 856.174,558.017 856.507,566.35 857.5,574.5C 857.5,577.5 857.5,580.5 857.5,583.5C 857.819,588.363 857.486,593.03 856.5,597.5C 855.631,581.333 855.631,565.333 856.5,549.5 Z"/></g>
<g><path style="opacity:1" fill="#c0c0c0" d="M 855.5,541.5 C 856.117,541.611 856.617,541.944 857,542.5C 857.5,553.161 857.667,563.828 857.5,574.5C 856.507,566.35 856.174,558.017 856.5,549.5C 856.599,546.763 856.265,544.096 855.5,541.5 Z"/></g>
<g><path style="opacity:1" fill="#c1c1c1" d="M 544.5,508.5 C 540.702,509.483 536.702,509.817 532.5,509.5C 531.771,549.829 531.438,590.162 531.5,630.5C 530.335,590.335 530.169,550.002 531,509.5C 535.401,508.533 539.901,508.2 544.5,508.5 Z"/></g>
<g><path style="opacity:1" fill="#afafaf" d="M 685.5,548.5 C 686.912,552.921 687.579,557.588 687.5,562.5C 687.497,565.355 687.164,568.022 686.5,570.5C 686.451,563.151 686.118,555.817 685.5,548.5 Z"/></g>
<g><path style="opacity:1" fill="#b3b3b3" d="M 425.5,575.5 C 423.383,577.655 420.716,578.655 417.5,578.5C 419.936,577.129 422.603,576.129 425.5,575.5 Z"/></g>
<g><path style="opacity:1" fill="#c5c5c5" d="M 734.5,548.5 C 735.41,550.019 736.243,551.685 737,553.5C 739.023,566.688 738.856,579.854 736.5,593C 736.392,594.681 735.725,595.848 734.5,596.5C 738.397,580.478 738.397,564.478 734.5,548.5 Z"/></g>
<g><path style="opacity:1" fill="#b5b5b5" d="M 376.5,587.5 C 374.5,587.5 372.5,587.5 370.5,587.5C 370.5,601.833 370.5,616.167 370.5,630.5C 372.735,630.205 374.735,630.539 376.5,631.5C 374.167,631.5 371.833,631.5 369.5,631.5C 369.5,616.5 369.5,601.5 369.5,586.5C 372.059,586.198 374.393,586.532 376.5,587.5 Z"/></g>
<g><path style="opacity:1" fill="#aaaaaa" d="M 828.5,581.5 C 822.167,581.5 815.833,581.5 809.5,581.5C 809.5,597.833 809.5,614.167 809.5,630.5C 808.503,614.008 808.17,597.342 808.5,580.5C 815.354,580.176 822.021,580.509 828.5,581.5 Z"/></g>
<g><path style="opacity:1" fill="#c2c2c2" d="M 857.5,583.5 C 858.164,585.978 858.497,588.645 858.5,591.5C 858.478,594.59 857.812,597.257 856.5,599.5C 856.5,598.833 856.5,598.167 856.5,597.5C 857.486,593.03 857.819,588.363 857.5,583.5 Z"/></g>
<g><path style="opacity:1" fill="#9e9e9e" d="M 619.5,523.5 C 619.597,559.169 619.931,594.836 620.5,630.5C 618.549,594.844 618.216,559.177 619.5,523.5 Z"/></g>
<g><path style="opacity:1" fill="#b2b2b2" d="M 734.5,597.5 C 734.741,599.898 734.074,601.898 732.5,603.5C 732.259,601.102 732.926,599.102 734.5,597.5 Z"/></g>
<g><path style="opacity:1" fill="#b6b6b6" d="M 732.5,603.5 C 732.834,606.491 731.834,608.824 729.5,610.5C 729.935,607.843 730.935,605.509 732.5,603.5 Z"/></g>
<g><path style="opacity:1" fill="#a5a5a5" d="M 899.5,621.5 C 899.59,624.152 898.924,626.485 897.5,628.5C 897.41,625.848 898.076,623.515 899.5,621.5 Z"/></g>
<g><path style="opacity:1" fill="#b1b1b1" d="M 379.5,635.5 C 380.434,636.568 380.768,637.901 380.5,639.5C 382.099,639.232 383.432,639.566 384.5,640.5C 382.833,640.5 381.167,640.5 379.5,640.5C 379.5,638.833 379.5,637.167 379.5,635.5 Z"/></g>
<g><path style="opacity:1" fill="#b4b4b4" d="M 541.5,636.5 C 542.404,637.209 542.737,638.209 542.5,639.5C 544.099,639.232 545.432,639.566 546.5,640.5C 544.833,640.5 543.167,640.5 541.5,640.5C 541.5,639.167 541.5,637.833 541.5,636.5 Z"/></g>
<g><path style="opacity:1" fill="#ababab" d="M 894.5,637.5 C 893.943,642.165 892.61,646.498 890.5,650.5C 891.057,645.835 892.39,641.502 894.5,637.5 Z"/></g>
<g><path style="opacity:1" fill="#909090" d="M 553.5,649.5 C 551.94,651.156 550.94,653.156 550.5,655.5C 550.5,653.167 550.5,650.833 550.5,648.5C 551.791,648.263 552.791,648.596 553.5,649.5 Z"/></g>
<g><path style="opacity:1" fill="#b5b5b5" d="M 685.5,652.5 C 683.485,653.924 681.152,654.59 678.5,654.5C 680.515,653.076 682.848,652.41 685.5,652.5 Z"/></g>
</svg>
